<svg width="91" height="54" viewBox="0 0 91 54" fill="none" xmlns="http://www.w3.org/2000/svg">
<path d="M80.7842 18.8934V15.914H69.1877L66.2082 28.7613L63.2287 15.914H47.6451L45.9512 18.7371C47.3584 18.7371 47.9144 19.0845 47.619 19.7795L45.2824 23.6623C45.0652 23.2628 44.6309 22.9674 43.9707 22.785C43.3105 22.6026 42.5114 22.5157 41.5819 22.5157C40.2876 22.5157 39.0454 22.7937 37.8467 23.3496C36.6566 23.9056 35.5621 24.6092 34.5719 25.4518C33.5816 26.303 32.713 27.2325 31.9659 28.2401C31.2189 29.2565 30.6456 30.2207 30.2547 31.1501C30.0201 31.7061 29.8377 32.2099 29.6987 32.6789L24.6171 15.9053H17.3031L11.6916 33.1741C11.5787 33.4347 11.3528 33.6432 11.014 33.7821C10.6753 33.9211 10.0759 33.9906 9.22461 33.9906L9.25067 36.9701H17.5897V33.9906H16.087C15.2357 33.9906 14.81 33.7648 14.81 33.3131C14.81 33.2001 14.8361 33.0698 14.8969 32.9135L15.2965 31.6366H21.933L22.3586 33.1393C22.376 33.2175 22.3934 33.2783 22.4194 33.3391C22.4368 33.3999 22.4455 33.4521 22.4455 33.5129C22.4455 33.8343 22.1675 33.9906 21.6203 33.9906H19.7527V36.9701H30.5413C30.6543 37.0396 30.7672 37.0917 30.8975 37.1438C31.41 37.3436 32.0007 37.4478 32.6608 37.4478C33.8683 37.4478 35.0757 37.2133 36.3005 36.7356C37.5253 36.2578 38.5764 35.5889 39.4537 34.7116L38.2984 36.9788H46.0902L47.7928 34.1383C46.3334 34.1383 45.7514 33.7995 46.0381 33.1306L53.604 20.5091V32.705C53.604 33.5737 52.7615 34.008 51.085 34.008V36.9875H59.7367V34.008C58.0515 34.008 57.2176 33.5737 57.2176 32.705V20.4831L61.5522 36.9875H67.1116L71.4548 20.4831V32.705C71.4548 33.5737 70.6123 34.008 68.9358 34.008V36.9875H80.8189V34.008C79.1164 34.008 78.2651 33.5737 78.2651 32.705V20.1964C78.2651 19.3278 79.1164 18.8934 80.8189 18.8934H80.7842ZM16.1738 28.7526L18.8145 20.2485L21.1425 28.7526H16.1825H16.1738ZM43.2323 27.7971C43.0326 28.2749 42.7459 28.8395 42.3811 29.5084C42.0162 30.1772 41.5906 30.82 41.0955 31.4368C40.6003 32.0535 40.0618 32.5834 39.4711 33.009C38.8804 33.4347 38.2463 33.6518 37.5687 33.6518C36.952 33.6518 36.5524 33.4781 36.3874 33.122C36.2223 32.7658 36.3526 32.0709 36.7956 31.0285C36.9867 30.5768 37.2647 30.0382 37.6208 29.4128C37.977 28.7961 38.3939 28.1967 38.8891 27.6234C39.3755 27.0501 39.9228 26.5636 40.5221 26.1641C41.1215 25.7645 41.7556 25.5647 42.4332 25.5647C43.0326 25.5647 43.4148 25.721 43.5624 26.0338C43.7101 26.3465 43.6059 26.9372 43.2323 27.8145V27.7971Z" fill="#02020B"/>
<path d="M64.3237 0H26.6763C19.3101 0 12.6389 2.98816 7.81787 7.81787C2.98816 12.6389 0 19.3101 0 26.685C0 41.4173 11.944 53.3613 26.6763 53.3613H64.3237C71.6899 53.3613 78.3611 50.3731 83.1821 45.5434C88.0118 40.7224 91 34.0512 91 26.685C91 11.944 79.056 0 64.3237 0ZM64.5061 49.4958C57.5656 49.4958 51.3373 46.3947 47.1591 41.4955C46.5598 40.8006 46.0038 40.0622 45.5 39.2978C44.9875 40.0622 44.4316 40.8006 43.8322 41.4955C39.654 46.3947 33.4344 49.4958 26.4939 49.4958C13.8897 49.4958 3.68308 39.2804 3.68308 26.685C3.68308 14.0895 13.8897 3.87419 26.4939 3.87419C34.4247 3.87419 41.4173 7.93079 45.5 14.0722C46.0038 13.3078 46.5598 12.5694 47.1591 11.8745C51.3373 6.97528 57.5656 3.87419 64.5061 3.87419C77.1016 3.87419 87.3169 14.0895 87.3169 26.685C87.3169 39.2804 77.1016 49.4958 64.5061 49.4958Z" fill="#02020B"/>
</svg>
