<svg width="390" height="471" viewBox="0 0 390 471" fill="none" xmlns="http://www.w3.org/2000/svg">
<g filter="url(#filter0_d_2893_12246)">
<g filter="url(#filter1_d_2893_12246)">
<rect x="-22" y="185" width="434.473" height="92.5415" fill="#7C809B"/>
<mask id="mask0_2893_12246" style="mask-type:alpha" maskUnits="userSpaceOnUse" x="-22" y="185" width="435" height="93">
<rect x="-22" y="185" width="434.473" height="92.5415" fill="#02020B"/>
</mask>
<g mask="url(#mask0_2893_12246)">
<path d="M412.262 197.711L412.262 184.325L341.888 184.325L323.807 242.042L305.726 184.325L211.156 184.325L200.877 197.008C209.417 197.008 212.79 198.569 210.998 201.691L196.818 219.135C195.5 217.34 192.864 216.013 188.858 215.194C184.852 214.374 180.002 213.984 174.361 213.984C166.507 213.984 158.969 215.233 151.694 217.73C144.472 220.228 137.83 223.389 131.821 227.174C125.811 230.998 120.54 235.174 116.007 239.701C111.473 244.267 107.994 248.598 105.622 252.774C104.198 255.272 103.091 257.535 102.248 259.642L71.4101 184.286L27.0245 184.286L-7.02908 261.867C-7.71437 263.037 -9.08494 263.974 -11.1408 264.598C-13.1967 265.223 -16.834 265.535 -22 265.535L-21.8418 278.92L28.7641 278.92L28.764 265.535L19.6444 265.535C14.4784 265.535 11.8954 264.52 11.8954 262.491C11.8954 261.984 12.0536 261.398 12.4226 260.696L14.8474 254.959L55.1213 254.959L57.7043 261.711C57.8097 262.062 57.9152 262.335 58.0733 262.608C58.1787 262.881 58.2314 263.115 58.2314 263.389C58.2314 264.833 56.5446 265.535 53.2236 265.535L41.89 265.535L41.89 278.92L107.361 278.92C108.047 279.233 108.732 279.467 109.523 279.701C112.633 280.598 116.217 281.067 120.224 281.067C127.551 281.067 134.878 280.013 142.311 277.867C149.744 275.72 156.122 272.715 161.446 268.774L154.435 278.959L201.72 278.959L212.052 266.198C203.196 266.198 199.664 264.676 201.404 261.672L247.318 204.969L247.318 259.759C247.318 263.662 242.205 265.613 232.031 265.613L232.031 278.998L284.535 278.998L284.535 265.613C274.308 265.613 269.248 263.662 269.248 259.759L269.247 204.852L295.552 278.998L329.289 278.998L355.647 204.852L355.647 259.759C355.647 263.662 350.533 265.613 340.359 265.613L340.359 278.998L412.473 278.998L412.473 265.613C402.141 265.613 396.975 263.662 396.975 259.759L396.975 203.564C396.975 199.662 402.141 197.711 412.473 197.711L412.262 197.711ZM20.1716 242.003L36.1968 203.798L50.3243 242.003L20.2243 242.003L20.1716 242.003ZM184.377 237.711C183.165 239.857 181.425 242.394 179.211 245.398C176.997 248.403 174.414 251.291 171.409 254.062C168.405 256.833 165.136 259.213 161.552 261.125C157.967 263.037 154.119 264.013 150.007 264.013C146.265 264.013 143.84 263.233 142.838 261.633C141.837 260.033 142.627 256.911 145.316 252.228C146.475 250.198 148.162 247.779 150.324 244.969C152.485 242.198 155.015 239.506 158.02 236.93C160.972 234.355 164.293 232.169 167.93 230.374C171.568 228.579 175.416 227.681 179.527 227.681C183.165 227.681 185.484 228.384 186.38 229.789C187.276 231.194 186.644 233.847 184.377 237.789L184.377 237.711Z" fill="#02020B"/>
</g>
</g>
<g filter="url(#filter2_d_2893_12246)">
<rect x="-22" width="434.473" height="92.5415" fill="#7C809B"/>
<mask id="mask1_2893_12246" style="mask-type:alpha" maskUnits="userSpaceOnUse" x="-22" y="0" width="435" height="93">
<rect x="-22" width="434.473" height="92.5415" fill="#02020B"/>
</mask>
<g mask="url(#mask1_2893_12246)">
<path d="M412.262 12.7106L412.262 -0.674756L341.888 -0.67475L323.807 57.0423L305.726 -0.674747L211.156 -0.674739L200.877 12.0082C209.417 12.0082 212.79 13.5692 210.998 16.6911L196.818 34.135C195.5 32.3399 192.864 31.0131 188.858 30.1935C184.852 29.374 180.002 28.9838 174.361 28.9838C166.507 28.9838 158.969 30.2326 151.694 32.7301C144.472 35.2277 137.83 38.3887 131.821 42.174C125.811 45.9984 120.54 50.174 116.007 54.7008C111.473 59.2667 107.994 63.5984 105.622 67.774C104.198 70.2716 103.091 72.535 102.248 74.6423L71.4101 -0.713753L27.0245 -0.713749L-7.02908 76.8667C-7.71437 78.0374 -9.08494 78.974 -11.1408 79.5984C-13.1967 80.2228 -16.834 80.535 -22 80.535L-21.8418 93.9204L28.7641 93.9204L28.764 80.535L19.6444 80.535C14.4784 80.535 11.8954 79.5204 11.8954 77.4911C11.8954 76.9838 12.0536 76.3984 12.4226 75.696L14.8474 69.9594L55.1213 69.9594L57.7043 76.7106C57.8097 77.0618 57.9152 77.335 58.0733 77.6082C58.1787 77.8813 58.2314 78.1155 58.2314 78.3887C58.2314 79.8326 56.5446 80.535 53.2236 80.535L41.89 80.535L41.89 93.9204L107.361 93.9204C108.047 94.2325 108.732 94.4667 109.523 94.7008C112.633 95.5984 116.217 96.0667 120.224 96.0667C127.551 96.0667 134.878 95.013 142.311 92.8667C149.744 90.7204 156.122 87.7155 161.446 83.774L154.435 93.9594L201.72 93.9594L212.052 81.1984C203.196 81.1984 199.664 79.6764 201.404 76.6716L247.318 19.9692L247.318 74.7594C247.318 78.6618 242.205 80.613 232.031 80.613L232.031 93.9984L284.535 93.9984L284.535 80.613C274.308 80.613 269.248 78.6618 269.248 74.7594L269.247 19.8521L295.552 93.9984L329.289 93.9984L355.647 19.8521L355.647 74.7594C355.647 78.6618 350.533 80.613 340.359 80.613L340.359 93.9984L412.473 93.9984L412.473 80.613C402.141 80.613 396.975 78.6618 396.975 74.7594L396.975 18.5643C396.975 14.6618 402.141 12.7106 412.473 12.7106L412.262 12.7106ZM20.1716 57.0033L36.1968 18.7984L50.3243 57.0033L20.2243 57.0033L20.1716 57.0033ZM184.377 52.7106C183.165 54.8569 181.425 57.3935 179.211 60.3984C176.997 63.4033 174.414 66.2911 171.409 69.0618C168.405 71.8325 165.136 74.213 161.552 76.1252C157.967 78.0374 154.119 79.013 150.007 79.013C146.265 79.013 143.84 78.2326 142.838 76.6326C141.837 75.0326 142.627 71.9106 145.316 67.2277C146.475 65.1984 148.162 62.7789 150.324 59.9691C152.485 57.1984 155.015 54.5057 158.02 51.9301C160.972 49.3545 164.293 47.1692 167.93 45.374C171.568 43.5789 175.416 42.6813 179.527 42.6813C183.165 42.6813 185.484 43.3838 186.38 44.7887C187.276 46.1935 186.644 48.8472 184.377 52.7887L184.377 52.7106Z" fill="#02020B"/>
</g>
</g>
<g filter="url(#filter3_d_2893_12246)">
<rect x="-22" y="370" width="434.473" height="92.5415" fill="#7C809B"/>
<mask id="mask2_2893_12246" style="mask-type:alpha" maskUnits="userSpaceOnUse" x="-22" y="370" width="435" height="93">
<rect x="-22" y="370" width="434.473" height="92.5415" fill="#02020B"/>
</mask>
<g mask="url(#mask2_2893_12246)">
<path d="M412.262 382.711L412.262 369.326L341.888 369.326L323.807 427.043L305.726 369.326L211.156 369.326L200.877 382.009C209.417 382.009 212.79 383.57 210.998 386.692L196.818 404.135C195.5 402.34 192.864 401.014 188.858 400.194C184.852 399.375 180.002 398.984 174.361 398.984C166.507 398.984 158.969 400.233 151.694 402.731C144.472 405.228 137.83 408.389 131.821 412.175C125.811 415.999 120.54 420.175 116.007 424.701C111.473 429.267 107.994 433.599 105.622 437.775C104.198 440.272 103.091 442.535 102.248 444.643L71.4101 369.287L27.0245 369.287L-7.02908 446.867C-7.71437 448.038 -9.08494 448.975 -11.1408 449.599C-13.1967 450.223 -16.834 450.535 -22 450.535L-21.8418 463.921L28.7641 463.921L28.764 450.535L19.6444 450.535C14.4784 450.535 11.8954 449.521 11.8954 447.492C11.8954 446.984 12.0536 446.399 12.4226 445.696L14.8474 439.96L55.1213 439.96L57.7043 446.711C57.8097 447.062 57.9152 447.335 58.0733 447.609C58.1787 447.882 58.2314 448.116 58.2314 448.389C58.2314 449.833 56.5446 450.535 53.2236 450.535L41.89 450.535L41.89 463.921L107.361 463.921C108.047 464.233 108.732 464.467 109.523 464.701C112.633 465.599 116.217 466.067 120.224 466.067C127.551 466.067 134.878 465.014 142.311 462.867C149.744 460.721 156.122 457.716 161.446 453.774L154.435 463.96L201.72 463.96L212.052 451.199C203.196 451.199 199.664 449.677 201.404 446.672L247.318 389.97L247.318 444.76C247.318 448.662 242.205 450.614 232.031 450.614L232.031 463.999L284.535 463.999L284.535 450.614C274.308 450.614 269.248 448.662 269.248 444.76L269.247 389.853L295.552 463.999L329.289 463.999L355.647 389.853L355.647 444.76C355.647 448.662 350.533 450.614 340.359 450.614L340.359 463.999L412.473 463.999L412.473 450.614C402.141 450.614 396.975 448.662 396.975 444.76L396.975 388.565C396.975 384.662 402.141 382.711 412.473 382.711L412.262 382.711ZM20.1716 427.004L36.1968 388.799L50.3243 427.004L20.2243 427.004L20.1716 427.004ZM184.377 422.711C183.165 424.857 181.425 427.394 179.211 430.399C176.997 433.404 174.414 436.292 171.409 439.062C168.405 441.833 165.136 444.214 161.552 446.126C157.967 448.038 154.119 449.014 150.007 449.014C146.265 449.014 143.84 448.233 142.838 446.633C141.837 445.033 142.627 441.911 145.316 437.228C146.475 435.199 148.162 432.779 150.324 429.97C152.485 427.199 155.015 424.506 158.02 421.931C160.972 419.355 164.293 417.17 167.93 415.375C171.568 413.579 175.416 412.682 179.527 412.682C183.165 412.682 185.484 413.384 186.38 414.789C187.276 416.194 186.644 418.848 184.377 422.789L184.377 422.711Z" fill="#02020B"/>
</g>
</g>
<g filter="url(#filter4_d_2893_12246)">
<rect width="434.473" height="92.5415" transform="matrix(1 -8.29478e-08 -9.21392e-08 -1 -22 185)" fill="#02020B"/>
<mask id="mask3_2893_12246" style="mask-type:alpha" maskUnits="userSpaceOnUse" x="-22" y="92" width="435" height="93">
<rect width="434.473" height="92.5415" transform="matrix(1 -8.29478e-08 -9.21392e-08 -1 -22 185)" fill="#02020B"/>
</mask>
<g mask="url(#mask3_2893_12246)">
<path d="M412.262 172.289L412.262 185.674L341.888 185.674L323.807 127.957L305.726 185.674L211.156 185.674L200.877 172.992C209.417 172.992 212.79 171.431 210.998 168.309L196.818 150.865C195.5 152.66 192.864 153.987 188.858 154.806C184.852 155.626 180.002 156.016 174.361 156.016C166.507 156.016 158.969 154.767 151.694 152.27C144.472 149.772 137.83 146.611 131.821 142.826C125.811 139.001 120.54 134.826 116.007 130.299C111.473 125.733 107.994 121.401 105.622 117.226C104.198 114.728 103.091 112.465 102.248 110.357L71.4101 185.714L27.0245 185.714L-7.02909 108.133C-7.71438 106.962 -9.08495 106.026 -11.1408 105.401C-13.1967 104.777 -16.834 104.465 -22 104.465L-21.8419 91.0794L28.764 91.0794L28.764 104.465L19.6444 104.465C14.4784 104.465 11.8954 105.479 11.8954 107.509C11.8954 108.016 12.0536 108.601 12.4226 109.304L14.8474 115.04L55.1213 115.04L57.7043 108.289C57.8097 107.938 57.9151 107.665 58.0733 107.392C58.1787 107.118 58.2314 106.884 58.2314 106.611C58.2314 105.167 56.5446 104.465 53.2236 104.465L41.8899 104.465L41.8899 91.0794L107.361 91.0794C108.047 90.7672 108.732 90.533 109.523 90.2989C112.633 89.4013 116.217 88.933 120.224 88.933C127.551 88.933 134.878 89.9867 142.311 92.133C149.744 94.2794 156.122 97.2842 161.446 101.226L154.435 91.0403L201.72 91.0403L212.052 103.801C203.196 103.801 199.664 105.323 201.404 108.328L247.318 165.031L247.318 110.24C247.318 106.338 242.205 104.387 232.031 104.387L232.031 91.0013L284.535 91.0013L284.535 104.387C274.308 104.387 269.247 106.338 269.247 110.24L269.247 165.148L295.552 91.0013L329.289 91.0013L355.647 165.148L355.647 110.24C355.647 106.338 350.533 104.387 340.359 104.387L340.359 91.0013L412.473 91.0013L412.473 104.387C402.141 104.387 396.975 106.338 396.975 110.24L396.975 166.435C396.975 170.338 402.141 172.289 412.473 172.289H412.262ZM20.1716 127.996L36.1968 166.201L50.3243 127.996L20.2243 127.996H20.1716ZM184.377 132.289C183.165 130.143 181.425 127.606 179.211 124.601C176.997 121.596 174.414 118.709 171.409 115.938C168.405 113.167 165.136 110.787 161.552 108.874C157.967 106.962 154.119 105.987 150.007 105.987C146.265 105.987 143.84 106.767 142.838 108.367C141.837 109.967 142.627 113.089 145.316 117.772C146.475 119.801 148.162 122.221 150.324 125.031C152.485 127.801 155.015 130.494 158.02 133.07C160.972 135.645 164.293 137.831 167.93 139.626C171.568 141.421 175.416 142.318 179.527 142.318C183.165 142.318 185.484 141.616 186.38 140.211C187.276 138.806 186.644 136.153 184.377 132.211V132.289Z" fill="#F3F90A"/>
</g>
</g>
<g filter="url(#filter5_d_2893_12246)">
<rect width="434.473" height="92.5415" transform="matrix(1 -8.29478e-08 -9.21392e-08 -1 -22 370)" fill="#02020B"/>
<mask id="mask4_2893_12246" style="mask-type:alpha" maskUnits="userSpaceOnUse" x="-22" y="277" width="435" height="94">
<rect width="434.473" height="92.5415" transform="matrix(1 -8.29478e-08 -9.21392e-08 -1 -22 370)" fill="#02020B"/>
</mask>
<g mask="url(#mask4_2893_12246)">
<path d="M412.262 357.29L412.262 370.675L341.888 370.675L323.807 312.958L305.726 370.675L211.156 370.675L200.877 357.992C209.417 357.992 212.79 356.431 210.998 353.309L196.818 335.865C195.5 337.66 192.864 338.987 188.858 339.807C184.852 340.626 180.002 341.016 174.361 341.016C166.507 341.016 158.969 339.768 151.694 337.27C144.472 334.773 137.83 331.612 131.821 327.826C125.811 324.002 120.54 319.826 116.007 315.299C111.473 310.734 107.994 306.402 105.622 302.226C104.198 299.729 103.091 297.465 102.248 295.358L71.4101 370.714L27.0245 370.714L-7.02909 293.134C-7.71438 291.963 -9.08495 291.026 -11.1408 290.402C-13.1967 289.777 -16.834 289.465 -22 289.465L-21.8419 276.08L28.764 276.08L28.764 289.465L19.6444 289.465C14.4784 289.465 11.8954 290.48 11.8954 292.509C11.8954 293.016 12.0536 293.602 12.4226 294.304L14.8474 300.041L55.1213 300.041L57.7043 293.29C57.8097 292.938 57.9151 292.665 58.0733 292.392C58.1787 292.119 58.2314 291.885 58.2314 291.612C58.2314 290.168 56.5446 289.465 53.2236 289.465L41.8899 289.465L41.8899 276.08L107.361 276.08C108.047 275.768 108.732 275.534 109.523 275.299C112.633 274.402 116.217 273.934 120.224 273.934C127.551 273.934 134.878 274.987 142.311 277.133C149.744 279.28 156.122 282.285 161.446 286.226L154.435 276.041L201.72 276.041L212.052 288.802C203.196 288.802 199.664 290.324 201.404 293.329L247.318 350.031L247.318 295.241C247.318 291.338 242.205 289.387 232.031 289.387L232.031 276.002L284.535 276.002L284.535 289.387C274.308 289.387 269.247 291.338 269.247 295.241L269.247 350.148L295.552 276.002L329.289 276.002L355.647 350.148L355.647 295.241C355.647 291.338 350.533 289.387 340.359 289.387L340.359 276.002L412.473 276.002L412.473 289.387C402.141 289.387 396.975 291.338 396.975 295.241L396.975 351.436C396.975 355.338 402.141 357.29 412.473 357.29H412.262ZM20.1716 312.997L36.1968 351.202L50.3243 312.997L20.2243 312.997H20.1716ZM184.377 317.29C183.165 315.143 181.425 312.607 179.211 309.602C176.997 306.597 174.414 303.709 171.409 300.938C168.405 298.168 165.136 295.787 161.552 293.875C157.967 291.963 154.119 290.987 150.007 290.987C146.265 290.987 143.84 291.768 142.838 293.368C141.837 294.968 142.627 298.09 145.316 302.773C146.475 304.802 148.162 307.221 150.324 310.031C152.485 312.802 155.015 315.494 158.02 318.07C160.972 320.646 164.293 322.831 167.93 324.626C171.568 326.421 175.416 327.319 179.527 327.319C183.165 327.319 185.484 326.616 186.38 325.212C187.276 323.807 186.644 321.153 184.377 317.212V317.29Z" fill="#F3F90A"/>
</g>
</g>
</g>
<defs>
<filter id="filter0_d_2893_12246" x="-26" y="0" width="442.473" height="470.542" filterUnits="userSpaceOnUse" color-interpolation-filters="sRGB">
<feFlood flood-opacity="0" result="BackgroundImageFix"/>
<feColorMatrix in="SourceAlpha" type="matrix" values="0 0 0 0 0 0 0 0 0 0 0 0 0 0 0 0 0 0 127 0" result="hardAlpha"/>
<feOffset dy="4"/>
<feGaussianBlur stdDeviation="2"/>
<feComposite in2="hardAlpha" operator="out"/>
<feColorMatrix type="matrix" values="0 0 0 0 0 0 0 0 0 0 0 0 0 0 0 0 0 0 0.25 0"/>
<feBlend mode="normal" in2="BackgroundImageFix" result="effect1_dropShadow_2893_12246"/>
<feBlend mode="normal" in="SourceGraphic" in2="effect1_dropShadow_2893_12246" result="shape"/>
</filter>
<filter id="filter1_d_2893_12246" x="-26" y="185" width="442.473" height="100.542" filterUnits="userSpaceOnUse" color-interpolation-filters="sRGB">
<feFlood flood-opacity="0" result="BackgroundImageFix"/>
<feColorMatrix in="SourceAlpha" type="matrix" values="0 0 0 0 0 0 0 0 0 0 0 0 0 0 0 0 0 0 127 0" result="hardAlpha"/>
<feOffset dy="4"/>
<feGaussianBlur stdDeviation="2"/>
<feComposite in2="hardAlpha" operator="out"/>
<feColorMatrix type="matrix" values="0 0 0 0 0 0 0 0 0 0 0 0 0 0 0 0 0 0 0.25 0"/>
<feBlend mode="normal" in2="BackgroundImageFix" result="effect1_dropShadow_2893_12246"/>
<feBlend mode="normal" in="SourceGraphic" in2="effect1_dropShadow_2893_12246" result="shape"/>
</filter>
<filter id="filter2_d_2893_12246" x="-26" y="0" width="442.473" height="100.542" filterUnits="userSpaceOnUse" color-interpolation-filters="sRGB">
<feFlood flood-opacity="0" result="BackgroundImageFix"/>
<feColorMatrix in="SourceAlpha" type="matrix" values="0 0 0 0 0 0 0 0 0 0 0 0 0 0 0 0 0 0 127 0" result="hardAlpha"/>
<feOffset dy="4"/>
<feGaussianBlur stdDeviation="2"/>
<feComposite in2="hardAlpha" operator="out"/>
<feColorMatrix type="matrix" values="0 0 0 0 0 0 0 0 0 0 0 0 0 0 0 0 0 0 0.25 0"/>
<feBlend mode="normal" in2="BackgroundImageFix" result="effect1_dropShadow_2893_12246"/>
<feBlend mode="normal" in="SourceGraphic" in2="effect1_dropShadow_2893_12246" result="shape"/>
</filter>
<filter id="filter3_d_2893_12246" x="-26" y="370" width="442.473" height="100.542" filterUnits="userSpaceOnUse" color-interpolation-filters="sRGB">
<feFlood flood-opacity="0" result="BackgroundImageFix"/>
<feColorMatrix in="SourceAlpha" type="matrix" values="0 0 0 0 0 0 0 0 0 0 0 0 0 0 0 0 0 0 127 0" result="hardAlpha"/>
<feOffset dy="4"/>
<feGaussianBlur stdDeviation="2"/>
<feComposite in2="hardAlpha" operator="out"/>
<feColorMatrix type="matrix" values="0 0 0 0 0 0 0 0 0 0 0 0 0 0 0 0 0 0 0.25 0"/>
<feBlend mode="normal" in2="BackgroundImageFix" result="effect1_dropShadow_2893_12246"/>
<feBlend mode="normal" in="SourceGraphic" in2="effect1_dropShadow_2893_12246" result="shape"/>
</filter>
<filter id="filter4_d_2893_12246" x="-26" y="92.4585" width="442.473" height="100.542" filterUnits="userSpaceOnUse" color-interpolation-filters="sRGB">
<feFlood flood-opacity="0" result="BackgroundImageFix"/>
<feColorMatrix in="SourceAlpha" type="matrix" values="0 0 0 0 0 0 0 0 0 0 0 0 0 0 0 0 0 0 127 0" result="hardAlpha"/>
<feOffset dy="4"/>
<feGaussianBlur stdDeviation="2"/>
<feComposite in2="hardAlpha" operator="out"/>
<feColorMatrix type="matrix" values="0 0 0 0 0 0 0 0 0 0 0 0 0 0 0 0 0 0 0.25 0"/>
<feBlend mode="normal" in2="BackgroundImageFix" result="effect1_dropShadow_2893_12246"/>
<feBlend mode="normal" in="SourceGraphic" in2="effect1_dropShadow_2893_12246" result="shape"/>
</filter>
<filter id="filter5_d_2893_12246" x="-26" y="277.459" width="442.473" height="100.542" filterUnits="userSpaceOnUse" color-interpolation-filters="sRGB">
<feFlood flood-opacity="0" result="BackgroundImageFix"/>
<feColorMatrix in="SourceAlpha" type="matrix" values="0 0 0 0 0 0 0 0 0 0 0 0 0 0 0 0 0 0 127 0" result="hardAlpha"/>
<feOffset dy="4"/>
<feGaussianBlur stdDeviation="2"/>
<feComposite in2="hardAlpha" operator="out"/>
<feColorMatrix type="matrix" values="0 0 0 0 0 0 0 0 0 0 0 0 0 0 0 0 0 0 0.25 0"/>
<feBlend mode="normal" in2="BackgroundImageFix" result="effect1_dropShadow_2893_12246"/>
<feBlend mode="normal" in="SourceGraphic" in2="effect1_dropShadow_2893_12246" result="shape"/>
</filter>
</defs>
</svg>
