<svg xmlns="http://www.w3.org/2000/svg" width="1409" height="1501" viewBox="0 0 1409 1501" fill="none">
<rect y="600.215" width="1408.97" height="300.107" fill="#7C809B"/>
<mask id="mask0_2905_3272" style="mask-type:alpha" maskUnits="userSpaceOnUse" x="0" y="600" width="1409" height="301">
<rect y="600.215" width="1408.97" height="300.107" fill="#02020B"/>
</mask>
<g mask="url(#mask0_2905_3272)">
<path d="M1408.29 641.435L1408.29 598.027L1180.07 598.027L1121.43 785.2L1062.8 598.027L756.113 598.027L722.778 639.157C750.472 639.157 761.413 644.219 755.601 654.343L709.615 710.913C705.341 705.091 696.794 700.789 683.801 698.131C670.809 695.473 655.082 694.208 636.79 694.208C611.318 694.208 586.873 698.258 563.281 706.357C539.861 714.456 518.321 724.707 498.833 736.983C479.345 749.385 462.25 762.927 447.548 777.607C432.846 792.414 421.564 806.461 413.871 820.003C409.255 828.102 405.665 835.442 402.93 842.276L302.924 597.9L158.984 597.9L48.5499 849.49C46.3276 853.286 41.8829 856.324 35.2158 858.348C28.5487 860.373 16.7532 861.386 2.42774e-05 861.386L0.512875 904.794L164.625 904.794L164.625 861.386L135.051 861.386C118.298 861.386 109.921 858.095 109.921 851.515C109.921 849.869 110.434 847.971 111.631 845.693L119.494 827.09L250.1 827.09L258.477 848.983C258.819 850.122 259.161 851.008 259.674 851.894C260.015 852.78 260.186 853.539 260.186 854.425C260.186 859.108 254.716 861.386 243.946 861.386L207.192 861.386L207.192 904.794L419.512 904.794C421.735 905.806 423.957 906.565 426.521 907.325C436.607 910.236 448.232 911.754 461.224 911.754C484.986 911.754 508.748 908.337 532.852 901.377C556.956 894.416 577.641 884.672 594.907 871.89L572.171 904.92L725.513 904.92L759.02 863.537C730.3 863.537 718.846 858.602 724.488 848.857L873.385 664.974L873.385 842.656C873.385 855.311 856.803 861.639 823.81 861.639L823.81 905.047L994.076 905.047L994.076 861.639C960.912 861.639 944.501 855.311 944.501 842.656L944.501 664.594L1029.8 905.047L1139.21 905.047L1224.69 664.594L1224.69 842.656C1224.69 855.311 1208.11 861.639 1175.11 861.639L1175.11 905.047L1408.97 905.047L1408.97 861.639C1375.47 861.639 1358.71 855.311 1358.71 842.656L1358.71 660.418C1358.71 647.762 1375.47 641.435 1408.97 641.435L1408.29 641.435ZM136.76 785.074L188.729 661.177L234.544 785.074L136.931 785.074L136.76 785.074ZM669.271 771.153C665.339 778.113 659.697 786.339 652.518 796.084C645.338 805.828 636.961 815.193 627.217 824.179C617.473 833.164 606.874 840.884 595.249 847.085C583.625 853.286 571.145 856.45 557.811 856.45C545.674 856.45 537.81 853.919 534.562 848.73C531.314 843.542 533.878 833.417 542.596 818.231C546.357 811.65 551.828 803.804 558.837 794.692C565.846 785.706 574.051 776.974 583.795 768.622C593.369 760.269 604.139 753.182 615.934 747.361C627.73 741.539 640.209 738.628 653.543 738.628C665.339 738.628 672.861 740.906 675.767 745.462C678.673 750.018 676.622 758.624 669.271 771.406L669.271 771.153Z" fill="#02020B"/>
</g>
<rect width="1408.97" height="300.107" fill="#7C809B"/>
<mask id="mask1_2905_3272" style="mask-type:alpha" maskUnits="userSpaceOnUse" x="0" y="0" width="1409" height="301">
<rect width="1408.97" height="300.107" fill="#02020B"/>
</mask>
<g mask="url(#mask1_2905_3272)">
<path d="M1408.29 41.2198L1408.29 -2.18826L1180.07 -2.18824L1121.43 184.985L1062.8 -2.18823L756.113 -2.1882L722.778 38.9419C750.472 38.9419 761.413 44.004 755.601 54.1284L709.615 110.698C705.341 104.877 696.794 100.574 683.801 97.9161C670.809 95.2584 655.082 93.9929 636.79 93.9929C611.318 93.9929 586.873 98.0426 563.281 106.142C539.861 114.242 518.321 124.492 498.833 136.768C479.345 149.17 462.25 162.712 447.548 177.392C432.846 192.199 421.564 206.246 413.871 219.788C409.255 227.887 405.665 235.227 402.93 242.061L302.924 -2.31472L158.984 -2.31471L48.5499 249.275C46.3276 253.071 41.8829 256.109 35.2158 258.134C28.5487 260.158 16.7532 261.171 2.42774e-05 261.171L0.512875 304.579L164.625 304.579L164.625 261.171L135.051 261.171C118.298 261.171 109.921 257.88 109.921 251.3C109.921 249.654 110.434 247.756 111.631 245.478L119.494 226.875L250.1 226.875L258.477 248.769C258.819 249.908 259.161 250.793 259.674 251.679C260.015 252.565 260.186 253.324 260.186 254.21C260.186 258.893 254.716 261.171 243.946 261.171L207.192 261.171L207.192 304.579L419.512 304.579C421.735 305.591 423.957 306.351 426.521 307.11C436.607 310.021 448.232 311.539 461.224 311.539C484.986 311.539 508.748 308.122 532.852 301.162C556.956 294.201 577.641 284.457 594.907 271.675L572.171 304.705L725.513 304.705L759.02 263.322C730.3 263.322 718.846 258.387 724.488 248.642L873.385 64.7589L873.385 242.441C873.385 255.096 856.803 261.424 823.81 261.424L823.81 304.832L994.076 304.832L994.076 261.424C960.912 261.424 944.501 255.096 944.501 242.441L944.501 64.3792L1029.8 304.832L1139.21 304.832L1224.69 64.3792L1224.69 242.441C1224.69 255.096 1208.11 261.424 1175.11 261.424L1175.11 304.832L1408.97 304.832L1408.97 261.424C1375.47 261.424 1358.71 255.096 1358.71 242.441L1358.71 60.2029C1358.71 47.5475 1375.47 41.2198 1408.97 41.2198L1408.29 41.2198ZM136.76 184.859L188.729 60.9623L234.544 184.859L136.931 184.859L136.76 184.859ZM669.271 170.938C665.339 177.898 659.697 186.124 652.518 195.869C645.338 205.614 636.961 214.979 627.217 223.964C617.473 232.949 606.874 240.669 595.249 246.87C583.625 253.071 571.145 256.235 557.811 256.235C545.674 256.235 537.81 253.704 534.562 248.515C531.314 243.327 533.878 233.202 542.596 218.016C546.357 211.435 551.828 203.589 558.837 194.477C565.846 185.491 574.051 176.759 583.795 168.407C593.369 160.054 604.139 152.967 615.934 147.146C627.73 141.324 640.209 138.413 653.543 138.413C665.339 138.413 672.861 140.691 675.767 145.247C678.673 149.803 676.622 158.409 669.271 171.191L669.271 170.938Z" fill="#02020B"/>
</g>
<rect y="1200.43" width="1408.97" height="300.107" fill="#7C809B"/>
<mask id="mask2_2905_3272" style="mask-type:alpha" maskUnits="userSpaceOnUse" x="0" y="1200" width="1409" height="301">
<rect y="1200.43" width="1408.97" height="300.107" fill="#02020B"/>
</mask>
<g mask="url(#mask2_2905_3272)">
<path d="M1408.29 1241.65L1408.29 1198.24L1180.07 1198.24L1121.43 1385.42L1062.8 1198.24L756.113 1198.24L722.778 1239.37C750.472 1239.37 761.413 1244.43 755.601 1254.56L709.615 1311.13C705.341 1305.31 696.794 1301 683.801 1298.35C670.809 1295.69 655.082 1294.42 636.79 1294.42C611.318 1294.42 586.873 1298.47 563.281 1306.57C539.861 1314.67 518.321 1324.92 498.833 1337.2C479.345 1349.6 462.25 1363.14 447.548 1377.82C432.846 1392.63 421.564 1406.68 413.871 1420.22C409.255 1428.32 405.665 1435.66 402.93 1442.49L302.924 1198.12L158.984 1198.12L48.5499 1449.7C46.3276 1453.5 41.8829 1456.54 35.2158 1458.56C28.5487 1460.59 16.7532 1461.6 2.42774e-05 1461.6L0.512875 1505.01L164.625 1505.01L164.625 1461.6L135.051 1461.6C118.298 1461.6 109.921 1458.31 109.921 1451.73C109.921 1450.08 110.434 1448.19 111.631 1445.91L119.494 1427.3L250.1 1427.3L258.477 1449.2C258.819 1450.34 259.161 1451.22 259.674 1452.11C260.015 1453 260.186 1453.75 260.186 1454.64C260.186 1459.32 254.716 1461.6 243.946 1461.6L207.192 1461.6L207.192 1505.01L419.512 1505.01C421.735 1506.02 423.957 1506.78 426.521 1507.54C436.607 1510.45 448.232 1511.97 461.224 1511.97C484.986 1511.97 508.748 1508.55 532.852 1501.59C556.956 1494.63 577.641 1484.89 594.907 1472.1L572.171 1505.14L725.513 1505.14L759.02 1463.75C730.3 1463.75 718.846 1458.82 724.488 1449.07L873.385 1265.19L873.385 1442.87C873.385 1455.53 856.803 1461.85 823.81 1461.85L823.81 1505.26L994.076 1505.26L994.076 1461.85C960.912 1461.85 944.501 1455.53 944.501 1442.87L944.501 1264.81L1029.8 1505.26L1139.21 1505.26L1224.69 1264.81L1224.69 1442.87C1224.69 1455.53 1208.11 1461.85 1175.11 1461.85L1175.11 1505.26L1408.97 1505.26L1408.97 1461.85C1375.47 1461.85 1358.71 1455.53 1358.71 1442.87L1358.71 1260.63C1358.71 1247.98 1375.47 1241.65 1408.97 1241.65L1408.29 1241.65ZM136.76 1385.29L188.729 1261.39L234.544 1385.29L136.931 1385.29L136.76 1385.29ZM669.271 1371.37C665.339 1378.33 659.697 1386.55 652.518 1396.3C645.338 1406.04 636.961 1415.41 627.217 1424.39C617.473 1433.38 606.874 1441.1 595.249 1447.3C583.625 1453.5 571.145 1456.67 557.811 1456.67C545.674 1456.67 537.81 1454.13 534.562 1448.95C531.314 1443.76 533.878 1433.63 542.596 1418.45C546.357 1411.86 551.828 1404.02 558.837 1394.91C565.846 1385.92 574.051 1377.19 583.795 1368.84C593.369 1360.48 604.139 1353.4 615.934 1347.58C627.73 1341.75 640.209 1338.84 653.543 1338.84C665.339 1338.84 672.861 1341.12 675.767 1345.68C678.673 1350.23 676.622 1358.84 669.271 1371.62L669.271 1371.37Z" fill="#02020B"/>
</g>
<rect width="1408.97" height="300.107" transform="matrix(1 -8.29478e-08 -9.21392e-08 -1 0 600.215)" fill="#02020B"/>
<mask id="mask3_2905_3272" style="mask-type:alpha" maskUnits="userSpaceOnUse" x="0" y="300" width="1409" height="301">
<rect width="1408.97" height="300.107" transform="matrix(1 -8.29478e-08 -9.21392e-08 -1 0 600.215)" fill="#02020B"/>
</mask>
<g mask="url(#mask3_2905_3272)">
<path d="M1408.29 558.994L1408.29 602.402L1180.07 602.402L1121.43 415.228L1062.8 602.402L756.113 602.402L722.778 561.272C750.472 561.272 761.413 556.21 755.601 546.085L709.615 489.516C705.341 495.337 696.794 499.64 683.801 502.298C670.809 504.955 655.082 506.221 636.79 506.221C611.318 506.221 586.873 502.171 563.281 494.072C539.861 485.972 518.321 475.721 498.833 463.446C479.345 451.043 462.25 437.502 447.548 422.822C432.846 408.015 421.564 393.967 413.871 380.426C409.255 372.327 405.665 364.986 402.93 358.153L302.924 602.529L158.984 602.529L48.5499 350.939C46.3275 347.142 41.8828 344.105 35.2158 342.08C28.5487 340.055 16.7531 339.043 0 339.043L0.512847 295.635L164.625 295.635L164.625 339.043L135.051 339.043C118.298 339.043 109.921 342.333 109.921 348.914C109.921 350.559 110.434 352.458 111.631 354.736L119.494 373.339L250.1 373.339L258.477 351.445C258.819 350.306 259.161 349.42 259.674 348.534C260.015 347.649 260.186 346.889 260.186 346.003C260.186 341.321 254.716 339.043 243.946 339.043L207.192 339.043L207.192 295.635L419.512 295.635C421.735 294.622 423.957 293.863 426.521 293.104C436.607 290.193 448.232 288.674 461.224 288.674C484.986 288.674 508.748 292.091 532.852 299.052C556.956 306.012 577.641 315.757 594.907 328.539L572.171 295.508L725.513 295.508L759.02 336.891C730.3 336.891 718.846 341.827 724.488 351.572L873.385 535.455L873.385 357.773C873.385 345.117 856.803 338.79 823.81 338.79L823.81 295.382L994.076 295.382L994.076 338.79C960.912 338.79 944.501 345.117 944.501 357.773L944.501 535.834L1029.8 295.382L1139.21 295.382L1224.69 535.834L1224.69 357.773C1224.69 345.117 1208.11 338.79 1175.11 338.79L1175.11 295.382L1408.97 295.382L1408.97 338.79C1375.47 338.79 1358.71 345.117 1358.71 357.773L1358.71 540.011C1358.71 552.666 1375.47 558.994 1408.97 558.994H1408.29ZM136.76 415.355L188.729 539.251L234.544 415.355L136.931 415.355H136.76ZM669.271 429.276C665.339 422.315 659.697 414.089 652.518 404.345C645.338 394.6 636.961 385.235 627.217 376.25C617.473 367.264 606.874 359.545 595.249 353.343C583.625 347.142 571.145 343.978 557.811 343.978C545.674 343.978 537.81 346.51 534.562 351.698C531.314 356.887 533.878 367.011 542.596 382.198C546.357 388.779 551.828 396.625 558.837 405.737C565.846 414.722 574.051 423.454 583.795 431.807C593.369 440.16 604.139 447.247 615.934 453.068C627.73 458.89 640.209 461.8 653.543 461.8C665.339 461.8 672.861 459.522 675.767 454.966C678.673 450.41 676.622 441.805 669.271 429.023V429.276Z" fill="#F3F90A"/>
</g>
<rect width="1408.97" height="300.107" transform="matrix(1 -8.29478e-08 -9.21392e-08 -1 0 1200.43)" fill="#02020B"/>
<mask id="mask4_2905_3272" style="mask-type:alpha" maskUnits="userSpaceOnUse" x="0" y="900" width="1409" height="301">
<rect width="1408.97" height="300.107" transform="matrix(1 -8.29478e-08 -9.21392e-08 -1 0 1200.43)" fill="#02020B"/>
</mask>
<g mask="url(#mask4_2905_3272)">
<path d="M1408.29 1159.21L1408.29 1202.62L1180.07 1202.62L1121.43 1015.44L1062.8 1202.62L756.113 1202.62L722.778 1161.49C750.472 1161.49 761.413 1156.42 755.601 1146.3L709.615 1089.73C705.341 1095.55 696.794 1099.86 683.801 1102.51C670.809 1105.17 655.082 1106.44 636.79 1106.44C611.318 1106.44 586.873 1102.39 563.281 1094.29C539.861 1086.19 518.321 1075.94 498.833 1063.66C479.345 1051.26 462.25 1037.72 447.548 1023.04C432.846 1008.23 421.564 994.182 413.871 980.641C409.255 972.542 405.665 965.202 402.93 958.368L302.924 1202.74L158.984 1202.74L48.5499 951.154C46.3275 947.357 41.8828 944.32 35.2158 942.295C28.5487 940.27 16.7531 939.258 0 939.258L0.512847 895.85L164.625 895.85L164.625 939.258L135.051 939.258C118.298 939.258 109.921 942.548 109.921 949.129C109.921 950.774 110.434 952.673 111.631 954.951L119.494 973.554L250.1 973.554L258.477 951.66C258.819 950.521 259.161 949.635 259.674 948.75C260.015 947.864 260.186 947.104 260.186 946.218C260.186 941.536 254.716 939.258 243.946 939.258L207.192 939.258L207.192 895.85L419.512 895.85C421.735 894.837 423.957 894.078 426.521 893.319C436.607 890.408 448.232 888.889 461.224 888.889C484.986 888.889 508.748 892.306 532.852 899.267C556.956 906.227 577.641 915.972 594.907 928.754L572.171 895.723L725.513 895.723L759.02 937.107C730.3 937.107 718.846 942.042 724.488 951.787L873.385 1135.67L873.385 957.988C873.385 945.333 856.803 939.005 823.81 939.005L823.81 895.597L994.076 895.597L994.076 939.005C960.912 939.005 944.501 945.333 944.501 957.988L944.501 1136.05L1029.8 895.597L1139.21 895.597L1224.69 1136.05L1224.69 957.988C1224.69 945.333 1208.11 939.005 1175.11 939.005L1175.11 895.597L1408.97 895.597L1408.97 939.005C1375.47 939.005 1358.71 945.333 1358.71 957.988L1358.71 1140.23C1358.71 1152.88 1375.47 1159.21 1408.97 1159.21H1408.29ZM136.76 1015.57L188.729 1139.47L234.544 1015.57L136.931 1015.57H136.76ZM669.271 1029.49C665.339 1022.53 659.697 1014.3 652.518 1004.56C645.338 994.815 636.961 985.45 627.217 976.465C617.473 967.48 606.874 959.76 595.249 953.559C583.625 947.357 571.145 944.194 557.811 944.194C545.674 944.194 537.81 946.725 534.562 951.913C531.314 957.102 533.878 967.226 542.596 982.413C546.357 988.994 551.828 996.84 558.837 1005.95C565.846 1014.94 574.051 1023.67 583.795 1032.02C593.369 1040.37 604.139 1047.46 615.934 1053.28C627.73 1059.1 640.209 1062.02 653.543 1062.02C665.339 1062.02 672.861 1059.74 675.767 1055.18C678.673 1050.63 676.622 1042.02 669.271 1029.24V1029.49Z" fill="#F3F90A"/>
</g>
</svg>