<svg width="1451" height="618" viewBox="0 0 1451 618" fill="none" xmlns="http://www.w3.org/2000/svg">
<rect width="1450.72" height="309" transform="matrix(1 -8.29478e-08 -9.21392e-08 -1 0 309)" fill="#02020B"/>
<mask id="mask0_1699_1074" style="mask-type:alpha" maskUnits="userSpaceOnUse" x="0" y="0" width="1451" height="309">
<rect width="1450.72" height="309" transform="matrix(1 -8.29478e-08 -9.21392e-08 -1 0 309)" fill="#02020B"/>
</mask>
<g mask="url(#mask0_1699_1074)">
<path d="M1450.02 266.558L1450.02 311.253L1215.04 311.253L1154.66 118.533L1094.29 311.253L778.518 311.253L744.195 268.904C772.71 268.904 783.975 263.692 777.99 253.267L730.642 195.021C726.241 201.015 717.441 205.446 704.063 208.182C690.686 210.918 674.493 212.221 655.659 212.221C629.433 212.221 604.262 208.052 579.972 199.712C555.858 191.373 533.68 180.818 513.614 168.179C493.548 155.409 475.947 141.466 460.81 126.351C445.672 111.105 434.055 96.6417 426.134 82.6991C421.382 74.3597 417.686 66.802 414.869 59.7656L311.9 311.383L163.695 311.383L49.9885 52.3383C47.7003 48.4292 43.1239 45.3019 36.2593 43.217C29.3947 41.1321 17.2496 40.0897 0 40.0897L0.528043 -4.60463L169.503 -4.60463L169.503 40.0897L139.053 40.0897C121.803 40.0897 113.178 43.4776 113.178 50.2534C113.178 51.9474 113.706 53.9019 114.938 56.2474L123.035 75.4021L257.511 75.4021L266.136 52.8595C266.488 51.6867 266.84 50.7746 267.368 49.8625C267.72 48.9504 267.896 48.1685 267.896 47.2564C267.896 42.4351 262.264 40.0897 251.175 40.0897L213.331 40.0897L213.331 -4.60463L431.943 -4.60463C434.231 -5.64706 436.519 -6.42884 439.16 -7.21067C449.545 -10.2077 461.514 -11.7713 474.891 -11.7713C499.357 -11.7713 523.823 -8.25314 548.641 -1.08641C573.46 6.08031 594.758 16.1138 612.535 29.2745L589.125 -4.73491L747.011 -4.73491L781.51 37.8745C751.94 37.8745 740.147 42.9564 745.955 52.9898L899.265 242.322L899.265 59.3747C899.265 46.3443 882.192 39.8291 848.22 39.8291L848.22 -4.86524L1023.53 -4.86524L1023.53 39.8291C989.385 39.8291 972.488 46.3443 972.488 59.3747L972.488 242.713L1060.32 -4.86524L1172.97 -4.86524L1260.98 242.713L1260.98 59.3747C1260.98 46.3443 1243.9 39.8291 1209.93 39.8291L1209.93 -4.86524L1450.72 -4.86524L1450.72 39.8291C1416.22 39.8291 1398.97 46.3443 1398.97 59.3747L1398.97 247.013C1398.97 260.043 1416.22 266.558 1450.72 266.558H1450.02ZM140.813 118.663L194.322 246.231L241.494 118.663L140.989 118.663H140.813ZM689.102 132.997C685.054 125.83 679.245 117.36 671.853 107.327C664.46 97.2932 655.835 87.6507 645.802 78.3991C635.769 69.1475 624.856 61.199 612.887 54.8141C600.918 48.4292 588.069 45.1715 574.34 45.1715C561.843 45.1715 553.746 47.7776 550.402 53.1201C547.057 58.4626 549.698 68.8869 558.674 84.5234C562.547 91.2992 568.179 99.378 575.396 108.76C582.613 118.012 591.061 127.003 601.094 135.603C610.951 144.203 622.04 151.5 634.185 157.494C646.33 163.488 659.179 166.485 672.909 166.485C685.054 166.485 692.798 164.139 695.791 159.448C698.783 154.757 696.671 145.897 689.102 132.736V132.997Z" fill="#F3F90A"/>
</g>
<rect y="309" width="1450.72" height="309" fill="#7C809B"/>
<mask id="mask1_1699_1074" style="mask-type:alpha" maskUnits="userSpaceOnUse" x="0" y="309" width="1451" height="309">
<rect y="309" width="1450.72" height="309" fill="#02020B"/>
</mask>
<g mask="url(#mask1_1699_1074)">
<path d="M1450.02 351.442L1450.02 306.747L1215.04 306.747L1154.66 499.467L1094.29 306.747L778.518 306.747L744.195 349.096C772.71 349.096 783.975 354.308 777.99 364.733L730.642 422.979C726.241 416.985 717.441 412.554 704.063 409.818C690.686 407.082 674.493 405.779 655.659 405.779C629.433 405.779 604.262 409.948 579.972 418.288C555.858 426.627 533.68 437.182 513.614 449.821C493.548 462.591 475.947 476.534 460.81 491.649C445.672 506.894 434.055 521.358 426.134 535.301C421.382 543.64 417.686 551.198 414.869 558.234L311.9 306.617L163.695 306.617L49.9885 565.662C47.7003 569.571 43.1239 572.698 36.2593 574.783C29.3947 576.868 17.2496 577.91 2.49967e-05 577.91L0.528072 622.604L169.503 622.604L169.503 577.91L139.053 577.91C121.803 577.91 113.178 574.522 113.178 567.746C113.178 566.052 113.706 564.098 114.938 561.752L123.035 542.598L257.511 542.598L266.136 565.14C266.488 566.313 266.84 567.225 267.368 568.137C267.72 569.05 267.896 569.831 267.896 570.743C267.896 575.565 262.264 577.91 251.175 577.91L213.331 577.91L213.331 622.604L431.943 622.604C434.231 623.647 436.519 624.429 439.16 625.21C449.545 628.207 461.514 629.771 474.891 629.771C499.357 629.771 523.823 626.253 548.641 619.086C573.46 611.92 594.758 601.886 612.535 588.725L589.125 622.735L747.011 622.735L781.51 580.125C751.94 580.125 740.147 575.043 745.955 565.01L899.265 375.678L899.265 558.625C899.265 571.656 882.192 578.171 848.22 578.171L848.22 622.865L1023.53 622.865L1023.53 578.171C989.385 578.171 972.488 571.656 972.488 558.625L972.488 375.287L1060.32 622.865L1172.97 622.865L1260.98 375.287L1260.98 558.625C1260.98 571.656 1243.9 578.171 1209.93 578.171L1209.93 622.865L1450.72 622.865L1450.72 578.171C1416.22 578.171 1398.97 571.655 1398.97 558.625L1398.97 370.987C1398.97 357.957 1416.22 351.442 1450.72 351.442L1450.02 351.442ZM140.813 499.337L194.322 371.769L241.494 499.337L140.989 499.337L140.813 499.337ZM689.102 485.003C685.054 492.17 679.245 500.64 671.853 510.673C664.46 520.707 655.835 530.349 645.802 539.601C635.769 548.852 624.856 556.801 612.887 563.186C600.918 569.571 588.069 572.828 574.34 572.828C561.843 572.828 553.746 570.222 550.402 564.88C547.057 559.537 549.698 549.113 558.674 533.476C562.547 526.701 568.179 518.622 575.396 509.24C582.613 499.988 591.061 490.997 601.094 482.397C610.951 473.797 622.04 466.5 634.185 460.506C646.33 454.512 659.179 451.515 672.909 451.515C685.054 451.515 692.798 453.861 695.791 458.552C698.783 463.243 696.671 472.103 689.102 485.264L689.102 485.003Z" fill="#02020B"/>
</g>
</svg>
