<svg xmlns="http://www.w3.org/2000/svg" width="1417" height="1501" viewBox="0 0 1417 1501" fill="none">
<rect x="4" y="600.215" width="1408.97" height="300.107" fill="#7C809B"/>
<mask id="mask0_2905_3272" style="mask-type:alpha" maskUnits="userSpaceOnUse" x="4" y="600" width="1409" height="301">
<rect x="4" y="600.215" width="1408.97" height="300.107" fill="#02020B"/>
</mask>
<g mask="url(#mask0_2905_3272)">
<path d="M1412.29 641.435L1412.29 598.027L1184.07 598.027L1125.43 785.2L1066.8 598.027L760.113 598.027L726.778 639.157C754.472 639.157 765.413 644.219 759.601 654.343L713.615 710.913C709.341 705.091 700.794 700.789 687.801 698.131C674.809 695.473 659.082 694.208 640.79 694.208C615.318 694.208 590.873 698.258 567.281 706.357C543.861 714.456 522.321 724.707 502.833 736.983C483.345 749.385 466.25 762.927 451.548 777.607C436.846 792.414 425.564 806.461 417.871 820.003C413.255 828.102 409.665 835.442 406.93 842.276L306.924 597.9L162.984 597.9L52.5499 849.49C50.3276 853.286 45.8829 856.324 39.2158 858.348C32.5487 860.373 20.7532 861.386 4.00002 861.386L4.51287 904.794L168.625 904.794L168.625 861.386L139.051 861.386C122.298 861.386 113.921 858.095 113.921 851.515C113.921 849.869 114.434 847.971 115.631 845.693L123.494 827.09L254.1 827.09L262.477 848.983C262.819 850.122 263.161 851.008 263.674 851.894C264.015 852.78 264.186 853.539 264.186 854.425C264.186 859.108 258.716 861.386 247.946 861.386L211.192 861.386L211.192 904.794L423.512 904.794C425.735 905.806 427.957 906.565 430.521 907.325C440.607 910.236 452.232 911.754 465.224 911.754C488.986 911.754 512.748 908.337 536.852 901.377C560.956 894.416 581.641 884.672 598.907 871.89L576.171 904.92L729.513 904.92L763.02 863.537C734.3 863.537 722.846 858.602 728.488 848.857L877.385 664.974L877.385 842.656C877.385 855.311 860.803 861.639 827.81 861.639L827.81 905.047L998.076 905.047L998.076 861.639C964.912 861.639 948.501 855.311 948.501 842.656L948.501 664.594L1033.8 905.047L1143.21 905.047L1228.69 664.594L1228.69 842.656C1228.69 855.311 1212.11 861.639 1179.11 861.639L1179.11 905.047L1412.97 905.047L1412.97 861.639C1379.47 861.639 1362.71 855.311 1362.71 842.656L1362.71 660.418C1362.71 647.762 1379.47 641.435 1412.97 641.435L1412.29 641.435ZM140.76 785.074L192.729 661.177L238.544 785.074L140.931 785.074L140.76 785.074ZM673.271 771.153C669.339 778.113 663.697 786.339 656.518 796.084C649.338 805.828 640.961 815.193 631.217 824.179C621.473 833.164 610.874 840.884 599.249 847.085C587.625 853.286 575.145 856.45 561.811 856.45C549.674 856.45 541.81 853.919 538.562 848.73C535.314 843.542 537.878 833.417 546.596 818.231C550.357 811.65 555.828 803.804 562.837 794.692C569.846 785.706 578.051 776.974 587.795 768.622C597.369 760.269 608.139 753.182 619.934 747.361C631.73 741.539 644.209 738.628 657.543 738.628C669.339 738.628 676.861 740.906 679.767 745.462C682.673 750.018 680.622 758.624 673.271 771.406L673.271 771.153Z" fill="#02020B"/>
</g>
<g filter="url(#filter0_d_2905_3272)">
<rect x="4" width="1408.97" height="300.107" fill="#7C809B"/>
<mask id="mask1_2905_3272" style="mask-type:alpha" maskUnits="userSpaceOnUse" x="4" y="0" width="1409" height="301">
<rect x="4" width="1408.97" height="300.107" fill="#02020B"/>
</mask>
<g mask="url(#mask1_2905_3272)">
<path d="M1412.29 41.2198L1412.29 -2.18826L1184.07 -2.18824L1125.43 184.985L1066.8 -2.18823L760.113 -2.1882L726.778 38.9419C754.472 38.9419 765.413 44.004 759.601 54.1284L713.615 110.698C709.341 104.877 700.794 100.574 687.801 97.9161C674.809 95.2584 659.082 93.9929 640.79 93.9929C615.318 93.9929 590.873 98.0426 567.281 106.142C543.861 114.242 522.321 124.492 502.833 136.768C483.345 149.17 466.25 162.712 451.548 177.392C436.846 192.199 425.564 206.246 417.871 219.788C413.255 227.887 409.665 235.227 406.93 242.061L306.924 -2.31472L162.984 -2.31471L52.5499 249.275C50.3276 253.071 45.8829 256.109 39.2158 258.134C32.5487 260.158 20.7532 261.171 4.00002 261.171L4.51287 304.579L168.625 304.579L168.625 261.171L139.051 261.171C122.298 261.171 113.921 257.88 113.921 251.3C113.921 249.654 114.434 247.756 115.631 245.478L123.494 226.875L254.1 226.875L262.477 248.769C262.819 249.908 263.161 250.793 263.674 251.679C264.015 252.565 264.186 253.324 264.186 254.21C264.186 258.893 258.716 261.171 247.946 261.171L211.192 261.171L211.192 304.579L423.512 304.579C425.735 305.591 427.957 306.351 430.521 307.11C440.607 310.021 452.232 311.539 465.224 311.539C488.986 311.539 512.748 308.122 536.852 301.162C560.956 294.201 581.641 284.457 598.907 271.675L576.171 304.705L729.513 304.705L763.02 263.322C734.3 263.322 722.846 258.387 728.488 248.642L877.385 64.7589L877.385 242.441C877.385 255.096 860.803 261.424 827.81 261.424L827.81 304.832L998.076 304.832L998.076 261.424C964.912 261.424 948.501 255.096 948.501 242.441L948.501 64.3792L1033.8 304.832L1143.21 304.832L1228.69 64.3792L1228.69 242.441C1228.69 255.096 1212.11 261.424 1179.11 261.424L1179.11 304.832L1412.97 304.832L1412.97 261.424C1379.47 261.424 1362.71 255.096 1362.71 242.441L1362.71 60.2029C1362.71 47.5475 1379.47 41.2198 1412.97 41.2198L1412.29 41.2198ZM140.76 184.859L192.729 60.9623L238.544 184.859L140.931 184.859L140.76 184.859ZM673.271 170.938C669.339 177.898 663.697 186.124 656.518 195.869C649.338 205.614 640.961 214.979 631.217 223.964C621.473 232.949 610.874 240.669 599.249 246.87C587.625 253.071 575.145 256.235 561.811 256.235C549.674 256.235 541.81 253.704 538.562 248.515C535.314 243.327 537.878 233.202 546.596 218.016C550.357 211.435 555.828 203.589 562.837 194.477C569.846 185.491 578.051 176.759 587.795 168.407C597.369 160.054 608.139 152.967 619.934 147.146C631.73 141.324 644.209 138.413 657.543 138.413C669.339 138.413 676.861 140.691 679.767 145.247C682.673 149.803 680.622 158.409 673.271 171.191L673.271 170.938Z" fill="#02020B"/>
</g>
</g>
<rect x="4" y="1200.43" width="1408.97" height="300.107" fill="#7C809B"/>
<mask id="mask2_2905_3272" style="mask-type:alpha" maskUnits="userSpaceOnUse" x="4" y="1200" width="1409" height="301">
<rect x="4" y="1200.43" width="1408.97" height="300.107" fill="#02020B"/>
</mask>
<g mask="url(#mask2_2905_3272)">
<path d="M1412.29 1241.65L1412.29 1198.24L1184.07 1198.24L1125.43 1385.42L1066.8 1198.24L760.113 1198.24L726.778 1239.37C754.472 1239.37 765.413 1244.43 759.601 1254.56L713.615 1311.13C709.341 1305.31 700.794 1301 687.801 1298.35C674.809 1295.69 659.082 1294.42 640.79 1294.42C615.318 1294.42 590.873 1298.47 567.281 1306.57C543.861 1314.67 522.321 1324.92 502.833 1337.2C483.345 1349.6 466.25 1363.14 451.548 1377.82C436.846 1392.63 425.564 1406.68 417.871 1420.22C413.255 1428.32 409.665 1435.66 406.93 1442.49L306.924 1198.12L162.984 1198.12L52.5499 1449.7C50.3276 1453.5 45.8829 1456.54 39.2158 1458.56C32.5487 1460.59 20.7532 1461.6 4.00002 1461.6L4.51287 1505.01L168.625 1505.01L168.625 1461.6L139.051 1461.6C122.298 1461.6 113.921 1458.31 113.921 1451.73C113.921 1450.08 114.434 1448.19 115.631 1445.91L123.494 1427.3L254.1 1427.3L262.477 1449.2C262.819 1450.34 263.161 1451.22 263.674 1452.11C264.015 1453 264.186 1453.75 264.186 1454.64C264.186 1459.32 258.716 1461.6 247.946 1461.6L211.192 1461.6L211.192 1505.01L423.512 1505.01C425.735 1506.02 427.957 1506.78 430.521 1507.54C440.607 1510.45 452.232 1511.97 465.224 1511.97C488.986 1511.97 512.748 1508.55 536.852 1501.59C560.956 1494.63 581.641 1484.89 598.907 1472.1L576.171 1505.14L729.513 1505.14L763.02 1463.75C734.3 1463.75 722.846 1458.82 728.488 1449.07L877.385 1265.19L877.385 1442.87C877.385 1455.53 860.803 1461.85 827.81 1461.85L827.81 1505.26L998.076 1505.26L998.076 1461.85C964.912 1461.85 948.501 1455.53 948.501 1442.87L948.501 1264.81L1033.8 1505.26L1143.21 1505.26L1228.69 1264.81L1228.69 1442.87C1228.69 1455.53 1212.11 1461.85 1179.11 1461.85L1179.11 1505.26L1412.97 1505.26L1412.97 1461.85C1379.47 1461.85 1362.71 1455.53 1362.71 1442.87L1362.71 1260.63C1362.71 1247.98 1379.47 1241.65 1412.97 1241.65L1412.29 1241.65ZM140.76 1385.29L192.729 1261.39L238.544 1385.29L140.931 1385.29L140.76 1385.29ZM673.271 1371.37C669.339 1378.33 663.697 1386.55 656.518 1396.3C649.338 1406.04 640.961 1415.41 631.217 1424.39C621.473 1433.38 610.874 1441.1 599.249 1447.3C587.625 1453.5 575.145 1456.67 561.811 1456.67C549.674 1456.67 541.81 1454.13 538.562 1448.95C535.314 1443.76 537.878 1433.63 546.596 1418.45C550.357 1411.86 555.828 1404.02 562.837 1394.91C569.846 1385.92 578.051 1377.19 587.795 1368.84C597.369 1360.48 608.139 1353.4 619.934 1347.58C631.73 1341.75 644.209 1338.84 657.543 1338.84C669.339 1338.84 676.861 1341.12 679.767 1345.68C682.673 1350.23 680.622 1358.84 673.271 1371.62L673.271 1371.37Z" fill="#02020B"/>
</g>
<rect width="1408.97" height="300.107" transform="matrix(1 -8.29478e-08 -9.21392e-08 -1 4 600.215)" fill="#02020B"/>
<mask id="mask3_2905_3272" style="mask-type:alpha" maskUnits="userSpaceOnUse" x="4" y="300" width="1409" height="301">
<rect width="1408.97" height="300.107" transform="matrix(1 -8.29478e-08 -9.21392e-08 -1 4 600.215)" fill="#02020B"/>
</mask>
<g mask="url(#mask3_2905_3272)">
<path d="M1412.29 558.994L1412.29 602.402L1184.07 602.402L1125.43 415.228L1066.8 602.402L760.113 602.402L726.778 561.272C754.472 561.272 765.413 556.21 759.601 546.085L713.615 489.516C709.341 495.337 700.794 499.64 687.801 502.298C674.809 504.955 659.082 506.221 640.79 506.221C615.318 506.221 590.873 502.171 567.281 494.072C543.861 485.972 522.321 475.721 502.833 463.446C483.345 451.043 466.25 437.502 451.548 422.822C436.846 408.015 425.564 393.967 417.871 380.426C413.255 372.327 409.665 364.986 406.93 358.153L306.924 602.529L162.984 602.529L52.5499 350.939C50.3275 347.142 45.8828 344.105 39.2158 342.08C32.5487 340.055 20.7531 339.043 4 339.043L4.51285 295.635L168.625 295.635L168.625 339.043L139.051 339.043C122.298 339.043 113.921 342.333 113.921 348.914C113.921 350.559 114.434 352.458 115.631 354.736L123.494 373.339L254.1 373.339L262.477 351.445C262.819 350.306 263.161 349.42 263.674 348.534C264.015 347.649 264.186 346.889 264.186 346.003C264.186 341.321 258.716 339.043 247.946 339.043L211.192 339.043L211.192 295.635L423.512 295.635C425.735 294.622 427.957 293.863 430.521 293.104C440.607 290.193 452.232 288.674 465.224 288.674C488.986 288.674 512.748 292.091 536.852 299.052C560.956 306.012 581.641 315.757 598.907 328.539L576.171 295.508L729.513 295.508L763.02 336.891C734.3 336.891 722.846 341.827 728.488 351.572L877.385 535.455L877.385 357.773C877.385 345.117 860.803 338.79 827.81 338.79L827.81 295.382L998.076 295.382L998.076 338.79C964.912 338.79 948.501 345.117 948.501 357.773L948.501 535.834L1033.8 295.382L1143.21 295.382L1228.69 535.834L1228.69 357.773C1228.69 345.117 1212.11 338.79 1179.11 338.79L1179.11 295.382L1412.97 295.382L1412.97 338.79C1379.47 338.79 1362.71 345.117 1362.71 357.773L1362.71 540.011C1362.71 552.666 1379.47 558.994 1412.97 558.994H1412.29ZM140.76 415.355L192.729 539.251L238.544 415.355L140.931 415.355H140.76ZM673.271 429.276C669.339 422.315 663.697 414.089 656.518 404.345C649.338 394.6 640.961 385.235 631.217 376.25C621.473 367.264 610.874 359.545 599.249 353.343C587.625 347.142 575.145 343.978 561.811 343.978C549.674 343.978 541.81 346.51 538.562 351.698C535.314 356.887 537.878 367.011 546.596 382.198C550.357 388.779 555.828 396.625 562.837 405.737C569.846 414.722 578.051 423.454 587.795 431.807C597.369 440.16 608.139 447.247 619.934 453.068C631.73 458.89 644.209 461.8 657.543 461.8C669.339 461.8 676.861 459.522 679.767 454.966C682.673 450.41 680.622 441.805 673.271 429.023V429.276Z" fill="#F3F90A"/>
</g>
<rect width="1408.97" height="300.107" transform="matrix(1 -8.29478e-08 -9.21392e-08 -1 4 1200.43)" fill="#02020B"/>
<mask id="mask4_2905_3272" style="mask-type:alpha" maskUnits="userSpaceOnUse" x="4" y="900" width="1409" height="301">
<rect width="1408.97" height="300.107" transform="matrix(1 -8.29478e-08 -9.21392e-08 -1 4 1200.43)" fill="#02020B"/>
</mask>
<g mask="url(#mask4_2905_3272)">
<path d="M1412.29 1159.21L1412.29 1202.62L1184.07 1202.62L1125.43 1015.44L1066.8 1202.62L760.113 1202.62L726.778 1161.49C754.472 1161.49 765.413 1156.42 759.601 1146.3L713.615 1089.73C709.341 1095.55 700.794 1099.86 687.801 1102.51C674.809 1105.17 659.082 1106.44 640.79 1106.44C615.318 1106.44 590.873 1102.39 567.281 1094.29C543.861 1086.19 522.321 1075.94 502.833 1063.66C483.345 1051.26 466.25 1037.72 451.548 1023.04C436.846 1008.23 425.564 994.182 417.871 980.641C413.255 972.542 409.665 965.202 406.93 958.368L306.924 1202.74L162.984 1202.74L52.5499 951.154C50.3275 947.357 45.8828 944.32 39.2158 942.295C32.5487 940.27 20.7531 939.258 4 939.258L4.51285 895.85L168.625 895.85L168.625 939.258L139.051 939.258C122.298 939.258 113.921 942.548 113.921 949.129C113.921 950.774 114.434 952.673 115.631 954.951L123.494 973.554L254.1 973.554L262.477 951.66C262.819 950.521 263.161 949.635 263.674 948.75C264.015 947.864 264.186 947.104 264.186 946.218C264.186 941.536 258.716 939.258 247.946 939.258L211.192 939.258L211.192 895.85L423.512 895.85C425.735 894.837 427.957 894.078 430.521 893.319C440.607 890.408 452.232 888.889 465.224 888.889C488.986 888.889 512.748 892.306 536.852 899.267C560.956 906.227 581.641 915.972 598.907 928.754L576.171 895.723L729.513 895.723L763.02 937.107C734.3 937.107 722.846 942.042 728.488 951.787L877.385 1135.67L877.385 957.988C877.385 945.333 860.803 939.005 827.81 939.005L827.81 895.597L998.076 895.597L998.076 939.005C964.912 939.005 948.501 945.333 948.501 957.988L948.501 1136.05L1033.8 895.597L1143.21 895.597L1228.69 1136.05L1228.69 957.988C1228.69 945.333 1212.11 939.005 1179.11 939.005L1179.11 895.597L1412.97 895.597L1412.97 939.005C1379.47 939.005 1362.71 945.333 1362.71 957.988L1362.71 1140.23C1362.71 1152.88 1379.47 1159.21 1412.97 1159.21H1412.29ZM140.76 1015.57L192.729 1139.47L238.544 1015.57L140.931 1015.57H140.76ZM673.271 1029.49C669.339 1022.53 663.697 1014.3 656.518 1004.56C649.338 994.815 640.961 985.45 631.217 976.465C621.473 967.48 610.874 959.76 599.249 953.559C587.625 947.357 575.145 944.194 561.811 944.194C549.674 944.194 541.81 946.725 538.562 951.913C535.314 957.102 537.878 967.226 546.596 982.413C550.357 988.994 555.828 996.84 562.837 1005.95C569.846 1014.94 578.051 1023.67 587.795 1032.02C597.369 1040.37 608.139 1047.46 619.934 1053.28C631.73 1059.1 644.209 1062.02 657.543 1062.02C669.339 1062.02 676.861 1059.74 679.767 1055.18C682.673 1050.63 680.622 1042.02 673.271 1029.24V1029.49Z" fill="#F3F90A"/>
</g>
<defs>
<filter id="filter0_d_2905_3272" x="0" y="0" width="1416.97" height="308.107" filterUnits="userSpaceOnUse" color-interpolation-filters="sRGB">
<feFlood flood-opacity="0" result="BackgroundImageFix"/>
<feColorMatrix in="SourceAlpha" type="matrix" values="0 0 0 0 0 0 0 0 0 0 0 0 0 0 0 0 0 0 127 0" result="hardAlpha"/>
<feOffset dy="4"/>
<feGaussianBlur stdDeviation="2"/>
<feComposite in2="hardAlpha" operator="out"/>
<feColorMatrix type="matrix" values="0 0 0 0 0 0 0 0 0 0 0 0 0 0 0 0 0 0 0.25 0"/>
<feBlend mode="normal" in2="BackgroundImageFix" result="effect1_dropShadow_2905_3272"/>
<feBlend mode="normal" in="SourceGraphic" in2="effect1_dropShadow_2905_3272" result="shape"/>
</filter>
</defs>
</svg>