<svg width="1699" height="3020" viewBox="0 0 1699 3020" fill="none" xmlns="http://www.w3.org/2000/svg">
<g filter="url(#filter0_d_2912_1801)">
<path d="M1009.25 3980.04L1009.26 3980.04L1009.27 3980.03C1050.08 3939.22 1075.32 3882.78 1075.32 3820.44L1075.32 3042.01C1075.32 2917.32 974.393 2816.26 849.858 2816.26C787.625 2816.26 731.28 2841.53 690.54 2882.41L690.533 2882.42L690.525 2882.42C649.711 2923.23 624.472 2979.67 624.472 3042.01L624.472 3820.44C624.472 3945.13 725.402 4046.19 849.858 4046.19C912.17 4046.19 968.514 4020.92 1009.25 3980.04Z" stroke="#F3F90A" stroke-width="22.3482"/>
<path d="M1043.41 4093.73L1043.42 4093.73L1043.43 4093.72C1092.99 4044.17 1123.64 3975.63 1123.64 3899.92L1123.64 2962.53C1123.64 2811.11 1001.08 2688.38 849.849 2688.38C774.276 2688.38 705.849 2719.07 656.378 2768.71L656.371 2768.72L656.363 2768.73C606.802 2818.28 576.152 2886.82 576.152 2962.53L576.152 3899.92C576.152 4051.34 698.713 4174.06 849.849 4174.06C925.517 4174.06 993.943 4143.37 1043.41 4093.73Z" stroke="#F3F90A" stroke-width="22.3482"/>
<path d="M1077.95 4208.67L1077.96 4208.66L1077.96 4208.65C1136.37 4150.26 1172.49 4069.49 1172.49 3980.27L1172.49 2882.16C1172.49 2703.73 1028.06 2559.1 849.841 2559.1C760.782 2559.1 680.14 2595.27 621.842 2653.77L621.835 2653.77L621.828 2653.78C563.424 2712.17 527.303 2792.95 527.303 2882.16L527.303 3980.27C527.303 4158.7 671.732 4303.33 849.841 4303.33C939.012 4303.33 1019.65 4267.16 1077.95 4208.67Z" stroke="#F3F90A" stroke-width="22.3482"/>
<path d="M1113.39 4326.63L1113.4 4326.62L1113.41 4326.61C1180.89 4259.15 1222.62 4165.82 1222.62 4062.74L1222.62 2799.68C1222.62 2593.53 1055.75 2426.42 849.834 2426.42C746.933 2426.42 653.756 2468.21 586.399 2535.8L586.392 2535.8L586.384 2535.81C518.906 2603.27 477.169 2696.6 477.169 2799.68L477.169 4062.74C477.169 4268.9 644.042 4436.01 849.834 4436.01C952.862 4436.01 1046.04 4394.21 1113.39 4326.63Z" stroke="#F3F90A" stroke-width="22.3482"/>
<path d="M1148.84 4444.6L1148.84 4444.59L1148.85 4444.58C1225.41 4368.05 1272.76 4262.16 1272.76 4145.22L1272.76 2717.22C1272.76 2483.33 1083.44 2293.75 849.824 2293.75C733.081 2293.75 627.369 2341.17 550.953 2417.84L550.946 2417.85L550.939 2417.85C474.384 2494.39 427.033 2600.27 427.033 2717.22L427.033 4145.22C427.033 4379.1 616.349 4568.69 849.824 4568.69C966.71 4568.69 1072.42 4521.27 1148.84 4444.6Z" stroke="#F3F90A" stroke-width="22.3482"/>
<path d="M1148.84 4444.6L1148.84 4444.59L1148.85 4444.58C1225.41 4368.05 1272.76 4262.16 1272.76 4145.22L1272.76 2717.22C1272.76 2483.33 1083.44 2293.75 849.824 2293.75C733.081 2293.75 627.369 2341.17 550.953 2417.84L550.946 2417.85L550.939 2417.85C474.384 2494.39 427.033 2600.27 427.033 2717.22L427.033 4145.22C427.033 4379.1 616.349 4568.69 849.824 4568.69C966.71 4568.69 1072.42 4521.27 1148.84 4444.6Z" stroke="#F3F90A" stroke-width="22.3482"/>
<path d="M1185.19 4565.59L1185.2 4565.58L1185.21 4565.57C1271.07 4479.73 1324.18 4360.97 1324.18 4229.81L1324.18 2632.63C1324.18 2370.31 1111.85 2157.67 849.817 2157.67C718.878 2157.67 600.308 2210.86 514.601 2296.85L514.594 2296.86L514.586 2296.87C428.724 2382.71 375.614 2501.47 375.614 2632.63L375.614 4229.81C375.614 4492.13 587.949 4704.77 849.817 4704.77C980.916 4704.77 1099.48 4651.58 1185.19 4565.59Z" stroke="#F3F90A" stroke-width="22.3482"/>
<path d="M1185.19 4565.59L1185.2 4565.58L1185.21 4565.57C1271.07 4479.73 1324.18 4360.97 1324.18 4229.81L1324.18 2632.63C1324.18 2370.31 1111.85 2157.67 849.817 2157.67C718.878 2157.67 600.308 2210.86 514.601 2296.85L514.594 2296.86L514.586 2296.87C428.724 2382.71 375.614 2501.47 375.614 2632.63L375.614 4229.81C375.614 4492.13 587.949 4704.77 849.817 4704.77C980.916 4704.77 1099.48 4651.58 1185.19 4565.59Z" stroke="#F3F90A" stroke-width="22.3482"/>
<path d="M1222.45 4689.61L1222.46 4689.6L1222.47 4689.59C1317.87 4594.21 1376.88 4462.25 1376.88 4316.52L1376.88 2545.93C1376.88 2254.47 1140.96 2018.19 849.808 2018.19C704.318 2018.19 572.569 2077.29 477.338 2172.84L477.331 2172.85L477.324 2172.86C381.921 2268.24 322.908 2400.2 322.908 2545.93L322.908 4316.52C322.908 4607.98 558.838 4844.26 849.808 4844.26C995.476 4844.26 1127.22 4785.16 1222.45 4689.61Z" stroke="#F3F90A" stroke-width="22.3482"/>
<path d="M1222.45 4689.61L1222.46 4689.6L1222.47 4689.59C1317.87 4594.21 1376.88 4462.25 1376.88 4316.52L1376.88 2545.93C1376.88 2254.47 1140.96 2018.19 849.808 2018.19C704.318 2018.19 572.569 2077.29 477.338 2172.84L477.331 2172.85L477.324 2172.86C381.921 2268.24 322.908 2400.2 322.908 2545.93L322.908 4316.52C322.908 4607.98 558.838 4844.26 849.808 4844.26C995.476 4844.26 1127.22 4785.16 1222.45 4689.61Z" stroke="#F3F90A" stroke-width="22.3482"/>
<path d="M1222.45 4689.61L1222.46 4689.6L1222.47 4689.59C1317.87 4594.21 1376.88 4462.25 1376.88 4316.52L1376.88 2545.93C1376.88 2254.47 1140.96 2018.19 849.808 2018.19C704.318 2018.19 572.569 2077.29 477.338 2172.84L477.331 2172.85L477.324 2172.86C381.921 2268.24 322.908 2400.2 322.908 2545.93L322.908 4316.52C322.908 4607.98 558.838 4844.26 849.808 4844.26C995.476 4844.26 1127.22 4785.16 1222.45 4689.61Z" stroke="#F3F90A" stroke-width="22.3482"/>
<path d="M1260.62 4816.64L1260.63 4816.63L1260.64 4816.62C1365.81 4711.47 1430.87 4565.99 1430.87 4405.33L1430.87 2457.11C1430.87 2135.79 1170.78 1875.3 849.799 1875.3C689.402 1875.3 544.154 1940.46 439.167 2045.8L439.16 2045.81L439.153 2045.81C333.977 2150.96 268.916 2296.45 268.916 2457.11L268.917 4405.33C268.917 4726.65 529.016 4987.13 849.799 4987.13C1010.39 4987.13 1155.64 4921.98 1260.62 4816.64Z" stroke="#F3F90A" stroke-width="22.3482"/>
<path d="M1297.89 4940.66L1297.89 4940.65L1297.9 4940.64C1412.62 4825.95 1483.58 4667.27 1483.58 4492.03L1483.58 2370.41C1483.58 2019.94 1199.89 1735.82 849.79 1735.82C674.842 1735.82 516.416 1806.89 401.905 1921.79L401.898 1921.79L401.891 1921.8C287.174 2036.49 216.211 2195.17 216.211 2370.41L216.211 4492.03C216.211 4842.51 499.905 5126.62 849.791 5126.62C1024.95 5126.62 1183.38 5055.55 1297.89 4940.66Z" stroke="#F3F90A" stroke-width="22.3482"/>
<path d="M1336.96 5070.71L1336.97 5070.7L1336.98 5070.7C1461.7 4946 1538.86 4773.48 1538.86 4582.96L1538.86 2279.47C1538.86 1898.43 1230.42 1589.53 849.781 1589.53C659.572 1589.53 487.324 1666.8 362.825 1791.72L362.818 1791.72L362.811 1791.73C238.088 1916.42 160.934 2088.95 160.934 2279.47L160.934 4582.96C160.934 4964 469.374 5272.9 849.781 5272.9C1040.22 5272.9 1212.47 5195.63 1336.96 5070.71Z" stroke="#F3F90A" stroke-width="22.3482"/>
<path d="M1376.95 5203.81L1376.96 5203.8L1376.97 5203.79C1511.93 5068.86 1595.42 4882.17 1595.42 4676.01L1595.42 2186.43C1595.42 1774.11 1261.66 1439.85 849.771 1439.85C643.946 1439.85 457.555 1523.46 322.836 1658.64L322.829 1658.64L322.822 1658.65C187.86 1793.58 104.371 1980.27 104.371 2186.43L104.372 4676.01C104.372 5088.34 438.132 5422.59 849.772 5422.59C1055.85 5422.59 1242.24 5338.98 1376.95 5203.81Z" stroke="#F3F90A" stroke-width="22.3482"/>
<path d="M1416.94 5336.89L1416.95 5336.89L1416.96 5336.88C1562.16 5191.71 1651.98 4990.86 1651.98 4769.06L1651.98 2093.39C1651.98 1649.78 1292.9 1290.16 849.762 1290.16C628.321 1290.16 427.787 1380.12 282.848 1525.55L282.841 1525.55L282.833 1525.56C137.633 1670.73 47.8088 1871.58 47.8089 2093.39L47.8091 4769.06C47.8092 5212.66 406.89 5572.28 849.762 5572.28C1071.47 5572.28 1272 5482.32 1416.94 5336.89Z" stroke="#F3F90A" stroke-width="22.3482"/>
<path d="M1456.93 5469.99L1456.94 5469.98L1456.94 5469.98C1612.38 5314.57 1708.54 5099.55 1708.54 4862.11L1708.54 2000.35C1708.54 1525.46 1324.14 1140.48 849.753 1140.48C612.695 1140.48 398.019 1236.79 242.859 1392.47L242.852 1392.47L242.845 1392.48C87.4052 1547.88 -8.75345 1762.9 -8.75342 2000.35L-8.75314 4862.11C-8.75309 5337 375.649 5721.97 849.753 5721.97C1087.1 5721.97 1301.77 5625.67 1456.93 5469.99Z" stroke="#F3F90A" stroke-width="22.3482"/>
<path d="M1496.01 5600.04L1496.02 5600.03L1496.02 5600.03C1661.47 5434.62 1763.82 5205.76 1763.82 4953.03L1763.82 1909.4C1763.82 1403.95 1354.67 994.185 849.744 994.185C597.426 994.185 368.927 1096.69 203.779 1262.39L203.772 1262.4L203.765 1262.41C38.3194 1427.81 -64.03 1656.67 -64.0299 1909.4L-64.0296 4953.03C-64.0296 5458.49 345.118 5868.25 849.744 5868.25C1102.37 5868.25 1330.86 5765.74 1496.01 5600.04Z" stroke="#F3F90A" stroke-width="22.3482"/>
<path d="M1536 5733.14L1536 5733.13L1536.01 5733.12C1711.7 5557.48 1820.38 5314.45 1820.38 5046.08L1820.38 1816.36C1820.38 1279.63 1385.91 844.505 849.734 844.505C581.8 844.505 339.159 953.352 163.791 1129.31L163.784 1129.32L163.776 1129.33C-11.9082 1304.97 -120.592 1548 -120.592 1816.36L-120.592 5046.08C-120.592 5582.82 313.876 6017.94 849.735 6017.94C1117.99 6017.94 1360.63 5909.09 1536 5733.14Z" stroke="#F3F90A" stroke-width="22.3482"/>
<path d="M1575.98 5866.23L1575.99 5866.22L1576 5866.21C1761.92 5680.33 1876.94 5423.14 1876.94 5139.13L1876.94 1723.32C1876.94 1155.3 1417.15 694.816 849.723 694.817C566.173 694.817 309.389 810.008 123.8 996.222L123.793 996.229L123.786 996.237C-62.1373 1182.12 -177.156 1439.31 -177.156 1723.32L-177.156 5139.13C-177.156 5707.15 282.633 6167.63 849.724 6167.63C1133.61 6167.63 1390.4 6052.44 1575.98 5866.23Z" stroke="#F3F90A" stroke-width="22.3482"/>
<path d="M1615.97 5999.31L1615.98 5999.3L1615.99 5999.29C1812.15 5803.18 1933.5 5531.82 1933.5 5232.17L1933.5 1630.26C1933.5 1030.97 1448.4 545.121 849.715 545.121C550.549 545.121 279.622 666.658 83.8128 863.126L83.8057 863.133L83.7987 863.14C-112.364 1059.26 -233.718 1330.61 -233.718 1630.26L-233.717 5232.17C-233.717 5831.47 251.393 6317.31 849.716 6317.31C1149.24 6317.31 1420.17 6195.77 1615.97 5999.31Z" stroke="#F3F90A" stroke-width="22.3482"/>
<path d="M1655.96 6132.39L1655.97 6132.39L1655.98 6132.38C1862.38 5926.03 1990.07 5640.5 1990.07 5325.21L1990.07 1537.22C1990.07 906.637 1479.64 395.433 849.705 395.433C534.923 395.433 249.853 523.314 43.8234 730.037L43.8163 730.045L43.8092 730.051C-162.592 936.404 -290.281 1221.93 -290.281 1537.22L-290.28 5325.21C-290.28 5955.8 220.151 6467 849.706 6467C1164.87 6467 1449.93 6339.12 1655.96 6132.39Z" stroke="#F3F90A" stroke-width="22.3482"/>
<path d="M1695.95 6265.49L1695.96 6265.48L1695.96 6265.47C1912.6 6048.89 2046.63 5749.2 2046.63 5418.27L2046.63 1444.18C2046.63 782.318 1510.88 245.753 849.696 245.753C519.297 245.753 220.085 379.979 3.83485 596.957L3.82777 596.964L3.82069 596.971C-212.819 813.559 -346.843 1113.25 -346.843 1444.18L-346.842 5418.27C-346.842 6080.13 188.91 6616.69 849.697 6616.69C1180.49 6616.69 1479.7 6482.47 1695.95 6265.49Z" stroke="#F3F90A" stroke-width="22.3482"/>
<path d="M1736.85 6401.6L1736.85 6401.59L1736.86 6401.58C1963.97 6174.53 2104.47 5860.35 2104.47 5513.43L2104.47 1349.01C2104.47 655.16 1542.83 92.6587 849.686 92.6588C503.316 92.6589 189.639 233.374 -37.0636 460.84L-37.0707 460.847L-37.0778 460.854C-264.189 687.911 -404.692 1002.09 -404.692 1349.01L-404.691 5513.43C-404.691 6207.28 156.957 6769.78 849.686 6769.78C1196.47 6769.78 1510.15 6629.06 1736.85 6401.6Z" stroke="#F3F90A" stroke-width="22.3482"/>
<path d="M1778.65 6540.74L1778.66 6540.74L1778.67 6540.73C2016.48 6302.97 2163.61 5973.99 2163.61 5610.71L2163.61 1251.74C2163.61 525.19 1575.49 -63.8251 849.675 -63.8251C486.98 -63.825 158.517 83.5231 -78.8708 321.71L-78.8779 321.718L-78.8849 321.724C-316.701 559.483 -463.826 888.466 -463.826 1251.74L-463.825 5610.71C-463.825 6337.27 124.295 6926.28 849.676 6926.28C1212.8 6926.28 1541.27 6778.93 1778.65 6540.74Z" stroke="#F3F90A" stroke-width="22.3482"/>
</g>
<defs>
<filter id="filter0_d_2912_1801" x="-479" y="-75" width="2657.78" height="7020.45" filterUnits="userSpaceOnUse" color-interpolation-filters="sRGB">
<feFlood flood-opacity="0" result="BackgroundImageFix"/>
<feColorMatrix in="SourceAlpha" type="matrix" values="0 0 0 0 0 0 0 0 0 0 0 0 0 0 0 0 0 0 127 0" result="hardAlpha"/>
<feOffset dy="4"/>
<feGaussianBlur stdDeviation="2"/>
<feComposite in2="hardAlpha" operator="out"/>
<feColorMatrix type="matrix" values="0 0 0 0 0 0 0 0 0 0 0 0 0 0 0 0 0 0 0.25 0"/>
<feBlend mode="normal" in2="BackgroundImageFix" result="effect1_dropShadow_2912_1801"/>
<feBlend mode="normal" in="SourceGraphic" in2="effect1_dropShadow_2912_1801" result="shape"/>
</filter>
</defs>
</svg>
