<svg width="98" height="58" viewBox="0 0 98 58" fill="none" xmlns="http://www.w3.org/2000/svg">
<path d="M68.6697 0.171875H28.4787C20.6148 0.171875 13.4928 3.36193 8.34608 8.51795C3.19006 13.6647 0 20.7867 0 28.6598C0 44.3875 12.7509 57.1385 28.4787 57.1385H68.6697C76.5335 57.1385 83.6555 53.9485 88.8023 48.7924C93.9583 43.6457 97.1483 36.5237 97.1483 28.6598C97.1483 12.9228 84.3974 0.171875 68.6697 0.171875ZM68.8644 53.0118C61.455 53.0118 54.8059 49.7012 50.3454 44.471C49.7055 43.7291 49.112 42.9409 48.5742 42.1248C48.027 42.9409 47.4335 43.7291 46.7937 44.471C42.3332 49.7012 35.6934 53.0118 28.2839 53.0118C14.8282 53.0118 3.93193 42.1063 3.93193 28.6598C3.93193 15.2134 14.8282 4.30784 28.2839 4.30784C36.7506 4.30784 44.2157 8.63852 48.5742 15.1948C49.112 14.3788 49.7055 13.5905 50.3454 12.8487C54.8059 7.61844 61.455 4.30784 68.8644 4.30784C82.3109 4.30784 93.2164 15.2134 93.2164 28.6598C93.2164 42.1063 82.3109 53.0118 68.8644 53.0118Z" fill="#02020B"/>
</svg>
