<svg width="448" height="63" viewBox="0 0 448 63" fill="none" xmlns="http://www.w3.org/2000/svg">
<path d="M91.3752 33.9965V39.4228L90.6726 39.9054L90.6155 39.9368C90.5841 39.9625 90.5498 39.9797 90.5098 39.9883C90.5098 39.9883 90.4527 40.0425 90.427 40.0425C90.4156 40.0597 90.3984 40.0739 90.3784 40.0825C90.3584 40.0854 90.3413 40.0854 90.3213 40.0825C90.2928 40.1168 90.2556 40.1453 90.2128 40.1625C90.1785 40.1625 90.1471 40.1853 90.1328 40.2196C90.1071 40.2767 90.0757 40.2196 90.05 40.2767L89.9129 40.3253C89.8786 40.331 89.8501 40.351 89.8329 40.3824C89.7958 40.4166 89.7501 40.4366 89.6987 40.4395L89.6445 40.4909H89.593C89.5502 40.5223 89.5045 40.5509 89.456 40.5709L89.2675 40.6537C88.1308 41.1563 86.9142 41.4448 85.6747 41.5105H85.1606C84.0925 41.5133 83.0301 41.3391 82.0191 40.9964C81.9048 40.9964 81.822 40.9136 81.7163 40.8879L81.3165 40.7251C80.9766 40.5994 80.6511 40.4366 80.3426 40.2424C79.523 39.8026 78.7776 39.24 78.1321 38.5688C77.2154 37.6635 76.4814 36.5868 75.9759 35.3987C75.5846 34.482 75.339 33.5081 75.2505 32.5142C75.2505 32.1887 75.1934 31.8374 75.1934 31.5118V30.9977C75.2648 29.8268 75.5304 28.6787 75.9759 27.5934C76.49 26.4054 77.2239 25.323 78.1407 24.4062C80.0199 22.5413 82.5617 21.4931 85.212 21.4931H85.7261C85.8061 21.4789 85.8889 21.4789 85.9688 21.4931C87.1398 21.5674 88.285 21.853 89.3531 22.3356L89.5159 22.4156V26.1283C89.1047 25.7856 88.6534 25.4972 88.1679 25.2716C87.7652 25.0831 87.3454 24.9288 86.9142 24.8117C86.8885 24.8232 86.8599 24.8232 86.8342 24.8117H86.6457C86.6229 24.8117 86.6029 24.7975 86.5886 24.7803C86.4686 24.7889 86.3487 24.7718 86.2373 24.7318H86.1888C86.1516 24.7175 86.1145 24.7061 86.0745 24.7004H86.026C85.9917 24.7118 85.9517 24.7118 85.9174 24.7004H85.1235C83.8754 24.6861 82.6502 25.0231 81.585 25.6714C81.5421 25.7028 81.4964 25.7314 81.4479 25.7542C81.0109 26.0255 80.6139 26.3511 80.2627 26.7252C80.137 26.8338 80.0199 26.9508 79.9114 27.0765H79.88C79.7486 27.2393 79.6429 27.4021 79.5287 27.5592L79.4801 27.6163L79.3173 27.859C79.2888 27.8905 79.2688 27.9276 79.2602 27.9676C78.869 28.6016 78.5862 29.2956 78.4263 30.0238V30.0724C78.3777 30.358 78.3206 30.6122 78.2949 30.8806V31.1948C78.2806 31.3205 78.2806 31.4461 78.2949 31.5718C78.2806 31.6889 78.2806 31.806 78.2949 31.9231C78.3178 32.4343 78.4006 32.9426 78.5405 33.4339C79.3802 36.3926 82.079 38.4375 85.1549 38.4489H85.3405C85.3662 38.4603 85.3977 38.4603 85.4234 38.4489H86.0431C86.243 38.4261 86.4429 38.3889 86.64 38.3432H86.6886C86.7257 38.3546 86.7657 38.3546 86.8028 38.3432H86.8828C86.8828 38.3432 86.9085 38.3432 86.9227 38.3432C86.9342 38.3432 86.9484 38.3432 86.9599 38.3432C86.997 38.3289 87.0341 38.3289 87.0712 38.3432H87.1227C87.5082 38.2404 87.8795 38.0948 88.2308 37.9091V34.1964H84.458V31.1748H91.3523L91.3752 33.9965Z" fill="#02020B"/>
<path d="M107.873 34.454L105.443 28.3537L103.01 34.454H107.873ZM109.016 37.2642H101.876L100.162 41.5481H96.7207L105.443 20.6055L114.136 41.5567H110.709L109.016 37.2642Z" fill="#02020B"/>
<path d="M126.101 31.9737C127.174 32.0536 128.231 31.6595 128.991 30.8941C130.179 29.2605 130.179 27.0443 128.991 25.4107C128.614 25.0309 128.16 24.7395 127.66 24.5539C127.163 24.3711 126.629 24.2997 126.101 24.3454H123.29V31.9737H126.101ZM134.174 41.5582H130.639L125.586 34.7811H123.302V41.5582H120.16V21.498H126.098C128.748 21.498 130.284 22.5747 131.113 23.4972C133.28 26.2018 133.28 30.0516 131.113 32.7562C130.482 33.4559 129.685 33.9871 128.794 34.2984L134.174 41.5582Z" fill="#02020B"/>
<path d="M150.3 34.454L147.869 28.3537L145.442 34.454H150.3ZM151.442 37.2642H144.302L142.589 41.5481H139.133L147.869 20.6055L156.563 41.5567H153.136L151.442 37.2642Z" fill="#02020B"/>
<path d="M176.982 33.9975V39.4238L176.28 39.9065L176.225 39.9379C176.194 39.9636 176.157 39.9807 176.117 39.9893C176.117 39.9893 176.06 40.0436 176.037 40.0436C176.023 40.0578 176.008 40.0721 175.988 40.0807C175.968 40.0835 175.948 40.0835 175.928 40.0807C175.897 40.115 175.86 40.1435 175.817 40.1607C175.783 40.1607 175.754 40.1864 175.743 40.2178C175.717 40.2749 175.686 40.2178 175.66 40.2749L175.523 40.3234C175.489 40.3292 175.457 40.3492 175.44 40.3806C175.403 40.4148 175.357 40.4348 175.309 40.4377L175.252 40.4891H175.197C175.157 40.5205 175.112 40.5491 175.063 40.5691L174.877 40.6519C173.744 41.1545 172.524 41.4458 171.285 41.5087H170.776C169.708 41.5115 168.646 41.3373 167.635 40.9946C167.529 40.9946 167.446 40.9118 167.349 40.8861L166.941 40.7233C166.601 40.5948 166.275 40.432 165.97 40.2406C165.15 39.8008 164.405 39.2353 163.756 38.567C162.842 37.6617 162.111 36.585 161.609 35.3998C161.215 34.483 160.969 33.5092 160.875 32.5153C160.875 32.1897 160.826 31.8384 160.826 31.5128V30.9988C160.895 29.8278 161.16 28.6797 161.609 27.5973C162.12 26.4093 162.851 25.3269 163.765 24.4101C165.647 22.5423 168.192 21.4942 170.845 21.497H171.35C171.43 21.4828 171.516 21.4828 171.596 21.497C172.764 21.5713 173.906 21.8569 174.975 22.3367L175.137 22.4167V26.1294C174.726 25.7867 174.272 25.5011 173.789 25.2726C173.387 25.0841 172.967 24.9299 172.536 24.8128C172.51 24.8242 172.481 24.8242 172.456 24.8128H172.267C172.267 24.8128 172.247 24.8157 172.236 24.8128C172.224 24.8071 172.216 24.7985 172.21 24.7899C172.09 24.7985 171.97 24.7814 171.859 24.7414H171.804C171.77 24.7271 171.733 24.7157 171.696 24.71H171.647C171.61 24.7214 171.57 24.7214 171.533 24.71H170.782C169.534 24.6957 168.306 25.0327 167.238 25.681C167.195 25.7124 167.152 25.741 167.106 25.7638C166.669 26.0351 166.27 26.3607 165.915 26.7348C165.793 26.8462 165.676 26.9633 165.564 27.0861C165.433 27.2489 165.321 27.4117 165.213 27.5688L165.159 27.6259L165.002 27.8687C164.97 27.8972 164.95 27.9343 164.944 27.9772C164.547 28.6083 164.262 29.3052 164.105 30.0335V30.082C164.053 30.3676 163.999 30.6218 163.973 30.8903V31.2044C163.956 31.3301 163.956 31.4557 163.973 31.5814C163.959 31.6985 163.959 31.8156 163.973 31.9327C164.045 33.6348 164.762 35.2427 165.973 36.4394C167.258 37.7331 169.006 38.4614 170.828 38.4642H171.016C171.042 38.4756 171.073 38.4756 171.099 38.4642H171.719C171.907 38.4642 172.119 38.3843 172.347 38.3586H172.396C172.433 38.37 172.473 38.37 172.51 38.3586H172.584C172.61 38.3471 172.638 38.3471 172.664 38.3586C172.698 38.3443 172.738 38.3443 172.773 38.3586C172.793 38.3643 172.81 38.3643 172.83 38.3586C173.215 38.2557 173.587 38.1101 173.938 37.9245V34.2117H170.177V31.1758H177.074L176.982 33.9975Z" fill="#02020B"/>
<path d="M186.921 29.6886H194.235V32.5246H186.921V38.7362H195.803V41.5693H183.785V21.5234H195.803V24.3308H186.921V29.6886Z" fill="#02020B"/>
<path d="M217.759 21.5234H214.617V41.5579H217.759V21.5234Z" fill="#02020B"/>
<path d="M238.312 24.3308H232.8V41.5579H229.641V24.3308H224.129V21.5234H238.312V24.3308Z" fill="#02020B"/>
<path d="M251.676 34.454L249.257 28.3537L246.829 34.454H251.676ZM252.818 37.2642H245.678L243.965 41.5481H240.523L249.257 20.6055L257.95 41.5567H254.523L252.818 37.2642Z" fill="#02020B"/>
<path d="M275.517 41.5579H264.014V21.5234H267.155V38.7248H275.523L275.517 41.5579Z" fill="#02020B"/>
<path d="M284.466 21.5234H281.324V41.5579H284.466V21.5234Z" fill="#02020B"/>
<path d="M301.85 34.4547L299.411 28.3544L296.98 34.4547H301.85ZM302.992 37.265H295.852L294.139 41.5489H290.697L299.411 20.5977L308.119 41.5575H304.691L302.992 37.265Z" fill="#02020B"/>
<path d="M46.465 45.5952C38.4769 53.569 25.5366 53.5605 17.5628 45.5724C9.58898 37.5843 9.59755 24.644 17.5856 16.6702C25.5737 8.69636 38.514 8.70493 46.4878 16.693C50.3177 20.5286 52.4653 25.7264 52.4625 31.1441C52.4625 36.5676 50.3034 41.7654 46.465 45.5952ZM63.1609 27.2315C62.9752 25.7464 62.6811 24.2756 62.2841 22.8333C58.0202 23.6587 55.6954 18.0353 59.2939 15.6049C58.5456 14.3112 57.7089 13.0688 56.7864 11.8922C53.1622 14.2855 48.8611 10.0101 51.2544 6.36305C50.0635 5.43773 48.8069 4.59808 47.4931 3.85267C45.0627 7.45117 39.4451 5.10644 40.2704 0.856784C38.831 0.46552 37.3659 0.177069 35.8837 0C35.0269 4.25822 28.938 4.25822 28.0641 0C26.579 0.177069 25.1082 0.462664 23.6659 0.856784C24.5027 5.12643 18.8794 7.45117 16.449 3.84696C15.1552 4.59522 13.9129 5.43201 12.7362 6.35448C15.1181 9.98154 10.8427 14.2797 7.19569 11.8865C6.27322 13.0631 5.43357 14.3026 4.68531 15.5992C8.29238 18.041 5.93907 23.6644 1.69514 22.8333C1.30101 24.2756 1.00685 25.7435 0.818359 27.2258C1.71513 27.4142 2.52336 27.9026 3.10312 28.6137C3.68288 29.3277 3.99989 30.2188 3.99989 31.1384C3.99989 32.058 3.68288 32.9491 3.10312 33.6631C2.52336 34.3742 1.71513 34.8626 0.818359 35.0511C1.00685 36.5333 1.30101 37.9984 1.69514 39.4378C3.8628 39.0237 5.95907 40.4459 6.37318 42.6136C6.49313 43.2419 6.46171 43.8902 6.27893 44.5042C6.01333 45.3867 5.45071 46.1493 4.68531 46.6605C5.43072 47.9628 6.27037 49.2108 7.19569 50.3904C10.8256 47.9971 15.1238 52.2724 12.7305 55.9223C13.9072 56.8476 15.1467 57.6844 16.4433 58.4298C18.8765 54.8313 24.4913 57.1761 23.6717 61.4257C25.1111 61.8199 26.579 62.1112 28.0613 62.2968C28.918 58.0414 35.0126 58.0414 35.878 62.2968C37.3602 62.1112 38.8282 61.8199 40.2676 61.4257C39.8677 59.2552 41.3043 57.1704 43.4748 56.7677C45.0227 56.4821 46.5964 57.1332 47.4903 58.4298C48.8011 57.6844 50.0578 56.8476 51.2516 55.9223C48.8554 52.2981 53.1308 47.9971 56.7807 50.3904C57.706 49.2108 58.5428 47.9628 59.2882 46.6605C55.6897 44.2301 58.0344 38.6124 62.2784 39.4378C62.6753 37.9984 62.9695 36.5333 63.1551 35.0511C60.9932 34.597 59.6109 32.475 60.065 30.3159C60.3906 28.7651 61.6044 27.5542 63.1551 27.2258" fill="#02020B"/>
<path d="M34.2152 19.6655C34.3808 19.3913 34.6522 19.1943 34.9663 19.12C36.3771 18.7573 37.808 18.4717 39.2502 18.2632C39.3987 18.2461 39.5387 18.189 39.6586 18.1004C39.9499 17.8919 40.187 17.6178 40.3498 17.2979C40.4554 17.0923 40.3869 16.9609 40.1556 16.9352C34.7378 16.3497 29.2715 16.3497 23.8538 16.9352C23.6225 16.9352 23.5454 17.0923 23.6596 17.2979C23.8195 17.6178 24.0537 17.8919 24.3422 18.1004C24.4621 18.189 24.6021 18.2461 24.7506 18.2632C26.1928 18.4717 27.6237 18.7573 29.0345 19.12C29.3487 19.1885 29.6228 19.3827 29.7942 19.6541C29.9741 19.9197 30.0684 20.2338 30.0626 20.5565V41.6906C30.0712 42.0133 29.977 42.3274 29.7942 42.593C29.7114 42.7301 29.6 42.8472 29.4686 42.9386C29.3372 43.03 29.1916 43.0928 29.0345 43.1271C27.6237 43.4927 26.1928 43.7811 24.7506 43.9839C24.6021 44.0039 24.4621 44.0639 24.3422 44.1524C24.0537 44.3694 23.8224 44.6522 23.6653 44.9749C23.5511 45.1805 23.6282 45.3205 23.8595 45.3433C29.2773 45.9288 34.7435 45.9288 40.1613 45.3433C40.3926 45.3433 40.4469 45.1805 40.3555 44.9749C40.1927 44.6579 39.9556 44.3837 39.6643 44.1781C39.5444 44.0867 39.4044 44.0296 39.2559 44.0096C37.8137 43.8068 36.3829 43.5184 34.972 43.1528C34.8178 43.1185 34.6721 43.0557 34.5408 42.9643C34.4123 42.8729 34.3037 42.7558 34.2209 42.6187C34.0324 42.356 33.9325 42.039 33.9353 41.7163V20.5822C33.9296 20.2538 34.0296 19.9339 34.2152 19.6655Z" fill="#02020B"/>
<path d="M335.204 39.944C334.687 40.2696 334.144 40.5581 333.584 40.8008C332.345 41.3149 331.014 41.5805 329.672 41.5805C324.151 41.5805 319.676 37.1052 319.676 31.5847C319.662 28.9201 320.721 26.3611 322.618 24.4876C324.497 22.6227 327.039 21.5746 329.686 21.5746C331.031 21.5631 332.362 21.8288 333.599 22.3571C333.733 22.4114 333.884 22.4913 334.03 22.5456V26.2383C331.085 23.8251 326.744 24.2592 324.331 27.2036C321.918 30.1481 322.352 34.4892 325.296 36.9024C328.038 39.1501 332.039 38.9473 334.541 36.4398C334.781 36.2027 335.007 35.9486 335.218 35.6858L335.204 39.9469V39.944Z" fill="#02020B"/>
<path d="M342.135 39.9969C341.378 39.4286 340.767 38.6889 340.355 37.8378C339.893 36.8896 339.661 35.8443 339.679 34.7905V21.5703H342.82V34.7905C342.82 35.9786 343.251 36.8953 344.062 37.5151C344.948 38.1548 346.019 38.4861 347.11 38.4604C348.201 38.4775 349.269 38.1462 350.16 37.5151C350.968 36.8953 351.374 35.9786 351.374 34.7905V21.5703H354.515V34.7905C354.518 35.8443 354.29 36.8839 353.841 37.8378C353.41 38.6774 352.802 39.4143 352.059 39.9969C349.089 42.1189 345.102 42.1189 342.132 39.9969H342.135Z" fill="#02020B"/>
<path d="M369.573 37.5709C369.001 39.5129 367.254 41.0494 365.066 41.4835C364.666 41.5578 364.26 41.5949 363.852 41.5892C363.041 41.5949 362.236 41.4492 361.479 41.1579C360.162 40.6153 359.014 39.7271 358.16 38.5876L360.642 36.6455C361.136 37.3452 361.819 37.8879 362.613 38.2106C363.192 38.4505 363.832 38.5048 364.446 38.3705C365.471 38.182 366.308 37.5137 366.551 36.6998C366.819 35.7802 366.2 34.9719 365.634 34.4322C364.743 33.5954 363.287 32.1674 363.178 32.0589L360.722 29.737C360.017 29.0801 359.488 28.2548 359.185 27.338C358.911 26.5183 358.894 25.633 359.131 24.8019C359.391 23.9223 359.908 23.1426 360.616 22.5628C361.302 21.9802 362.13 21.5861 363.015 21.4205C364.006 21.2091 365.034 21.2834 365.985 21.6347C367.051 22.0659 367.99 22.7628 368.71 23.6595L366.254 25.6273C365.229 24.3878 364.178 24.3878 363.609 24.4849C362.91 24.6191 362.316 25.0789 362.153 25.6444C362.044 26.0214 362.073 26.6411 362.91 27.4522L366.254 30.6623C366.739 31.1478 367.333 31.7133 367.765 32.1188C368.573 32.8186 369.178 33.721 369.518 34.7349C369.824 35.6517 369.844 36.6427 369.573 37.5709Z" fill="#02020B"/>
<path d="M386.542 24.3749H381.039V41.5877H377.88V24.3749H372.377V21.5703H386.542V24.3749Z" fill="#02020B"/>
<path d="M394.311 40.808C390.598 39.2458 388.182 35.6102 388.188 31.5804C388.188 30.2381 388.453 28.9073 388.97 27.6678C389.487 26.4826 390.218 25.403 391.129 24.4834C392.04 23.5724 393.12 22.8469 394.311 22.3529C395.542 21.8331 396.864 21.5675 398.198 21.5703C399.54 21.5703 400.868 21.8359 402.107 22.3529C404.512 23.3524 406.423 25.2631 407.422 27.6678C407.939 28.9073 408.205 30.2381 408.205 31.5804C408.205 32.9142 407.939 34.2365 407.422 35.4645C406.928 36.6555 406.203 37.7379 405.292 38.6489C404.372 39.5571 403.293 40.2882 402.107 40.808C400.868 41.3221 399.54 41.5877 398.198 41.5877C396.864 41.5877 395.542 41.3249 394.311 40.808ZM393.34 26.7225C390.672 29.4071 390.684 33.7481 393.368 36.4156C396.053 39.083 400.394 39.0716 403.061 36.387C405.729 33.7024 405.717 29.3614 403.033 26.6939C401.748 25.4144 400.008 24.7005 398.195 24.7005C396.373 24.7005 394.625 25.4287 393.34 26.7225Z" fill="#02020B"/>
<path d="M428.518 41.5884V30.9586L422.261 40.2947L415.977 30.9586V41.5884H412.836V20.6543L422.261 34.6827L431.685 20.6543V41.5884H428.518Z" fill="#02020B"/>
<path d="M447.567 37.5709C446.995 39.5129 445.248 41.0494 443.063 41.4835C442.663 41.5578 442.257 41.5949 441.849 41.5892C441.038 41.5949 440.23 41.4492 439.473 41.1579C438.156 40.6153 437.008 39.7271 436.154 38.5876L438.636 36.6455C439.13 37.3452 439.816 37.8879 440.607 38.2106C441.186 38.4505 441.826 38.5048 442.44 38.3705C443.465 38.182 444.302 37.5137 444.545 36.6998C444.831 35.7802 444.194 34.9719 443.628 34.4322C442.737 33.5954 441.281 32.1674 441.172 32.0589L438.719 29.737C438.011 29.0801 437.482 28.2548 437.18 27.338C436.905 26.5183 436.888 25.633 437.125 24.8019C437.385 23.9223 437.902 23.1426 438.61 22.5628C439.299 21.9802 440.127 21.5861 441.012 21.4205C442 21.2091 443.031 21.2834 443.98 21.6347C445.045 22.0659 445.984 22.7628 446.704 23.6595L444.248 25.6273C443.223 24.3878 442.172 24.3878 441.606 24.4849C440.904 24.6191 440.31 25.0789 440.147 25.6444C440.041 26.0214 440.067 26.6411 440.904 27.4522L444.248 30.6623C444.734 31.1478 445.328 31.7133 445.759 32.1188C446.567 32.8186 447.173 33.721 447.512 34.7349C447.821 35.6517 447.838 36.6427 447.567 37.5709Z" fill="#02020B"/>
</svg>
