<svg width="238" height="76" viewBox="0 0 238 76" fill="none" xmlns="http://www.w3.org/2000/svg">
<path d="M56.0427 39.5265V42.0991L55.7096 42.3279L55.6825 42.3428C55.6677 42.355 55.6514 42.3631 55.6324 42.3672C55.6324 42.3672 55.6054 42.3929 55.5932 42.3929C55.5878 42.401 55.5796 42.4078 55.5702 42.4118C55.5607 42.4132 55.5526 42.4132 55.5431 42.4118C55.5295 42.4281 55.5119 42.4416 55.4916 42.4497C55.4754 42.4497 55.4605 42.4606 55.4537 42.4768C55.4415 42.5039 55.4266 42.4768 55.4145 42.5039L55.3495 42.5269C55.3332 42.5296 55.3197 42.5391 55.3116 42.554C55.294 42.5702 55.2723 42.5797 55.2479 42.5811L55.2222 42.6055H55.1978C55.1775 42.6203 55.1558 42.6339 55.1328 42.6434L55.0435 42.6826C54.5046 42.9209 53.9278 43.0577 53.3402 43.0888H53.0965C52.5901 43.0902 52.0864 43.0076 51.6071 42.8451C51.5529 42.8451 51.5137 42.8058 51.4636 42.7937L51.274 42.7165C51.1129 42.6569 50.9585 42.5797 50.8123 42.4877C50.4237 42.2791 50.0703 42.0124 49.7643 41.6942C49.3297 41.265 48.9817 40.7546 48.7421 40.1913C48.5566 39.7567 48.4401 39.295 48.3982 38.8238C48.3982 38.6695 48.3711 38.5029 48.3711 38.3486V38.1048C48.4049 37.5497 48.5309 37.0054 48.7421 36.4909C48.9858 35.9277 49.3338 35.4145 49.7684 34.9799C50.6593 34.0957 51.8643 33.5988 53.1208 33.5988H53.3645C53.4025 33.5921 53.4417 33.5921 53.4796 33.5988C54.0348 33.634 54.5777 33.7694 55.0841 33.9982L55.1613 34.0362V35.7963C54.9663 35.6338 54.7524 35.4971 54.5222 35.3901C54.3313 35.3008 54.1322 35.2277 53.9278 35.1721C53.9156 35.1776 53.9021 35.1776 53.8899 35.1721H53.8005C53.7897 35.1721 53.7802 35.1654 53.7734 35.1572C53.7166 35.1613 53.6597 35.1532 53.6069 35.1342H53.5839C53.5663 35.1275 53.5487 35.122 53.5297 35.1193H53.5067C53.4905 35.1248 53.4715 35.1248 53.4553 35.1193H53.0789C52.4872 35.1126 51.9063 35.2723 51.4013 35.5797C51.381 35.5946 51.3593 35.6081 51.3363 35.619C51.1291 35.7476 50.9409 35.9019 50.7744 36.0793C50.7148 36.1308 50.6593 36.1863 50.6079 36.2458H50.593C50.5307 36.323 50.4806 36.4002 50.4264 36.4747L50.4034 36.5017L50.3262 36.6168C50.3127 36.6317 50.3032 36.6493 50.2991 36.6683C50.1137 36.9689 49.9796 37.2979 49.9038 37.6431V37.6662C49.8808 37.8016 49.8537 37.9221 49.8415 38.0493V38.1983C49.8347 38.2578 49.8347 38.3174 49.8415 38.377C49.8347 38.4325 49.8347 38.488 49.8415 38.5435C49.8523 38.7859 49.8916 39.0269 49.9579 39.2598C50.356 40.6625 51.6355 41.6319 53.0937 41.6374H53.1818C53.1939 41.6428 53.2088 41.6428 53.221 41.6374H53.5148C53.6096 41.6265 53.7044 41.6089 53.7978 41.5873H53.8208C53.8384 41.5927 53.8574 41.5927 53.875 41.5873H53.9129C53.9129 41.5873 53.9251 41.5873 53.9319 41.5873C53.9373 41.5873 53.944 41.5873 53.9495 41.5873C53.9671 41.5805 53.9847 41.5805 54.0023 41.5873H54.0266C54.2094 41.5385 54.3854 41.4695 54.552 41.3815V39.6213H52.7634V38.1888H56.0319L56.0427 39.5265Z" fill="#02020B"/>
<path d="M63.8654 39.7439L62.7132 36.8518L61.5596 39.7439H63.8654ZM64.407 41.0762H61.022L60.2097 43.1071H58.5781L62.7132 33.1785L66.8346 43.1112H65.2099L64.407 41.0762Z" fill="#02020B"/>
<path d="M72.5067 38.5674C73.0158 38.6054 73.5168 38.4185 73.8769 38.0556C74.4402 37.2812 74.4402 36.2305 73.8769 35.456C73.6982 35.2759 73.4829 35.1378 73.246 35.0498C73.0104 34.9632 72.7572 34.9293 72.5067 34.951H71.1744V38.5674H72.5067ZM76.3344 43.1114H74.6582L72.263 39.8984H71.1798V43.1114H69.6904V33.6011H72.5053C73.7618 33.6011 74.4903 34.1115 74.8829 34.5489C75.9106 35.8311 75.9106 37.6562 74.8829 38.9384C74.5837 39.2702 74.2059 39.522 73.7835 39.6696L76.3344 43.1114Z" fill="#02020B"/>
<path d="M83.9786 39.7439L82.8264 36.8518L81.6755 39.7439H83.9786ZM84.5202 41.0762H81.1353L80.3229 43.1071H78.6846L82.8264 33.1785L86.9479 43.1112H85.3231L84.5202 41.0762Z" fill="#02020B"/>
<path d="M96.6282 39.5278V42.1004L96.2951 42.3292L96.2694 42.3441C96.2545 42.3563 96.2369 42.3644 96.2179 42.3685C96.2179 42.3685 96.1908 42.3942 96.18 42.3942C96.1732 42.401 96.1665 42.4077 96.157 42.4118C96.1475 42.4132 96.138 42.4132 96.1286 42.4118C96.1137 42.4281 96.0961 42.4416 96.0757 42.4497C96.0595 42.4497 96.046 42.4619 96.0405 42.4768C96.0284 42.5039 96.0135 42.4768 96.0013 42.5039L95.9363 42.5269C95.92 42.5296 95.9051 42.5391 95.897 42.554C95.8794 42.5702 95.8578 42.5797 95.8347 42.5811L95.8077 42.6054H95.7819C95.763 42.6203 95.7413 42.6339 95.7183 42.6433L95.6303 42.6826C95.0928 42.9209 94.5146 43.059 93.927 43.0888H93.686C93.1796 43.0901 92.6759 43.0076 92.1966 42.8451C92.1465 42.8451 92.1073 42.8058 92.0612 42.7936L91.8676 42.7165C91.7065 42.6555 91.5521 42.5783 91.4073 42.4876C91.0187 42.2791 90.6653 42.011 90.3579 41.6942C89.9247 41.265 89.578 40.7545 89.3397 40.1926C89.1529 39.758 89.0364 39.2963 88.9918 38.8251C88.9918 38.6708 88.9688 38.5042 88.9688 38.3499V38.1062C89.0012 37.551 89.1272 37.0068 89.3397 36.4936C89.5821 35.9303 89.9287 35.4172 90.362 34.9826C91.2543 34.0971 92.4606 33.6002 93.7185 33.6015H93.9581C93.996 33.5947 94.0367 33.5947 94.0746 33.6015C94.6283 33.6367 95.1699 33.7721 95.6763 33.9996L95.7535 34.0375V35.7977C95.5585 35.6352 95.3433 35.4998 95.1144 35.3915C94.9235 35.3021 94.7245 35.229 94.52 35.1735C94.5078 35.1789 94.4943 35.1789 94.4821 35.1735H94.3928C94.3928 35.1735 94.3833 35.1748 94.3779 35.1735C94.3725 35.1708 94.3684 35.1667 94.3657 35.1626C94.3088 35.1667 94.2519 35.1586 94.1991 35.1396H94.1734C94.1572 35.1329 94.1396 35.1274 94.122 35.1247H94.099C94.0814 35.1301 94.0624 35.1301 94.0448 35.1247H93.6887C93.097 35.118 92.5148 35.2777 92.0084 35.5851C91.9881 35.6 91.9678 35.6135 91.9461 35.6243C91.739 35.753 91.5494 35.9073 91.3815 36.0847C91.3233 36.1375 91.2678 36.193 91.215 36.2512C91.1527 36.3284 91.0999 36.4056 91.0484 36.4801L91.0227 36.5071L90.9483 36.6222C90.9334 36.6358 90.9239 36.6534 90.9212 36.6737C90.733 36.9729 90.5976 37.3033 90.5231 37.6485V37.6716C90.4987 37.807 90.473 37.9275 90.4608 38.0547V38.2037C90.4527 38.2632 90.4527 38.3228 90.4608 38.3824C90.4541 38.4379 90.4541 38.4934 90.4608 38.5489C90.4947 39.3559 90.8345 40.1182 91.4086 40.6855C92.0179 41.2988 92.8465 41.6441 93.7104 41.6455H93.7997C93.8119 41.6509 93.8268 41.6509 93.839 41.6455H94.1328C94.2222 41.6455 94.3224 41.6075 94.4307 41.5954H94.4537C94.4713 41.6008 94.4902 41.6008 94.5078 41.5954H94.5431C94.5552 41.5899 94.5688 41.5899 94.581 41.5954C94.5972 41.5886 94.6162 41.5886 94.6324 41.5954C94.6419 41.5981 94.65 41.5981 94.6595 41.5954C94.8423 41.5466 95.0183 41.4776 95.1848 41.3896V39.6294H93.4017V38.1901H96.6715L96.6282 39.5278Z" fill="#02020B"/>
<path d="M101.341 37.4858H104.809V38.8302H101.341V41.7751H105.552V43.1183H99.8545V33.6147H105.552V34.9457H101.341V37.4858Z" fill="#02020B"/>
<path d="M115.96 33.6147H114.471V43.1129H115.96V33.6147Z" fill="#02020B"/>
<path d="M125.703 34.9457H123.09V43.1129H121.593V34.9457H118.979V33.6147H125.703V34.9457Z" fill="#02020B"/>
<path d="M132.04 39.7439L130.893 36.8518L129.743 39.7439H132.04ZM132.582 41.0762H129.197L128.384 43.1071H126.753L130.893 33.1785L135.015 43.1112H133.39L132.582 41.0762Z" fill="#02020B"/>
<path d="M143.343 43.1129H137.89V33.6147H139.379V41.7697H143.346L143.343 43.1129Z" fill="#02020B"/>
<path d="M147.585 33.6147H146.096V43.1129H147.585V33.6147Z" fill="#02020B"/>
<path d="M155.827 39.7433L154.671 36.8512L153.519 39.7433H155.827ZM156.369 41.0756H152.984L152.172 43.1066H150.54L154.671 33.1738L158.799 43.1106H157.175L156.369 41.0756Z" fill="#02020B"/>
<path d="M34.7519 45.0256C30.9648 48.8059 24.83 48.8018 21.0497 45.0148C17.2694 41.2277 17.2734 35.0928 21.0605 31.3126C24.8476 27.5323 30.9824 27.5363 34.7627 31.3234C36.5784 33.1418 37.5966 35.606 37.5952 38.1745C37.5952 40.7457 36.5716 43.2099 34.7519 45.0256ZM42.6672 36.3195C42.5792 35.6155 42.4397 34.9182 42.2515 34.2344C40.23 34.6257 39.1279 31.9598 40.8339 30.8075C40.4792 30.1942 40.0825 29.6052 39.6451 29.0474C37.9269 30.182 35.8879 28.1551 37.0225 26.4261C36.4579 25.9874 35.8621 25.5893 35.2393 25.2359C34.0871 26.9419 31.4238 25.8303 31.8151 23.8156C31.1327 23.6301 30.4381 23.4934 29.7354 23.4094C29.3292 25.4282 26.4425 25.4282 26.0282 23.4094C25.3242 23.4934 24.6269 23.6288 23.9431 23.8156C24.3398 25.8398 21.6739 26.9419 20.5216 25.2332C19.9083 25.588 19.3193 25.9847 18.7615 26.422C19.8907 28.1416 17.8638 30.1793 16.1347 29.0447C15.6974 29.6025 15.2993 30.1901 14.9446 30.8048C16.6547 31.9625 15.539 34.6284 13.527 34.2344C13.3401 34.9182 13.2007 35.6141 13.1113 36.3168C13.5365 36.4062 13.9196 36.6377 14.1945 36.9749C14.4694 37.3134 14.6197 37.7358 14.6197 38.1718C14.6197 38.6078 14.4694 39.0302 14.1945 39.3687C13.9196 39.7058 13.5365 39.9374 13.1113 40.0267C13.2007 40.7294 13.3401 41.424 13.527 42.1064C14.5547 41.9101 15.5485 42.5844 15.7448 43.612C15.8017 43.9099 15.7868 44.2173 15.7001 44.5084C15.5742 44.9267 15.3075 45.2883 14.9446 45.5306C15.298 46.148 15.6961 46.7397 16.1347 47.2989C17.8556 46.1643 19.8934 48.1912 18.7587 49.9216C19.3166 50.3602 19.9042 50.757 20.5189 51.1103C21.6725 49.4043 24.3344 50.5159 23.9458 52.5307C24.6282 52.7175 25.3242 52.8556 26.0269 52.9436C26.4331 50.9262 29.3224 50.9262 29.7327 52.9436C30.4354 52.8556 31.1313 52.7175 31.8137 52.5307C31.6242 51.5016 32.3052 50.5132 33.3343 50.3223C34.0681 50.1869 34.8142 50.4956 35.2379 51.1103C35.8594 50.757 36.4552 50.3602 37.0211 49.9216C35.8851 48.2034 37.912 46.1643 39.6424 47.2989C40.0811 46.7397 40.4778 46.148 40.8312 45.5306C39.1252 44.3784 40.2368 41.7151 42.2488 42.1064C42.437 41.424 42.5765 40.7294 42.6645 40.0267C41.6395 39.8114 40.9842 38.8054 41.1995 37.7818C41.3538 37.0466 41.9293 36.4725 42.6645 36.3168" fill="#02020B"/>
<path d="M28.9441 32.7316C29.0226 32.6016 29.1512 32.5082 29.3002 32.473C29.969 32.301 30.6474 32.1656 31.3311 32.0668C31.4015 32.0587 31.4679 32.0316 31.5247 31.9896C31.6628 31.8908 31.7752 31.7608 31.8524 31.6091C31.9025 31.5116 31.87 31.4494 31.7603 31.4372C29.1918 31.1596 26.6003 31.1596 24.0318 31.4372C23.9222 31.4372 23.8856 31.5116 23.9398 31.6091C24.0156 31.7608 24.1266 31.8908 24.2634 31.9896C24.3202 32.0316 24.3866 32.0587 24.457 32.0668C25.1408 32.1656 25.8191 32.301 26.488 32.473C26.6369 32.5055 26.7669 32.5975 26.8481 32.7262C26.9334 32.8521 26.9781 33.001 26.9754 33.154V43.1734C26.9794 43.3264 26.9348 43.4753 26.8481 43.6013C26.8088 43.6663 26.756 43.7218 26.6938 43.7651C26.6315 43.8084 26.5624 43.8382 26.488 43.8545C25.8191 44.0278 25.1408 44.1645 24.457 44.2606C24.3866 44.2701 24.3202 44.2986 24.2634 44.3405C24.1266 44.4434 24.017 44.5775 23.9425 44.7305C23.8883 44.828 23.9249 44.8943 24.0346 44.9051C26.603 45.1827 29.1945 45.1827 31.763 44.9051C31.8727 44.9051 31.8984 44.828 31.8551 44.7305C31.7779 44.5802 31.6655 44.4502 31.5274 44.3527C31.4706 44.3094 31.4042 44.2823 31.3338 44.2728C30.6501 44.1767 29.9717 44.04 29.3029 43.8666C29.2297 43.8504 29.1607 43.8206 29.0984 43.7773C29.0375 43.734 28.986 43.6784 28.9468 43.6134C28.8574 43.4889 28.81 43.3386 28.8114 43.1856V33.1662C28.8087 33.0105 28.8561 32.8588 28.9441 32.7316Z" fill="#02020B"/>
<path d="M171.64 42.3478C171.395 42.5022 171.138 42.6389 170.872 42.754C170.285 42.9977 169.654 43.1237 169.017 43.1237C166.4 43.1237 164.278 41.002 164.278 38.3848C164.272 37.1215 164.774 35.9083 165.673 35.0201C166.564 34.136 167.769 33.6391 169.024 33.6391C169.662 33.6337 170.293 33.7596 170.879 34.0101C170.943 34.0358 171.014 34.0737 171.083 34.0994V35.8501C169.688 34.706 167.629 34.9118 166.485 36.3078C165.341 37.7037 165.547 39.7617 166.943 40.9059C168.243 41.9714 170.14 41.8753 171.326 40.6865C171.44 40.5741 171.547 40.4536 171.647 40.3291L171.64 42.3492V42.3478Z" fill="#02020B"/>
<path d="M174.926 42.3733C174.567 42.1038 174.277 41.7532 174.082 41.3497C173.863 40.9002 173.753 40.4046 173.761 39.905V33.6375H175.251V39.905C175.251 40.4682 175.455 40.9029 175.84 41.1967C176.259 41.5 176.767 41.657 177.284 41.6448C177.801 41.653 178.308 41.4959 178.73 41.1967C179.113 40.9029 179.306 40.4682 179.306 39.905V33.6375H180.795V39.905C180.796 40.4046 180.688 40.8975 180.476 41.3497C180.271 41.7477 179.983 42.0971 179.631 42.3733C178.222 43.3793 176.332 43.3793 174.924 42.3733H174.926Z" fill="#02020B"/>
<path d="M187.934 41.2213C187.663 42.142 186.834 42.8705 185.797 43.0763C185.608 43.1115 185.416 43.1291 185.222 43.1264C184.837 43.1291 184.456 43.06 184.097 42.9219C183.473 42.6647 182.928 42.2436 182.523 41.7033L183.7 40.7826C183.934 41.1144 184.258 41.3716 184.634 41.5246C184.909 41.6383 185.212 41.6641 185.504 41.6004C185.99 41.5111 186.386 41.1942 186.501 40.8084C186.629 40.3724 186.335 39.9892 186.067 39.7333C185.644 39.3366 184.954 38.6596 184.902 38.6082L183.738 37.5074C183.404 37.196 183.153 36.8047 183.01 36.37C182.88 35.9814 182.871 35.5617 182.984 35.1677C183.107 34.7507 183.352 34.381 183.688 34.1062C184.013 33.83 184.405 33.6431 184.825 33.5646C185.295 33.4644 185.782 33.4996 186.233 33.6662C186.738 33.8706 187.184 34.201 187.525 34.6261L186.361 35.559C185.875 34.9714 185.376 34.9714 185.107 35.0174C184.775 35.0811 184.493 35.299 184.416 35.5671C184.365 35.7459 184.378 36.0397 184.775 36.4242L186.361 37.9461C186.591 38.1762 186.872 38.4443 187.077 38.6366C187.46 38.9683 187.747 39.3962 187.908 39.8768C188.053 40.3114 188.063 40.7813 187.934 41.2213Z" fill="#02020B"/>
<path d="M195.979 34.9671H193.37V43.1274H191.873V34.9671H189.264V33.6375H195.979V34.9671Z" fill="#02020B"/>
<path d="M199.661 42.7578C197.901 42.0172 196.755 40.2936 196.758 38.3831C196.758 37.7468 196.884 37.1158 197.129 36.5282C197.374 35.9663 197.72 35.4545 198.152 35.0185C198.584 34.5866 199.096 34.2427 199.661 34.0085C200.244 33.762 200.871 33.6361 201.503 33.6375C202.14 33.6375 202.769 33.7634 203.357 34.0085C204.497 34.4823 205.403 35.3881 205.877 36.5282C206.122 37.1158 206.248 37.7468 206.248 38.3831C206.248 39.0154 206.122 39.6423 205.877 40.2245C205.643 40.7891 205.299 41.3023 204.867 41.7342C204.431 42.1648 203.919 42.5114 203.357 42.7578C202.769 43.0015 202.14 43.1275 201.503 43.1275C200.871 43.1275 200.244 43.0029 199.661 42.7578ZM199.2 36.08C197.936 37.3528 197.941 39.4108 199.214 40.6754C200.487 41.94 202.545 41.9346 203.809 40.6619C205.074 39.3891 205.068 37.3311 203.796 36.0665C203.186 35.4599 202.362 35.1214 201.502 35.1214C200.638 35.1214 199.81 35.4667 199.2 36.08Z" fill="#02020B"/>
<path d="M215.879 43.1273V38.0878L212.912 42.5139L209.934 38.0878V43.1273H208.444V33.2026L212.912 39.8533L217.381 33.2026V43.1273H215.879Z" fill="#02020B"/>
<path d="M224.909 41.2213C224.639 42.142 223.81 42.8705 222.774 43.0763C222.585 43.1115 222.392 43.1291 222.199 43.1264C221.814 43.1291 221.431 43.06 221.072 42.9219C220.448 42.6647 219.904 42.2436 219.499 41.7033L220.676 40.7826C220.91 41.1144 221.235 41.3716 221.61 41.5246C221.885 41.6383 222.188 41.6641 222.479 41.6004C222.965 41.5111 223.362 41.1942 223.477 40.8084C223.612 40.3724 223.31 39.9892 223.042 39.7333C222.62 39.3366 221.929 38.6596 221.878 38.6082L220.715 37.5074C220.379 37.196 220.129 36.8047 219.985 36.37C219.855 35.9814 219.847 35.5617 219.959 35.1677C220.083 34.7507 220.328 34.381 220.663 34.1062C220.99 33.83 221.382 33.6431 221.802 33.5646C222.271 33.4644 222.759 33.4996 223.209 33.6662C223.714 33.8706 224.159 34.201 224.501 34.6261L223.336 35.559C222.85 34.9714 222.352 34.9714 222.084 35.0174C221.751 35.0811 221.469 35.299 221.392 35.5671C221.342 35.7459 221.354 36.0397 221.751 36.4242L223.336 37.9461C223.566 38.1762 223.848 38.4443 224.052 38.6366C224.436 38.9683 224.723 39.3962 224.884 39.8768C225.03 40.3114 225.038 40.7813 224.909 41.2213Z" fill="#02020B"/>
</svg>
