<svg width="18" height="18" viewBox="0 0 18 18" fill="none" xmlns="http://www.w3.org/2000/svg">
<path d="M9 4.4875C11.3625 4.4875 13.3125 6.4375 13.3125 8.8C13.3125 11.2 11.3625 13.1125 9 13.1125C6.6 13.1125 4.6875 11.2 4.6875 8.8C4.6875 6.4375 6.6 4.4875 9 4.4875ZM9 11.6125C10.5375 11.6125 11.775 10.375 11.775 8.8C11.775 7.2625 10.5375 6.025 9 6.025C7.425 6.025 6.1875 7.2625 6.1875 8.8C6.1875 10.375 7.4625 11.6125 9 11.6125ZM14.475 4.3375C14.475 3.775 14.025 3.325 13.4625 3.325C12.9 3.325 12.45 3.775 12.45 4.3375C12.45 4.9 12.9 5.35 13.4625 5.35C14.025 5.35 14.475 4.9 14.475 4.3375ZM17.325 5.35C17.4 6.7375 17.4 10.9 17.325 12.2875C17.25 13.6375 16.95 14.8 15.975 15.8125C15 16.7875 13.8 17.0875 12.45 17.1625C11.0625 17.2375 6.9 17.2375 5.5125 17.1625C4.1625 17.0875 3 16.7875 1.9875 15.8125C1.0125 14.8 0.712499 13.6375 0.637499 12.2875C0.562499 10.9 0.562499 6.7375 0.637499 5.35C0.712499 4 1.0125 2.8 1.9875 1.825C3 0.849999 4.1625 0.549999 5.5125 0.474999C6.9 0.399999 11.0625 0.399999 12.45 0.474999C13.8 0.549999 15 0.849999 15.975 1.825C16.95 2.8 17.25 4 17.325 5.35ZM15.525 13.75C15.975 12.6625 15.8625 10.0375 15.8625 8.8C15.8625 7.6 15.975 4.975 15.525 3.85C15.225 3.1375 14.6625 2.5375 13.95 2.275C12.825 1.825 10.2 1.9375 9 1.9375C7.7625 1.9375 5.1375 1.825 4.05 2.275C3.3 2.575 2.7375 3.1375 2.4375 3.85C1.9875 4.975 2.1 7.6 2.1 8.8C2.1 10.0375 1.9875 12.6625 2.4375 13.75C2.7375 14.5 3.3 15.0625 4.05 15.3625C5.1375 15.8125 7.7625 15.7 9 15.7C10.2 15.7 12.825 15.8125 13.95 15.3625C14.6625 15.0625 15.2625 14.5 15.525 13.75Z" fill="black"/>
</svg>
