<svg width="18" height="18" viewBox="0 0 18 18" fill="none" xmlns="http://www.w3.org/2000/svg">
<path d="M16.2 0.399999C16.8375 0.399999 17.4 0.962499 17.4 1.6375V16C17.4 16.675 16.8375 17.2 16.2 17.2H1.7625C1.125 17.2 0.599999 16.675 0.599999 16V1.6375C0.599999 0.962499 1.125 0.399999 1.7625 0.399999H16.2ZM5.6625 14.8V6.8125H3.1875V14.8H5.6625ZM4.425 5.6875C5.2125 5.6875 5.85 5.05 5.85 4.2625C5.85 3.475 5.2125 2.8 4.425 2.8C3.6 2.8 2.9625 3.475 2.9625 4.2625C2.9625 5.05 3.6 5.6875 4.425 5.6875ZM15 14.8V10.4125C15 8.275 14.5125 6.5875 12 6.5875C10.8 6.5875 9.975 7.2625 9.6375 7.9H9.6V6.8125H7.2375V14.8H9.7125V10.8625C9.7125 9.8125 9.9 8.8 11.2125 8.8C12.4875 8.8 12.4875 10 12.4875 10.9V14.8H15Z" fill="black"/>
</svg>
