<svg width="1839" height="184" viewBox="0 0 1839 184" fill="none" xmlns="http://www.w3.org/2000/svg">
<path d="M281.03 31.1346L281.023 31.127C265.57 15.6464 244.201 6.07715 220.595 6.07715H91.4852C44.2763 6.07715 6.00009 44.3508 6.00009 91.592C6.00009 115.198 15.5694 136.567 31.0499 152.02L31.0576 152.027C46.5103 167.508 67.8787 177.077 91.4852 177.077H220.595C267.805 177.077 306.08 138.802 306.08 91.592C306.08 67.9548 296.51 46.5866 281.03 31.1346Z" fill="#02020B" stroke="#F3F90A" stroke-width="12"/>
<path d="M320.673 31.1346L320.665 31.127C305.212 15.6464 283.844 6.07715 260.238 6.07715H131.128C83.9189 6.07715 45.6427 44.3508 45.6427 91.592C45.6427 115.198 55.2119 136.567 70.6925 152.02L70.7001 152.027C86.1528 167.508 107.521 177.077 131.128 177.077H260.238C307.448 177.077 345.723 138.802 345.723 91.592C345.723 67.9548 336.153 46.5866 320.673 31.1346Z" fill="#02020B" stroke="#F3F90A" stroke-width="12"/>
<path d="M360.315 31.1346L360.308 31.127C344.855 15.6464 323.487 6.07715 299.88 6.07715H170.77C123.561 6.07715 85.2852 44.3508 85.2852 91.592C85.2852 115.198 94.8545 136.567 110.335 152.02L110.343 152.027C125.795 167.508 147.164 177.077 170.77 177.077H299.88C347.09 177.077 385.365 138.802 385.365 91.592C385.365 67.9548 375.795 46.5866 360.315 31.1346Z" fill="#02020B" stroke="#F3F90A" stroke-width="12"/>
<path d="M399.958 31.1346L399.95 31.127C384.498 15.6464 363.129 6.07715 339.523 6.07715H210.413C163.204 6.07715 124.928 44.3508 124.928 91.592C124.928 115.198 134.497 136.567 149.978 152.02L149.985 152.027C165.438 167.508 186.806 177.077 210.413 177.077H339.523C386.733 177.077 425.008 138.802 425.008 91.592C425.008 67.9548 415.438 46.5866 399.958 31.1346Z" fill="#02020B" stroke="#F3F90A" stroke-width="12"/>
<path d="M437.07 31.1346L437.063 31.127C421.61 15.6464 400.241 6.07715 376.635 6.07715H247.525C200.316 6.07715 162.04 44.3508 162.04 91.592C162.04 115.198 171.609 136.567 187.09 152.02L187.098 152.027C202.55 167.508 223.919 177.077 247.525 177.077H376.635C423.845 177.077 462.12 138.802 462.12 91.592C462.12 67.9548 452.55 46.5866 437.07 31.1346Z" fill="#02020B" stroke="#F3F90A" stroke-width="12"/>
<path d="M476.713 31.1346L476.705 31.127C461.253 15.6464 439.884 6.07715 416.278 6.07715H287.168C239.959 6.07715 201.683 44.3508 201.683 91.592C201.683 115.198 211.252 136.567 226.733 152.02L226.74 152.027C242.193 167.508 263.561 177.077 287.168 177.077H416.278C463.488 177.077 501.763 138.802 501.763 91.592C501.763 67.9548 492.193 46.5866 476.713 31.1346Z" fill="#02020B" stroke="#F3F90A" stroke-width="12"/>
<path d="M516.355 31.1346L516.348 31.127C500.895 15.6464 479.527 6.07715 455.92 6.07715H326.81C279.602 6.07715 241.325 44.3508 241.325 91.592C241.325 115.198 250.895 136.567 266.375 152.02L266.383 152.027C281.835 167.508 303.204 177.077 326.81 177.077H455.92C503.13 177.077 541.405 138.802 541.405 91.592C541.405 67.9548 531.835 46.5866 516.355 31.1346Z" fill="#02020B" stroke="#F3F90A" stroke-width="12"/>
<path d="M555.998 31.1346L555.99 31.127C540.538 15.6464 519.169 6.07715 495.563 6.07715H366.453C319.244 6.07715 280.968 44.3508 280.968 91.592C280.968 115.198 290.537 136.567 306.018 152.02L306.025 152.027C321.478 167.508 342.846 177.077 366.453 177.077H495.563C542.773 177.077 581.048 138.802 581.048 91.592C581.048 67.9548 571.478 46.5866 555.998 31.1346Z" fill="#02020B" stroke="#F3F90A" stroke-width="12"/>
<path d="M556.837 31.1346L556.829 31.127C541.377 15.6464 520.008 6.07715 496.402 6.07715H367.292C320.083 6.07715 281.807 44.3508 281.807 91.592C281.807 115.198 291.376 136.567 306.857 152.02L306.864 152.027C322.317 167.508 343.685 177.077 367.292 177.077H496.402C543.612 177.077 581.887 138.802 581.887 91.592C581.887 67.9548 572.317 46.5866 556.837 31.1346Z" fill="#02020B" stroke="#F3F90A" stroke-width="12"/>
<path d="M596.479 31.1346L596.472 31.127C581.019 15.6464 559.651 6.07715 536.044 6.07715H406.934C359.726 6.07715 321.449 44.3508 321.449 91.592C321.449 115.198 331.019 136.567 346.499 152.02L346.507 152.027C361.959 167.508 383.328 177.077 406.934 177.077H536.044C583.254 177.077 621.529 138.802 621.529 91.592C621.529 67.9548 611.959 46.5866 596.479 31.1346Z" fill="#02020B" stroke="#F3F90A" stroke-width="12"/>
<path d="M636.122 31.1346L636.114 31.127C620.662 15.6464 599.293 6.07715 575.687 6.07715H446.577C399.368 6.07715 361.092 44.3508 361.092 91.592C361.092 115.198 370.661 136.567 386.142 152.02L386.149 152.027C401.602 167.508 422.971 177.077 446.577 177.077H575.687C622.897 177.077 661.172 138.802 661.172 91.592C661.172 67.9548 651.602 46.5866 636.122 31.1346Z" fill="#02020B" stroke="#F3F90A" stroke-width="12"/>
<path d="M675.765 31.1346L675.757 31.127C660.304 15.6464 638.936 6.07715 615.329 6.07715H486.22C439.011 6.07715 400.734 44.3508 400.734 91.592C400.734 115.198 410.304 136.567 425.784 152.02L425.792 152.027C441.245 167.508 462.613 177.077 486.22 177.077H615.329C662.54 177.077 700.814 138.802 700.814 91.592C700.814 67.9548 691.244 46.5866 675.765 31.1346Z" fill="#02020B" stroke="#F3F90A" stroke-width="12"/>
<path d="M712.877 31.1346L712.869 31.127C697.417 15.6464 676.048 6.07715 652.442 6.07715H523.332C476.123 6.07715 437.847 44.3508 437.847 91.592C437.847 115.198 447.416 136.567 462.897 152.02L462.904 152.027C478.357 167.508 499.725 177.077 523.332 177.077H652.442C699.652 177.077 737.927 138.802 737.927 91.592C737.927 67.9548 728.357 46.5866 712.877 31.1346Z" fill="#02020B" stroke="#F3F90A" stroke-width="12"/>
<path d="M752.52 31.1346L752.512 31.127C737.059 15.6464 715.691 6.07715 692.084 6.07715H562.974C515.766 6.07715 477.489 44.3508 477.489 91.592C477.489 115.198 487.059 136.567 502.539 152.02L502.547 152.027C518 167.508 539.368 177.077 562.974 177.077H692.084C739.294 177.077 777.569 138.802 777.569 91.592C777.569 67.9548 767.999 46.5866 752.52 31.1346Z" fill="#02020B" stroke="#F3F90A" stroke-width="12"/>
<path d="M792.162 31.1346L792.154 31.127C776.702 15.6464 755.333 6.07715 731.727 6.07715H602.617C555.408 6.07715 517.132 44.3508 517.132 91.592C517.132 115.198 526.701 136.567 542.182 152.02L542.189 152.027C557.642 167.508 579.011 177.077 602.617 177.077H731.727C778.937 177.077 817.212 138.802 817.212 91.592C817.212 67.9548 807.642 46.5866 792.162 31.1346Z" fill="#02020B" stroke="#F3F90A" stroke-width="12"/>
<path d="M831.805 31.1346L831.797 31.127C816.344 15.6464 794.976 6.07715 771.369 6.07715H642.26C595.051 6.07715 556.775 44.3508 556.775 91.592C556.775 115.198 566.344 136.567 581.824 152.02L581.832 152.027C597.285 167.508 618.653 177.077 642.26 177.077H771.369C818.58 177.077 856.854 138.802 856.854 91.592C856.854 67.9548 847.284 46.5866 831.805 31.1346Z" fill="#02020B" stroke="#F3F90A" stroke-width="12"/>
<path d="M868.919 31.1346L868.911 31.127C853.459 15.6464 832.09 6.07715 808.484 6.07715H679.374C632.165 6.07715 593.889 44.3508 593.889 91.592C593.889 115.198 603.458 136.567 618.939 152.02L618.946 152.027C634.399 167.508 655.767 177.077 679.374 177.077H808.484C855.694 177.077 893.969 138.802 893.969 91.592C893.969 67.9548 884.399 46.5866 868.919 31.1346Z" fill="#02020B" stroke="#F3F90A" stroke-width="12"/>
<path d="M908.562 31.1346L908.554 31.127C893.101 15.6464 871.733 6.07715 848.126 6.07715H719.016C671.808 6.07715 633.531 44.3508 633.531 91.592C633.531 115.198 643.101 136.567 658.581 152.02L658.589 152.027C674.042 167.508 695.41 177.077 719.016 177.077H848.126C895.336 177.077 933.611 138.802 933.611 91.592C933.611 67.9548 924.041 46.5866 908.562 31.1346Z" fill="#02020B" stroke="#F3F90A" stroke-width="12"/>
<path d="M948.204 31.1346L948.196 31.127C932.744 15.6464 911.375 6.07715 887.769 6.07715H758.659C711.45 6.07715 673.174 44.3508 673.174 91.592C673.174 115.198 682.743 136.567 698.224 152.02L698.231 152.027C713.684 167.508 735.053 177.077 758.659 177.077H887.769C934.979 177.077 973.254 138.802 973.254 91.592C973.254 67.9548 963.684 46.5866 948.204 31.1346Z" fill="#02020B" stroke="#F3F90A" stroke-width="12"/>
<path d="M987.847 31.1346L987.839 31.127C972.386 15.6464 951.018 6.07715 927.411 6.07715H798.302C751.093 6.07715 712.816 44.3508 712.816 91.592C712.816 115.198 722.386 136.567 737.866 152.02L737.874 152.027C753.327 167.508 774.695 177.077 798.302 177.077H927.411C974.622 177.077 1012.9 138.802 1012.9 91.592C1012.9 67.9548 1003.33 46.5866 987.847 31.1346Z" fill="#02020B" stroke="#F3F90A" stroke-width="12"/>
<path d="M1024.96 31.1346L1024.95 31.127C1009.5 15.6464 988.13 6.07715 964.524 6.07715H835.414C788.205 6.07715 749.929 44.3508 749.929 91.592C749.929 115.198 759.498 136.567 774.979 152.02L774.986 152.027C790.439 167.508 811.807 177.077 835.414 177.077H964.524C1011.73 177.077 1050.01 138.802 1050.01 91.592C1050.01 67.9548 1040.44 46.5866 1024.96 31.1346Z" fill="#02020B" stroke="#F3F90A" stroke-width="12"/>
<path d="M1064.6 31.1346L1064.59 31.127C1049.14 15.6464 1027.77 6.07715 1004.17 6.07715H875.056C827.848 6.07715 789.571 44.3508 789.571 91.592C789.571 115.198 799.141 136.567 814.621 152.02L814.629 152.027C830.082 167.508 851.45 177.077 875.056 177.077H1004.17C1051.38 177.077 1089.65 138.802 1089.65 91.592C1089.65 67.9548 1080.08 46.5866 1064.6 31.1346Z" fill="#02020B" stroke="#F3F90A" stroke-width="12"/>
<path d="M1104.24 31.1346L1104.24 31.127C1088.78 15.6464 1067.42 6.07715 1043.81 6.07715H914.699C867.49 6.07715 829.214 44.3508 829.214 91.592C829.214 115.198 838.783 136.567 854.264 152.02L854.271 152.027C869.724 167.508 891.093 177.077 914.699 177.077H1043.81C1091.02 177.077 1129.29 138.802 1129.29 91.592C1129.29 67.9548 1119.72 46.5866 1104.24 31.1346Z" fill="#02020B" stroke="#F3F90A" stroke-width="12"/>
<path d="M1143.89 31.1346L1143.88 31.127C1128.43 15.6464 1107.06 6.07715 1083.45 6.07715H954.342C907.133 6.07715 868.857 44.3508 868.857 91.592C868.857 115.198 878.426 136.567 893.906 152.02L893.914 152.027C909.367 167.508 930.735 177.077 954.342 177.077H1083.45C1130.66 177.077 1168.94 138.802 1168.94 91.592C1168.94 67.9548 1159.37 46.5866 1143.89 31.1346Z" fill="#02020B" stroke="#F3F90A" stroke-width="12"/>
<path d="M1181 31.1346L1180.99 31.127C1165.54 15.6464 1144.17 6.07715 1120.56 6.07715H991.452C944.243 6.07715 905.967 44.3508 905.967 91.592C905.967 115.198 915.536 136.567 931.017 152.02L931.024 152.027C946.477 167.508 967.846 177.077 991.452 177.077H1120.56C1167.77 177.077 1206.05 138.802 1206.05 91.592C1206.05 67.9548 1196.48 46.5866 1181 31.1346Z" fill="#02020B" stroke="#F3F90A" stroke-width="12"/>
<path d="M1220.64 31.1346L1220.63 31.127C1205.18 15.6464 1183.81 6.07715 1160.2 6.07715H1031.09C983.886 6.07715 945.609 44.3508 945.609 91.592C945.609 115.198 955.179 136.567 970.659 152.02L970.667 152.027C986.12 167.508 1007.49 177.077 1031.09 177.077H1160.2C1207.41 177.077 1245.69 138.802 1245.69 91.592C1245.69 67.9548 1236.12 46.5866 1220.64 31.1346Z" fill="#02020B" stroke="#F3F90A" stroke-width="12"/>
<path d="M1260.28 31.1346L1260.27 31.127C1244.82 15.6464 1223.45 6.07715 1199.85 6.07715H1070.74C1023.53 6.07715 985.252 44.3508 985.252 91.592C985.252 115.198 994.821 136.567 1010.3 152.02L1010.31 152.027C1025.76 167.508 1047.13 177.077 1070.74 177.077H1199.85C1247.06 177.077 1285.33 138.802 1285.33 91.592C1285.33 67.9548 1275.76 46.5866 1260.28 31.1346Z" fill="#02020B" stroke="#F3F90A" stroke-width="12"/>
<path d="M1299.92 31.1346L1299.92 31.127C1284.46 15.6464 1263.1 6.07715 1239.49 6.07715H1110.38C1063.17 6.07715 1024.89 44.3508 1024.89 91.592C1024.89 115.198 1034.46 136.567 1049.94 152.02L1049.95 152.027C1065.4 167.508 1086.77 177.077 1110.38 177.077H1239.49C1286.7 177.077 1324.97 138.802 1324.97 91.592C1324.97 67.9548 1315.4 46.5866 1299.92 31.1346Z" fill="#02020B" stroke="#F3F90A" stroke-width="12"/>
<path d="M1337.04 31.1346L1337.03 31.127C1321.58 15.6464 1300.21 6.07715 1276.6 6.07715H1147.49C1100.28 6.07715 1062.01 44.3508 1062.01 91.592C1062.01 115.198 1071.58 136.567 1087.06 152.02L1087.06 152.027C1102.52 167.508 1123.89 177.077 1147.49 177.077H1276.6C1323.81 177.077 1362.09 138.802 1362.09 91.592C1362.09 67.9548 1352.52 46.5866 1337.04 31.1346Z" fill="#02020B" stroke="#F3F90A" stroke-width="12"/>
<path d="M1376.68 31.1346L1376.67 31.127C1361.22 15.6464 1339.85 6.07715 1316.24 6.07715H1187.13C1139.93 6.07715 1101.65 44.3508 1101.65 91.592C1101.65 115.198 1111.22 136.567 1126.7 152.02L1126.71 152.027C1142.16 167.508 1163.53 177.077 1187.13 177.077H1316.24C1363.45 177.077 1401.73 138.802 1401.73 91.592C1401.73 67.9548 1392.16 46.5866 1376.68 31.1346Z" fill="#02020B" stroke="#F3F90A" stroke-width="12"/>
<path d="M1416.32 31.1346L1416.31 31.127C1400.86 15.6464 1379.49 6.07715 1355.89 6.07715H1226.78C1179.57 6.07715 1141.29 44.3508 1141.29 91.592C1141.29 115.198 1150.86 136.567 1166.34 152.02L1166.35 152.027C1181.8 167.508 1203.17 177.077 1226.78 177.077H1355.89C1403.1 177.077 1441.37 138.802 1441.37 91.592C1441.37 67.9548 1431.8 46.5866 1416.32 31.1346Z" fill="#02020B" stroke="#F3F90A" stroke-width="12"/>
<path d="M1455.96 31.1346L1455.96 31.127C1440.5 15.6464 1419.14 6.07715 1395.53 6.07715H1266.42C1219.21 6.07715 1180.93 44.3508 1180.93 91.592C1180.93 115.198 1190.5 136.567 1205.98 152.02L1205.99 152.027C1221.44 167.508 1242.81 177.077 1266.42 177.077H1395.53C1442.74 177.077 1481.01 138.802 1481.01 91.592C1481.01 67.9548 1471.44 46.5866 1455.96 31.1346Z" fill="#02020B" stroke="#F3F90A" stroke-width="12"/>
<path d="M1493.08 31.1346L1493.07 31.127C1477.62 15.6464 1456.25 6.07715 1432.64 6.07715H1303.53C1256.33 6.07715 1218.05 44.3508 1218.05 91.592C1218.05 115.198 1227.62 136.567 1243.1 152.02L1243.11 152.027C1258.56 167.508 1279.93 177.077 1303.53 177.077H1432.64C1479.85 177.077 1518.13 138.802 1518.13 91.592C1518.13 67.9548 1508.56 46.5866 1493.08 31.1346Z" fill="#02020B" stroke="#F3F90A" stroke-width="12"/>
<path d="M1532.72 31.1346L1532.71 31.127C1517.26 15.6464 1495.89 6.07715 1472.29 6.07715H1343.18C1295.97 6.07715 1257.69 44.3508 1257.69 91.592C1257.69 115.198 1267.26 136.567 1282.74 152.02L1282.75 152.027C1298.2 167.508 1319.57 177.077 1343.18 177.077H1472.29C1519.5 177.077 1557.77 138.802 1557.77 91.592C1557.77 67.9548 1548.2 46.5866 1532.72 31.1346Z" fill="#02020B" stroke="#F3F90A" stroke-width="12"/>
<path d="M1572.36 31.1346L1572.36 31.127C1556.9 15.6464 1535.54 6.07715 1511.93 6.07715H1382.82C1335.61 6.07715 1297.33 44.3508 1297.33 91.592C1297.33 115.198 1306.9 136.567 1322.38 152.02L1322.39 152.027C1337.84 167.508 1359.21 177.077 1382.82 177.077H1511.93C1559.14 177.077 1597.41 138.802 1597.41 91.592C1597.41 67.9548 1587.84 46.5866 1572.36 31.1346Z" fill="#02020B" stroke="#F3F90A" stroke-width="12"/>
<path d="M1612.01 31.1346L1612 31.127C1596.55 15.6464 1575.18 6.07715 1551.57 6.07715H1422.46C1375.25 6.07715 1336.98 44.3508 1336.98 91.592C1336.98 115.198 1346.55 136.567 1362.03 152.02L1362.03 152.027C1377.49 167.508 1398.86 177.077 1422.46 177.077H1551.57C1598.78 177.077 1637.06 138.802 1637.06 91.592C1637.06 67.9548 1627.49 46.5866 1612.01 31.1346Z" fill="#02020B" stroke="#F3F90A" stroke-width="12"/>
<path d="M1649.12 31.1346L1649.11 31.127C1633.66 15.6464 1612.29 6.07715 1588.68 6.07715H1459.57C1412.37 6.07715 1374.09 44.3508 1374.09 91.592C1374.09 115.198 1383.66 136.567 1399.14 152.02L1399.15 152.027C1414.6 167.508 1435.97 177.077 1459.57 177.077H1588.68C1635.89 177.077 1674.17 138.802 1674.17 91.592C1674.17 67.9548 1664.6 46.5866 1649.12 31.1346Z" fill="#02020B" stroke="#F3F90A" stroke-width="12"/>
<path d="M1688.76 31.1346L1688.75 31.127C1673.3 15.6464 1651.93 6.07715 1628.33 6.07715H1499.22C1452.01 6.07715 1413.73 44.3508 1413.73 91.592C1413.73 115.198 1423.3 136.567 1438.78 152.02L1438.79 152.027C1454.24 167.508 1475.61 177.077 1499.22 177.077H1628.33C1675.54 177.077 1713.81 138.802 1713.81 91.592C1713.81 67.9548 1704.24 46.5866 1688.76 31.1346Z" fill="#02020B" stroke="#F3F90A" stroke-width="12"/>
<path d="M1728.4 31.1346L1728.4 31.127C1712.94 15.6464 1691.58 6.07715 1667.97 6.07715H1538.86C1491.65 6.07715 1453.37 44.3508 1453.37 91.592C1453.37 115.198 1462.94 136.567 1478.42 152.02L1478.43 152.027C1493.88 167.508 1515.25 177.077 1538.86 177.077H1667.97C1715.18 177.077 1753.45 138.802 1753.45 91.592C1753.45 67.9548 1743.88 46.5866 1728.4 31.1346Z" fill="#02020B" stroke="#F3F90A" stroke-width="12"/>
<path d="M1768.05 31.1346L1768.04 31.127C1752.59 15.6464 1731.22 6.07715 1707.61 6.07715H1578.5C1531.29 6.07715 1493.02 44.3508 1493.02 91.592C1493.02 115.198 1502.59 136.567 1518.07 152.02L1518.07 152.027C1533.53 167.508 1554.9 177.077 1578.5 177.077H1707.61C1754.82 177.077 1793.1 138.802 1793.1 91.592C1793.1 67.9548 1783.53 46.5866 1768.05 31.1346Z" fill="#02020B" stroke="#F3F90A" stroke-width="12"/>
<path d="M1554.16 28.0638L1554.16 28.0616C1570.38 11.8177 1592.81 1.77015 1617.58 1.77015H1746.69C1796.24 1.77015 1836.41 41.9385 1836.41 91.5149C1836.41 116.288 1826.36 138.722 1810.12 154.936L1810.11 154.938C1793.9 171.182 1771.47 181.23 1746.69 181.23H1617.58C1568.04 181.23 1527.87 141.061 1527.87 91.5149C1527.87 66.7113 1537.92 44.2782 1554.16 28.0638Z" fill="#02020B" stroke="#F3F90A" stroke-width="3.54031"/>
<path d="M1802.63 64.3261C1799.98 64.3757 1797.91 64.7505 1796.45 65.4926C1795.66 65.8958 1795.04 66.4148 1794.62 67.0615C1794.19 67.7109 1793.99 68.4603 1793.99 69.2908V112.206C1793.99 113.037 1794.19 113.786 1794.62 114.436C1795.04 115.082 1795.66 115.601 1796.45 116.005C1797.93 116.758 1800.04 117.133 1802.75 117.173V126.399H1762.98V117.173C1765.64 117.132 1767.73 116.757 1769.19 116.003C1769.97 115.6 1770.58 115.08 1771 114.434C1771.42 113.785 1771.62 113.036 1771.62 112.206V70.2743L1770.64 70.147L1755.84 126.399H1737.53L1722.76 70.1472L1721.78 70.2743V112.206C1721.78 113.035 1721.98 113.783 1722.39 114.432C1722.81 115.079 1723.42 115.599 1724.2 116.003C1725.65 116.757 1727.74 117.132 1730.42 117.173V126.399H1701.74V117.173C1704.4 117.132 1706.49 116.757 1707.94 116.003C1708.72 115.6 1709.34 115.08 1709.76 114.434C1710.18 113.785 1710.38 113.036 1710.38 112.206V70.3637V68.5571L1709.45 70.1066L1683.49 113.41L1683.47 113.439L1683.46 113.47C1683.19 114.109 1683.09 114.736 1683.26 115.316C1683.44 115.903 1683.85 116.355 1684.43 116.689C1685.43 117.26 1686.99 117.55 1689.07 117.611L1683.82 126.369H1658.18L1661.78 119.318L1660.98 118.737C1658.02 121.694 1654.47 123.953 1650.33 125.569C1646.18 127.187 1642.1 127.979 1638.02 127.979C1635.81 127.979 1633.85 127.63 1632.16 126.97C1631.73 126.798 1631.37 126.631 1631.01 126.414L1630.89 126.34H1630.75H1594.24V117.117H1600.15C1601.12 117.117 1601.93 116.982 1602.51 116.645C1603.14 116.283 1603.48 115.708 1603.48 114.978C1603.48 114.714 1603.44 114.489 1603.37 114.245L1603.36 114.214L1603.35 114.185C1603.27 114.016 1603.22 113.841 1603.17 113.588L1603.16 113.574L1603.16 113.56L1601.7 108.404L1601.6 108.041H1601.22H1578.45H1578.08L1577.97 108.391L1576.61 112.757C1576.39 113.328 1576.28 113.832 1576.28 114.293C1576.28 114.762 1576.39 115.195 1576.63 115.576C1576.87 115.954 1577.21 116.251 1577.64 116.478C1578.48 116.923 1579.67 117.117 1581.16 117.117H1585.82V126.34H1558.2L1558.12 117.115C1560.79 117.089 1562.76 116.852 1563.95 116.365C1565.2 115.85 1566.09 115.054 1566.54 114.015L1566.55 113.993L1566.56 113.97L1585.7 55.0683H1610.06L1627.38 112.262L1627.87 113.859L1628.34 112.259C1628.81 110.67 1629.43 108.96 1630.23 107.066L1630.23 107.066C1631.55 103.923 1633.5 100.649 1636.04 97.1847C1638.58 93.7593 1641.54 90.598 1644.91 87.701C1648.27 84.84 1651.99 82.4508 1656.03 80.5626C1660.08 78.6851 1664.27 77.7481 1668.63 77.7481C1671.79 77.7481 1674.49 78.0439 1676.69 78.6539C1678.89 79.2604 1680.23 80.2151 1680.89 81.4207L1681.31 82.1884L1681.76 81.4398L1689.77 68.1181L1689.79 68.088L1689.8 68.0558C1690.08 67.3993 1690.19 66.7621 1690.04 66.1743C1689.89 65.5752 1689.5 65.1047 1688.94 64.754C1687.99 64.1612 1686.48 63.8627 1684.5 63.7977L1689.72 55.0981H1742.5L1752.63 98.7891H1753.61L1763.74 55.0981H1802.63V64.3261ZM1580.98 98.498L1580.78 99.1463H1581.46H1581.49H1598.51H1599.16L1598.99 98.5143L1591 69.3376L1590.55 67.6862L1590.04 69.3213L1580.98 98.498ZM1674.73 95.6188L1674.75 95.6235C1675.4 94.1008 1675.83 92.8039 1676.02 91.7365C1676.22 90.6824 1676.2 89.782 1675.88 89.1046C1675.24 87.751 1673.65 87.2088 1671.55 87.2088C1669.12 87.2088 1666.85 87.9275 1664.72 89.3491C1662.62 90.7459 1660.71 92.4456 1659.01 94.4469C1657.29 96.439 1655.84 98.5208 1654.61 100.661L1654.61 100.664C1653.38 102.817 1652.42 104.684 1651.75 106.26C1651.75 106.26 1651.75 106.259 1651.75 106.259L1674.73 95.6188Z" fill="#F3F90A" stroke="#F3F90A"/>
<path d="M1553.14 27.1762L1553.14 27.1755C1569.59 10.6955 1592.36 0.5 1617.49 0.5H1746.65C1796.92 0.5 1837.68 41.2546 1837.68 91.5535C1837.68 116.688 1827.48 139.451 1811 155.901L1811 155.902C1794.55 172.382 1771.79 182.577 1746.65 182.577H1617.49C1567.22 182.577 1526.47 141.822 1526.47 91.5535C1526.47 66.389 1536.66 43.6265 1553.14 27.1762ZM1682.07 135.724C1683.7 138.142 1685.48 140.48 1687.38 142.691C1701.81 159.607 1723.32 170.315 1747.28 170.315C1790.77 170.315 1826.04 135.043 1826.04 91.5535C1826.04 48.0636 1790.77 12.7919 1747.28 12.7919C1723.32 12.7919 1701.81 23.4995 1687.39 40.4146C1685.48 42.6255 1683.7 44.9632 1682.07 47.3809C1667.92 26.5259 1643.98 12.7919 1616.86 12.7919C1573.34 12.7919 1538.1 48.0637 1538.1 91.5535C1538.1 135.043 1573.34 170.315 1616.86 170.315C1640.83 170.315 1662.3 159.608 1676.73 142.693C1678.64 140.48 1680.42 138.141 1682.07 135.724Z" fill="#F3F90A" stroke="#F3F90A"/>
</svg>
