<svg width="1839" height="184" viewBox="0 0 1839 184" fill="none" xmlns="http://www.w3.org/2000/svg">
<path d="M1557.15 31.1346L1557.16 31.127C1572.61 15.6464 1593.98 6.07715 1617.58 6.07715H1746.69C1793.9 6.07715 1832.18 44.3508 1832.18 91.592C1832.18 115.198 1822.61 136.567 1807.13 152.02L1807.12 152.027C1791.67 167.508 1770.3 177.077 1746.69 177.077H1617.58C1570.37 177.077 1532.1 138.802 1532.1 91.592C1532.1 67.9548 1541.67 46.5866 1557.15 31.1346Z" fill="#02020B" stroke="#F3F90A" stroke-width="12"/>
<path d="M1517.51 31.1346L1517.51 31.127C1532.97 15.6464 1554.33 6.07715 1577.94 6.07715H1707.05C1754.26 6.07715 1792.54 44.3508 1792.54 91.592C1792.54 115.198 1782.97 136.567 1767.49 152.02L1767.48 152.027C1752.03 167.508 1730.66 177.077 1707.05 177.077H1577.94C1530.73 177.077 1492.46 138.802 1492.46 91.592C1492.46 67.9548 1502.03 46.5866 1517.51 31.1346Z" fill="#02020B" stroke="#F3F90A" stroke-width="12"/>
<path d="M1477.86 31.1346L1477.87 31.127C1493.32 15.6464 1514.69 6.07715 1538.3 6.07715H1667.41C1714.62 6.07715 1752.89 44.3508 1752.89 91.592C1752.89 115.198 1743.32 136.567 1727.84 152.02L1727.84 152.027C1712.38 167.508 1691.01 177.077 1667.41 177.077H1538.3C1491.09 177.077 1452.81 138.802 1452.81 91.592C1452.81 67.9548 1462.38 46.5866 1477.86 31.1346Z" fill="#02020B" stroke="#F3F90A" stroke-width="12"/>
<path d="M1438.22 31.1346L1438.23 31.127C1453.68 15.6464 1475.05 6.07715 1498.66 6.07715H1627.77C1674.97 6.07715 1713.25 44.3508 1713.25 91.592C1713.25 115.198 1703.68 136.567 1688.2 152.02L1688.19 152.027C1672.74 167.508 1651.37 177.077 1627.77 177.077H1498.66C1451.45 177.077 1413.17 138.802 1413.17 91.592C1413.17 67.9548 1422.74 46.5866 1438.22 31.1346Z" fill="#02020B" stroke="#F3F90A" stroke-width="12"/>
<path d="M1401.11 31.1346L1401.12 31.127C1416.57 15.6464 1437.94 6.07715 1461.54 6.07715H1590.65C1637.86 6.07715 1676.14 44.3508 1676.14 91.592C1676.14 115.198 1666.57 136.567 1651.09 152.02L1651.08 152.027C1635.63 167.508 1614.26 177.077 1590.65 177.077H1461.54C1414.33 177.077 1376.06 138.802 1376.06 91.592C1376.06 67.9548 1385.63 46.5866 1401.11 31.1346Z" fill="#02020B" stroke="#F3F90A" stroke-width="12"/>
<path d="M1361.47 31.1346L1361.47 31.127C1376.93 15.6464 1398.29 6.07715 1421.9 6.07715H1551.01C1598.22 6.07715 1636.5 44.3508 1636.5 91.592C1636.5 115.198 1626.93 136.567 1611.45 152.02L1611.44 152.027C1595.99 167.508 1574.62 177.077 1551.01 177.077H1421.9C1374.69 177.077 1336.42 138.802 1336.42 91.592C1336.42 67.9548 1345.99 46.5866 1361.47 31.1346Z" fill="#02020B" stroke="#F3F90A" stroke-width="12"/>
<path d="M1321.82 31.1346L1321.83 31.127C1337.28 15.6464 1358.65 6.07715 1382.26 6.07715H1511.37C1558.58 6.07715 1596.85 44.3508 1596.85 91.592C1596.85 115.198 1587.28 136.567 1571.8 152.02L1571.8 152.027C1556.34 167.508 1534.97 177.077 1511.37 177.077H1382.26C1335.05 177.077 1296.77 138.802 1296.77 91.592C1296.77 67.9548 1306.34 46.5866 1321.82 31.1346Z" fill="#02020B" stroke="#F3F90A" stroke-width="12"/>
<path d="M1282.18 31.1346L1282.19 31.127C1297.64 15.6464 1319.01 6.07715 1342.62 6.07715H1471.73C1518.93 6.07715 1557.21 44.3508 1557.21 91.592C1557.21 115.198 1547.64 136.567 1532.16 152.02L1532.15 152.027C1516.7 167.508 1495.33 177.077 1471.73 177.077H1342.62C1295.41 177.077 1257.13 138.802 1257.13 91.592C1257.13 67.9548 1266.7 46.5866 1282.18 31.1346Z" fill="#02020B" stroke="#F3F90A" stroke-width="12"/>
<path d="M1281.34 31.1346L1281.35 31.127C1296.8 15.6464 1318.17 6.07715 1341.78 6.07715H1470.89C1518.1 6.07715 1556.37 44.3508 1556.37 91.592C1556.37 115.198 1546.8 136.567 1531.32 152.02L1531.31 152.027C1515.86 167.508 1494.49 177.077 1470.89 177.077H1341.78C1294.57 177.077 1256.29 138.802 1256.29 91.592C1256.29 67.9548 1265.86 46.5866 1281.34 31.1346Z" fill="#02020B" stroke="#F3F90A" stroke-width="12"/>
<path d="M1241.7 31.1346L1241.71 31.127C1257.16 15.6464 1278.53 6.07715 1302.13 6.07715H1431.24C1478.45 6.07715 1516.73 44.3508 1516.73 91.592C1516.73 115.198 1507.16 136.567 1491.68 152.02L1491.67 152.027C1476.22 167.508 1454.85 177.077 1431.24 177.077H1302.13C1254.92 177.077 1216.65 138.802 1216.65 91.592C1216.65 67.9548 1226.22 46.5866 1241.7 31.1346Z" fill="#02020B" stroke="#F3F90A" stroke-width="12"/>
<path d="M1202.06 31.1346L1202.06 31.127C1217.52 15.6464 1238.89 6.07715 1262.49 6.07715H1391.6C1438.81 6.07715 1477.09 44.3508 1477.09 91.592C1477.09 115.198 1467.52 136.567 1452.04 152.02L1452.03 152.027C1436.58 167.508 1415.21 177.077 1391.6 177.077H1262.49C1215.28 177.077 1177.01 138.802 1177.01 91.592C1177.01 67.9548 1186.58 46.5866 1202.06 31.1346Z" fill="#02020B" stroke="#F3F90A" stroke-width="12"/>
<path d="M1162.41 31.1346L1162.42 31.127C1177.87 15.6464 1199.24 6.07715 1222.85 6.07715H1351.96C1399.17 6.07715 1437.44 44.3508 1437.44 91.592C1437.44 115.198 1427.87 136.567 1412.39 152.02L1412.39 152.027C1396.93 167.508 1375.57 177.077 1351.96 177.077H1222.85C1175.64 177.077 1137.36 138.802 1137.36 91.592C1137.36 67.9548 1146.93 46.5866 1162.41 31.1346Z" fill="#02020B" stroke="#F3F90A" stroke-width="12"/>
<path d="M1125.3 31.1346L1125.31 31.127C1140.76 15.6464 1162.13 6.07715 1185.74 6.07715H1314.85C1362.06 6.07715 1400.33 44.3508 1400.33 91.592C1400.33 115.198 1390.76 136.567 1375.28 152.02L1375.27 152.027C1359.82 167.508 1338.45 177.077 1314.85 177.077H1185.74C1138.53 177.077 1100.25 138.802 1100.25 91.592C1100.25 67.9548 1109.82 46.5866 1125.3 31.1346Z" fill="#02020B" stroke="#F3F90A" stroke-width="12"/>
<path d="M1085.66 31.1346L1085.67 31.127C1101.12 15.6464 1122.49 6.07715 1146.09 6.07715H1275.2C1322.41 6.07715 1360.69 44.3508 1360.69 91.592C1360.69 115.198 1351.12 136.567 1335.64 152.02L1335.63 152.027C1320.18 167.508 1298.81 177.077 1275.2 177.077H1146.09C1098.88 177.077 1060.61 138.802 1060.61 91.592C1060.61 67.9548 1070.18 46.5866 1085.66 31.1346Z" fill="#02020B" stroke="#F3F90A" stroke-width="12"/>
<path d="M1046.02 31.1346L1046.02 31.127C1061.48 15.6464 1082.85 6.07715 1106.45 6.07715H1235.56C1282.77 6.07715 1321.05 44.3508 1321.05 91.592C1321.05 115.198 1311.48 136.567 1296 152.02L1295.99 152.027C1280.54 167.508 1259.17 177.077 1235.56 177.077H1106.45C1059.24 177.077 1020.97 138.802 1020.97 91.592C1020.97 67.9548 1030.54 46.5866 1046.02 31.1346Z" fill="#02020B" stroke="#F3F90A" stroke-width="12"/>
<path d="M1006.37 31.1346L1006.38 31.127C1021.83 15.6464 1043.2 6.07715 1066.81 6.07715H1195.92C1243.13 6.07715 1281.4 44.3508 1281.4 91.592C1281.4 115.198 1271.83 136.567 1256.35 152.02L1256.35 152.027C1240.89 167.508 1219.53 177.077 1195.92 177.077H1066.81C1019.6 177.077 981.324 138.802 981.324 91.592C981.324 67.9548 990.894 46.5866 1006.37 31.1346Z" fill="#02020B" stroke="#F3F90A" stroke-width="12"/>
<path d="M969.26 31.1346L969.267 31.127C984.72 15.6464 1006.09 6.07715 1029.7 6.07715H1158.8C1206.01 6.07715 1244.29 44.3508 1244.29 91.592C1244.29 115.198 1234.72 136.567 1219.24 152.02L1219.23 152.027C1203.78 167.508 1182.41 177.077 1158.8 177.077H1029.7C982.485 177.077 944.21 138.802 944.21 91.592C944.21 67.9548 953.78 46.5866 969.26 31.1346Z" fill="#02020B" stroke="#F3F90A" stroke-width="12"/>
<path d="M929.617 31.1346L929.625 31.127C945.078 15.6464 966.446 6.07715 990.052 6.07715H1119.16C1166.37 6.07715 1204.65 44.3508 1204.65 91.592C1204.65 115.198 1195.08 136.567 1179.6 152.02L1179.59 152.027C1164.14 167.508 1142.77 177.077 1119.16 177.077H990.052C942.842 177.077 904.567 138.802 904.567 91.592C904.567 67.9548 914.137 46.5866 929.617 31.1346Z" fill="#02020B" stroke="#F3F90A" stroke-width="12"/>
<path d="M889.975 31.1346L889.982 31.127C905.435 15.6464 926.803 6.07715 950.41 6.07715H1079.52C1126.73 6.07715 1165 44.3508 1165 91.592C1165 115.198 1155.44 136.567 1139.95 152.02L1139.95 152.027C1124.49 167.508 1103.13 177.077 1079.52 177.077H950.41C903.2 177.077 864.925 138.802 864.925 91.592C864.925 67.9548 874.495 46.5866 889.975 31.1346Z" fill="#02020B" stroke="#F3F90A" stroke-width="12"/>
<path d="M850.332 31.1346L850.34 31.127C865.792 15.6464 887.161 6.07715 910.767 6.07715H1039.88C1087.09 6.07715 1125.36 44.3508 1125.36 91.592C1125.36 115.198 1115.79 136.567 1100.31 152.02L1100.3 152.027C1084.85 167.508 1063.48 177.077 1039.88 177.077H910.767C863.557 177.077 825.282 138.802 825.282 91.592C825.282 67.9548 834.852 46.5866 850.332 31.1346Z" fill="#02020B" stroke="#F3F90A" stroke-width="12"/>
<path d="M813.22 31.1346L813.227 31.127C828.68 15.6464 850.049 6.07715 873.655 6.07715H1002.76C1049.97 6.07715 1088.25 44.3508 1088.25 91.592C1088.25 115.198 1078.68 136.567 1063.2 152.02L1063.19 152.027C1047.74 167.508 1026.37 177.077 1002.76 177.077H873.655C826.445 177.077 788.17 138.802 788.17 91.592C788.17 67.9548 797.74 46.5866 813.22 31.1346Z" fill="#02020B" stroke="#F3F90A" stroke-width="12"/>
<path d="M773.577 31.1346L773.585 31.127C789.038 15.6464 810.406 6.07715 834.012 6.07715H963.122C1010.33 6.07715 1048.61 44.3508 1048.61 91.592C1048.61 115.198 1039.04 136.567 1023.56 152.02L1023.55 152.027C1008.1 167.508 986.729 177.077 963.122 177.077H834.012C786.802 177.077 748.527 138.802 748.527 91.592C748.527 67.9548 758.097 46.5866 773.577 31.1346Z" fill="#02020B" stroke="#F3F90A" stroke-width="12"/>
<path d="M733.935 31.1346L733.942 31.127C749.395 15.6464 770.763 6.07715 794.37 6.07715H923.48C970.689 6.07715 1008.96 44.3508 1008.96 91.592C1008.96 115.198 999.395 136.567 983.915 152.02L983.907 152.027C968.455 167.508 947.086 177.077 923.48 177.077H794.37C747.16 177.077 708.885 138.802 708.885 91.592C708.885 67.9548 718.455 46.5866 733.935 31.1346Z" fill="#02020B" stroke="#F3F90A" stroke-width="12"/>
<path d="M694.292 31.1346L694.3 31.127C709.752 15.6464 731.121 6.07715 754.727 6.07715H883.837C931.046 6.07715 969.322 44.3508 969.322 91.592C969.322 115.198 959.753 136.567 944.272 152.02L944.265 152.027C928.812 167.508 907.444 177.077 883.837 177.077H754.727C707.517 177.077 669.242 138.802 669.242 91.592C669.242 67.9548 678.812 46.5866 694.292 31.1346Z" fill="#02020B" stroke="#F3F90A" stroke-width="12"/>
<path d="M657.182 31.1346L657.189 31.127C672.642 15.6464 694.01 6.07715 717.617 6.07715H846.727C893.936 6.07715 932.212 44.3508 932.212 91.592C932.212 115.198 922.643 136.567 907.162 152.02L907.154 152.027C891.702 167.508 870.333 177.077 846.727 177.077H717.617C670.407 177.077 632.132 138.802 632.132 91.592C632.132 67.9548 641.702 46.5866 657.182 31.1346Z" fill="#02020B" stroke="#F3F90A" stroke-width="12"/>
<path d="M617.539 31.1346L617.547 31.127C632.999 15.6464 654.368 6.07715 677.974 6.07715H807.084C854.293 6.07715 892.569 44.3508 892.569 91.592C892.569 115.198 883 136.567 867.519 152.02L867.512 152.027C852.059 167.508 830.691 177.077 807.084 177.077H677.974C630.764 177.077 592.489 138.802 592.489 91.592C592.489 67.9548 602.059 46.5866 617.539 31.1346Z" fill="#02020B" stroke="#F3F90A" stroke-width="12"/>
<path d="M577.897 31.1346L577.904 31.127C593.357 15.6464 614.725 6.07715 638.332 6.07715H767.442C814.65 6.07715 852.927 44.3508 852.927 91.592C852.927 115.198 843.357 136.567 827.877 152.02L827.869 152.027C812.417 167.508 791.048 177.077 767.442 177.077H638.332C591.122 177.077 552.847 138.802 552.847 91.592C552.847 67.9548 562.417 46.5866 577.897 31.1346Z" fill="#02020B" stroke="#F3F90A" stroke-width="12"/>
<path d="M538.254 31.1346L538.262 31.127C553.714 15.6464 575.083 6.07715 598.689 6.07715H727.799C775.008 6.07715 813.284 44.3508 813.284 91.592C813.284 115.198 803.715 136.567 788.234 152.02L788.227 152.027C772.774 167.508 751.405 177.077 727.799 177.077H598.689C551.479 177.077 513.204 138.802 513.204 91.592C513.204 67.9548 522.774 46.5866 538.254 31.1346Z" fill="#02020B" stroke="#F3F90A" stroke-width="12"/>
<path d="M501.142 31.1346L501.149 31.127C516.602 15.6464 537.97 6.07715 561.577 6.07715H690.687C737.896 6.07715 776.172 44.3508 776.172 91.592C776.172 115.198 766.603 136.567 751.122 152.02L751.114 152.027C735.662 167.508 714.293 177.077 690.687 177.077H561.577C514.367 177.077 476.092 138.802 476.092 91.592C476.092 67.9548 485.662 46.5866 501.142 31.1346Z" fill="#02020B" stroke="#F3F90A" stroke-width="12"/>
<path d="M461.499 31.1346L461.507 31.127C476.959 15.6464 498.328 6.07715 521.934 6.07715H651.044C698.253 6.07715 736.529 44.3508 736.529 91.592C736.529 115.198 726.96 136.567 711.479 152.02L711.472 152.027C696.019 167.508 674.651 177.077 651.044 177.077H521.934C474.724 177.077 436.449 138.802 436.449 91.592C436.449 67.9548 446.019 46.5866 461.499 31.1346Z" fill="#02020B" stroke="#F3F90A" stroke-width="12"/>
<path d="M421.856 31.1346L421.864 31.127C437.317 15.6464 458.685 6.07715 482.292 6.07715H611.402C658.61 6.07715 696.887 44.3508 696.887 91.592C696.887 115.198 687.317 136.567 671.837 152.02L671.829 152.027C656.376 167.508 635.008 177.077 611.402 177.077H482.292C435.082 177.077 396.807 138.802 396.807 91.592C396.807 67.9548 406.377 46.5866 421.856 31.1346Z" fill="#02020B" stroke="#F3F90A" stroke-width="12"/>
<path d="M382.214 31.1346L382.222 31.127C397.674 15.6464 419.043 6.07715 442.649 6.07715H571.759C618.968 6.07715 657.244 44.3508 657.244 91.592C657.244 115.198 647.675 136.567 632.194 152.02L632.187 152.027C616.734 167.508 595.365 177.077 571.759 177.077H442.649C395.439 177.077 357.164 138.802 357.164 91.592C357.164 67.9548 366.734 46.5866 382.214 31.1346Z" fill="#02020B" stroke="#F3F90A" stroke-width="12"/>
<path d="M345.1 31.1346L345.107 31.127C360.56 15.6464 381.928 6.07715 405.535 6.07715H534.645C581.854 6.07715 620.13 44.3508 620.13 91.592C620.13 115.198 610.561 136.567 595.08 152.02L595.072 152.027C579.62 167.508 558.251 177.077 534.645 177.077H405.535C358.325 177.077 320.05 138.802 320.05 91.592C320.05 67.9548 329.62 46.5866 345.1 31.1346Z" fill="#02020B" stroke="#F3F90A" stroke-width="12"/>
<path d="M305.457 31.1346L305.465 31.127C320.917 15.6464 342.286 6.07715 365.892 6.07715H495.002C542.211 6.07715 580.487 44.3508 580.487 91.592C580.487 115.198 570.918 136.567 555.437 152.02L555.43 152.027C539.977 167.508 518.609 177.077 495.002 177.077H365.892C318.682 177.077 280.407 138.802 280.407 91.592C280.407 67.9548 289.977 46.5866 305.457 31.1346Z" fill="#02020B" stroke="#F3F90A" stroke-width="12"/>
<path d="M265.814 31.1346L265.822 31.127C281.275 15.6464 302.643 6.07715 326.25 6.07715H455.36C502.568 6.07715 540.845 44.3508 540.845 91.592C540.845 115.198 531.275 136.567 515.795 152.02L515.787 152.027C500.334 167.508 478.966 177.077 455.36 177.077H326.25C279.04 177.077 240.765 138.802 240.765 91.592C240.765 67.9548 250.335 46.5866 265.814 31.1346Z" fill="#02020B" stroke="#F3F90A" stroke-width="12"/>
<path d="M226.172 31.1346L226.18 31.127C241.632 15.6464 263.001 6.07715 286.607 6.07715H415.717C462.926 6.07715 501.202 44.3508 501.202 91.592C501.202 115.198 491.633 136.567 476.152 152.02L476.145 152.027C460.692 167.508 439.323 177.077 415.717 177.077H286.607C239.397 177.077 201.122 138.802 201.122 91.592C201.122 67.9548 210.692 46.5866 226.172 31.1346Z" fill="#02020B" stroke="#F3F90A" stroke-width="12"/>
<path d="M189.06 31.1346L189.067 31.127C204.52 15.6464 225.888 6.07715 249.495 6.07715H378.605C425.814 6.07715 464.09 44.3508 464.09 91.592C464.09 115.198 454.52 136.567 439.04 152.02L439.032 152.027C423.58 167.508 402.211 177.077 378.605 177.077H249.495C202.285 177.077 164.01 138.802 164.01 91.592C164.01 67.9548 173.58 46.5866 189.06 31.1346Z" fill="#02020B" stroke="#F3F90A" stroke-width="12"/>
<path d="M149.417 31.1346L149.425 31.127C164.877 15.6464 186.246 6.07715 209.852 6.07715H338.962C386.171 6.07715 424.447 44.3508 424.447 91.592C424.447 115.198 414.878 136.567 399.397 152.02L399.39 152.027C383.937 167.508 362.569 177.077 338.962 177.077H209.852C162.642 177.077 124.367 138.802 124.367 91.592C124.367 67.9548 133.937 46.5866 149.417 31.1346Z" fill="#02020B" stroke="#F3F90A" stroke-width="12"/>
<path d="M109.774 31.1346L109.782 31.127C125.235 15.6464 146.603 6.07715 170.21 6.07715H299.32C346.528 6.07715 384.805 44.3508 384.805 91.592C384.805 115.198 375.235 136.567 359.755 152.02L359.747 152.027C344.294 167.508 322.926 177.077 299.32 177.077H170.21C123 177.077 84.7246 138.802 84.7246 91.592C84.7246 67.9548 94.2946 46.5866 109.774 31.1346Z" fill="#02020B" stroke="#F3F90A" stroke-width="12"/>
<path d="M70.1319 31.1346L70.1395 31.127C85.5922 15.6464 106.961 6.07715 130.567 6.07715H259.677C306.886 6.07715 345.162 44.3508 345.162 91.592C345.162 115.198 335.593 136.567 320.112 152.02L320.105 152.027C304.652 167.508 283.283 177.077 259.677 177.077H130.567C83.357 177.077 45.082 138.802 45.082 91.592C45.082 67.9548 54.652 46.5866 70.1319 31.1346Z" fill="#02020B" stroke="#F3F90A" stroke-width="12"/>
<path d="M28.1934 28.0638L28.1956 28.0616C44.4103 11.8177 66.8434 1.77015 91.6169 1.77015H220.727C270.273 1.77015 310.442 41.9385 310.442 91.5149C310.442 116.288 300.394 138.722 284.15 154.936L284.148 154.938C267.933 171.182 245.5 181.23 220.727 181.23H91.6169C42.0707 181.23 1.90199 141.061 1.90199 91.5149C1.90199 66.7113 11.9498 44.2782 28.1934 28.0638Z" fill="#02020B" stroke="#F3F90A" stroke-width="3.54031"/>
<path d="M276.664 64.3261C274.014 64.3757 271.939 64.7505 270.484 65.4926C269.694 65.8958 269.073 66.4148 268.65 67.0615C268.226 67.7109 268.021 68.4603 268.021 69.2908V112.206C268.021 113.037 268.226 113.786 268.65 114.436C269.073 115.082 269.694 115.601 270.484 116.005C271.961 116.758 274.077 117.133 276.783 117.173V126.399H237.013V117.173C239.676 117.132 241.763 116.757 243.221 116.003C244.002 115.6 244.617 115.08 245.034 114.434C245.454 113.785 245.656 113.036 245.656 112.206V70.2743L244.672 70.147L229.869 126.399H211.567L196.793 70.1473L195.81 70.2743V112.206C195.81 113.035 196.01 113.783 196.426 114.432C196.841 115.079 197.453 115.599 198.233 116.003C199.688 116.757 201.776 117.132 204.452 117.173V126.399H175.769V117.173C178.432 117.132 180.519 116.757 181.977 116.003C182.758 115.6 183.373 115.08 183.79 114.434C184.209 113.785 184.412 113.036 184.412 112.206V70.3637V68.5571L183.483 70.1066L157.525 113.41L157.507 113.439L157.494 113.47C157.22 114.109 157.125 114.737 157.296 115.316C157.469 115.903 157.888 116.355 158.468 116.689C159.458 117.26 161.025 117.55 163.099 117.611L157.849 126.369H132.216L135.809 119.318L135.01 118.737C132.053 121.694 128.507 123.953 124.363 125.569C120.215 127.187 116.133 127.979 112.058 127.979C109.846 127.979 107.883 127.63 106.191 126.97C105.76 126.798 105.402 126.631 105.048 126.414L104.927 126.34H104.786H68.2711V117.117H74.1786C75.1485 117.117 75.9613 116.982 76.5475 116.645C77.176 116.283 77.5099 115.708 77.5099 114.978C77.5099 114.714 77.471 114.489 77.4012 114.245L77.3925 114.214L77.3801 114.185C77.3077 114.016 77.2561 113.841 77.2 113.588L77.1968 113.574L77.1929 113.56L75.7326 108.405L75.6296 108.041H75.2515H52.4824H52.1149L52.0052 108.391L50.6392 112.757C50.4188 113.328 50.3134 113.832 50.3134 114.293C50.3134 114.762 50.425 115.195 50.6639 115.576C50.9016 115.954 51.2477 116.251 51.6743 116.478C52.5126 116.923 53.7062 117.117 55.1944 117.117H59.8503V126.34H32.2354L32.1548 117.115C34.8197 117.089 36.7912 116.852 37.9795 116.365C39.234 115.85 40.1228 115.054 40.5731 114.015L40.5825 113.993L40.5898 113.97L59.73 55.0683H84.0896L101.417 112.262L101.9 113.859L102.374 112.259C102.845 110.67 103.464 108.96 104.263 107.066L104.263 107.066C105.585 103.923 107.529 100.649 110.076 97.1847C112.616 93.7593 115.57 90.598 118.94 87.701C122.302 84.84 126.019 82.4508 130.06 80.5626C134.109 78.6851 138.299 77.7481 142.665 77.7481C145.826 77.7481 148.52 78.0439 150.727 78.6539C152.923 79.2604 154.266 80.2151 154.922 81.4208L155.339 82.1884L155.789 81.4398L163.806 68.1181L163.824 68.0881L163.838 68.0558C164.117 67.3993 164.222 66.7622 164.075 66.1744C163.925 65.5752 163.533 65.1047 162.972 64.754C162.024 64.1612 160.517 63.8628 158.53 63.7977L163.75 55.0981H216.536L226.668 98.7891H227.642L237.775 55.0981H276.664V64.3261ZM55.0149 98.498L54.8136 99.1463H55.4924H55.5222H72.5395H73.1948L73.0218 98.5143L65.0347 69.3376L64.5826 67.6863L64.0749 69.3213L55.0149 98.498ZM148.764 95.6188L148.787 95.6235C149.436 94.1009 149.861 92.804 150.056 91.7365C150.249 90.6824 150.232 89.782 149.912 89.1046C149.273 87.751 147.681 87.2088 145.586 87.2088C143.155 87.2088 140.884 87.9275 138.752 89.3491C136.657 90.7459 134.745 92.4456 133.046 94.4469C131.326 96.439 129.878 98.5208 128.642 100.661L128.64 100.664C127.414 102.817 126.45 104.684 125.783 106.26C125.783 106.26 125.783 106.259 125.784 106.259L148.764 95.6188Z" fill="#F3F90A" stroke="#F3F90A"/>
<path d="M27.1755 27.1762L27.1762 27.1755C43.6265 10.6955 66.3891 0.5 91.5237 0.5H220.688C270.957 0.5 311.712 41.2546 311.712 91.5535C311.712 116.688 301.516 139.451 285.036 155.901L285.035 155.902C268.585 172.382 245.823 182.577 220.688 182.577H91.5237C41.2547 182.577 0.5 141.822 0.5 91.5535C0.5 66.389 10.6956 43.6265 27.1755 27.1762ZM156.103 135.724C157.731 138.142 159.511 140.48 161.418 142.691C175.844 159.607 197.35 170.315 221.314 170.315C264.804 170.315 300.075 135.043 300.075 91.5535C300.075 48.0636 264.804 12.7919 221.314 12.7919C197.35 12.7919 175.845 23.4995 161.419 40.4146C159.512 42.6255 157.733 44.9632 156.104 47.3809C141.952 26.5259 118.013 12.7919 90.8978 12.7919C47.378 12.7919 12.1363 48.0637 12.1363 91.5535C12.1363 135.043 47.378 170.315 90.8978 170.315C114.862 170.315 136.337 159.608 150.763 142.693C152.671 140.48 154.451 138.141 156.103 135.724Z" fill="#F3F90A" stroke="#F3F90A"/>
</svg>
