<svg width="1444" height="1787" viewBox="0 0 1444 1787" fill="none" xmlns="http://www.w3.org/2000/svg">
<mask id="mask0_1699_1075" style="mask-type:alpha" maskUnits="userSpaceOnUse" x="0" y="0" width="1444" height="1787">
<rect width="1444" height="1787" fill="#D9D9D9"/>
</mask>
<g mask="url(#mask0_1699_1075)">
<path d="M219.379 -95.7241L219.373 -95.7183L219.368 -95.7126C90.6357 32.7879 11.0016 210.583 11.0016 406.916L11.0016 1423.04C11.0016 1815.7 329.344 2134.04 722.242 2134.04C918.575 2134.04 1096.37 2054.41 1224.87 1925.68L1224.88 1925.67L1224.88 1925.67C1353.61 1797.17 1433.25 1619.37 1433.25 1423.04L1433.25 406.916C1433.25 14.2535 1114.9 -304.09 722.242 -304.09C525.673 -304.09 347.878 -224.455 219.379 -95.7241Z" fill="#02020B" stroke="#F3F90A" stroke-width="18.0031"/>
<path d="M243.707 -105.805L243.701 -105.799L243.695 -105.793C121.192 16.4898 45.4117 185.681 45.4117 372.514L45.4117 1340.08C45.4117 1713.74 348.35 2016.69 722.237 2016.69C909.071 2016.69 1078.26 1940.91 1200.55 1818.4L1200.55 1818.4L1200.56 1818.39C1323.06 1696.11 1398.84 1526.92 1398.84 1340.08L1398.84 372.514C1398.84 -1.14833 1095.9 -304.088 722.237 -304.088C535.179 -304.088 365.989 -228.307 243.707 -105.805Z" fill="#02020B" stroke="#F3F90A" stroke-width="18.0031"/>
<path d="M268.64 -116.137L268.634 -116.131L268.629 -116.126C152.51 -0.215425 80.6793 160.157 80.6793 337.253L80.6793 1255.06C80.6793 1609.24 367.829 1896.4 722.23 1896.4C899.326 1896.4 1059.7 1824.57 1175.61 1708.45L1175.61 1708.44L1175.62 1708.44C1291.74 1592.53 1363.57 1432.15 1363.57 1255.06L1363.57 337.253C1363.57 -16.935 1076.42 -304.086 722.23 -304.086C544.921 -304.086 384.549 -232.255 268.64 -116.137Z" fill="#02020B" stroke="#F3F90A" stroke-width="18.0031"/>
<path d="M292.968 -126.223L292.962 -126.217L292.956 -126.212C183.066 -16.519 115.089 135.25 115.089 302.846L115.089 1172.1C115.089 1507.28 386.836 1779.03 722.226 1779.03C889.822 1779.03 1041.59 1711.06 1151.28 1601.17L1151.29 1601.16L1151.3 1601.16C1261.19 1491.46 1329.16 1339.69 1329.16 1172.1L1329.16 302.846C1329.16 -32.3424 1057.41 -304.09 722.226 -304.09C554.428 -304.09 402.659 -236.112 292.968 -126.223Z" fill="#02020B" stroke="#F3F90A" stroke-width="18.0031"/>
<path d="M317.25 -136.289L317.244 -136.283L317.239 -136.277C213.567 -32.7917 149.437 110.388 149.437 268.5L149.437 1089.28C149.437 1405.5 405.805 1661.87 722.217 1661.87C880.329 1661.87 1023.51 1597.74 1126.99 1494.07L1127 1494.06L1127.01 1494.06C1230.68 1390.57 1294.81 1247.39 1294.81 1089.28L1294.81 268.5C1294.81 -47.7203 1038.44 -304.09 722.217 -304.09C563.914 -304.09 420.735 -239.96 317.25 -136.289Z" fill="#02020B" stroke="#F3F90A" stroke-width="18.0031"/>
<path d="M340.403 -145.884L340.397 -145.878L340.392 -145.872C242.647 -48.3038 182.185 86.6878 182.185 235.759L182.185 1010.33C182.185 1308.47 423.894 1550.18 722.214 1550.18C871.285 1550.18 1006.28 1489.72 1103.85 1391.98L1103.85 1391.97L1103.86 1391.97C1201.6 1294.4 1262.06 1159.41 1262.06 1010.33L1262.06 235.759C1262.06 -62.3796 1020.35 -304.09 722.214 -304.09C572.962 -304.09 437.97 -243.627 340.403 -145.884Z" fill="#02020B" stroke="#F3F90A" stroke-width="18.0031"/>
<path d="M364.17 -155.729L364.164 -155.723L364.158 -155.717C272.498 -64.2219 215.8 62.3655 215.8 202.157L215.8 929.306C215.8 1208.88 442.463 1435.55 722.212 1435.55C862.004 1435.55 988.592 1378.85 1080.09 1287.19L1080.09 1287.19L1080.1 1287.18C1171.76 1195.69 1228.46 1069.1 1228.46 929.306L1228.46 202.157C1228.46 -77.4222 1001.79 -304.086 722.212 -304.086C582.251 -304.086 455.664 -247.388 364.17 -155.729Z" fill="#02020B" stroke="#F3F90A" stroke-width="18.0031"/>
<path d="M389.055 -166.047L389.049 -166.041L389.043 -166.035C303.756 -80.9014 251.002 36.8831 251.002 166.955L251.002 844.427C251.002 1104.56 461.903 1315.47 722.201 1315.47C852.273 1315.47 970.058 1262.72 1055.19 1177.43L1055.2 1177.42L1055.2 1177.42C1140.49 1092.28 1193.24 974.498 1193.24 844.427L1193.24 166.955C1193.24 -93.1847 982.341 -304.088 722.201 -304.088C591.971 -304.088 474.187 -251.333 389.055 -166.047Z" fill="#02020B" stroke="#F3F90A" stroke-width="18.0031"/>
<path d="M411.253 -175.248L411.248 -175.243L411.242 -175.237C331.638 -95.7762 282.4 14.1578 282.4 135.561L282.4 768.731C282.4 1011.53 479.247 1208.38 722.198 1208.38C843.602 1208.38 953.536 1159.14 1033 1079.54L1033 1079.54L1033.01 1079.53C1112.61 1000.07 1161.85 890.135 1161.85 768.731L1161.85 135.561C1161.85 -107.242 965.001 -304.09 722.198 -304.09C600.646 -304.09 490.713 -254.851 411.253 -175.248Z" fill="#02020B" stroke="#F3F90A" stroke-width="18.0031"/>
<path d="M435.885 -185.457L435.879 -185.451L435.873 -185.446C362.576 -112.28 317.24 -11.0578 317.24 100.727L317.24 684.736C317.24 908.299 498.49 1089.55 722.192 1089.55C833.977 1089.55 935.2 1044.22 1008.36 970.92L1008.37 970.914L1008.38 970.908C1081.67 897.743 1127.01 796.52 1127.01 684.736L1127.01 100.727C1127.01 -122.838 945.757 -304.09 722.192 -304.09C610.271 -304.09 509.049 -258.753 435.885 -185.457Z" fill="#02020B" stroke="#F3F90A" stroke-width="18.0031"/>
<path d="M462.036 -196.296L462.03 -196.29L462.025 -196.284C395.424 -129.803 354.23 -37.8291 354.23 63.7433L354.23 595.558C354.23 798.697 518.921 963.392 722.186 963.392C823.759 963.392 915.733 922.198 982.214 855.597L982.22 855.591L982.226 855.586C1048.83 789.104 1090.02 697.131 1090.02 595.558L1090.02 63.7433C1090.02 -139.397 925.327 -304.09 722.186 -304.09C620.49 -304.09 528.516 -262.896 462.036 -196.296Z" fill="#02020B" stroke="#F3F90A" stroke-width="18.0031"/>
<path d="M485.397 -205.974L485.391 -205.968L485.386 -205.962C424.766 -145.451 387.273 -61.7398 387.273 30.71L387.273 515.901C387.273 700.794 537.172 850.697 722.181 850.697C814.631 850.697 898.343 813.204 958.854 752.584L958.86 752.579L958.865 752.573C1019.49 692.062 1056.98 608.35 1056.98 515.901L1056.98 30.71C1056.98 -154.185 907.077 -304.086 722.181 -304.086C629.618 -304.086 545.907 -266.592 485.397 -205.974Z" fill="#02020B" stroke="#F3F90A" stroke-width="18.0031"/>
<path d="M507.126 -214.98L507.12 -214.974L507.114 -214.968C452.058 -160.011 418.007 -83.9841 418.007 -0.019806L418.007 441.803C418.007 609.726 554.148 745.869 722.176 745.869C806.14 745.869 882.167 711.819 937.124 656.763L937.13 656.757L937.136 656.751C992.192 601.794 1026.24 525.767 1026.24 441.803L1026.24 -0.0198133C1026.24 -167.944 890.1 -304.086 722.176 -304.086C638.108 -304.086 562.082 -270.035 507.126 -214.98Z" fill="#02020B" stroke="#F3F90A" stroke-width="18.0031"/>
<path d="M528.502 -223.84L528.496 -223.834L528.49 -223.828C478.907 -174.334 448.242 -105.866 448.242 -30.2478L448.242 368.918C448.242 520.148 570.849 642.758 722.174 642.758C797.792 642.758 866.26 612.093 915.755 562.51L915.761 562.504L915.767 562.498C965.35 513.003 996.015 444.536 996.015 368.918L996.015 -30.2478C996.015 -181.48 873.406 -304.088 722.174 -304.088C646.463 -304.088 577.995 -273.422 528.502 -223.84Z" fill="#02020B" stroke="#F3F90A" stroke-width="18.0031"/>
<path d="M550.001 -232.755L549.995 -232.749L549.99 -232.743C505.912 -188.745 478.654 -127.883 478.654 -60.6631L478.654 295.581C478.654 430.015 587.644 539.008 722.163 539.008C789.383 539.008 850.245 511.75 894.244 467.673L894.249 467.667L894.255 467.661C938.333 423.663 965.591 362.801 965.591 295.581L965.591 -60.6631C965.591 -195.099 856.599 -304.09 722.163 -304.09C654.86 -304.09 593.998 -276.831 550.001 -232.755Z" fill="#02020B" stroke="#F3F90A" stroke-width="18.0031"/>
<path d="M572.29 -241.987L572.285 -241.981L572.279 -241.975C533.906 -203.671 510.177 -150.689 510.177 -92.1696L510.177 219.608C510.177 336.641 605.059 431.526 722.168 431.526C780.687 431.526 833.67 407.798 871.974 369.425L871.979 369.419L871.985 369.413C910.358 331.109 934.087 278.127 934.087 219.608L934.087 -92.1696C934.087 -209.204 839.203 -304.088 722.168 -304.088C663.575 -304.088 610.593 -280.359 572.29 -241.987Z" fill="#02020B" stroke="#F3F90A" stroke-width="18.0031"/>
<path d="M591.983 -250.15L591.977 -250.144L591.972 -250.138C558.641 -216.868 538.033 -170.851 538.033 -120.023L538.033 152.445C538.033 254.096 620.444 336.51 722.161 336.51C772.989 336.51 819.006 315.902 852.276 282.572L852.282 282.566L852.287 282.56C885.617 249.29 906.226 203.274 906.226 152.445L906.226 -120.023C906.226 -221.675 823.813 -304.088 722.161 -304.088C671.268 -304.088 625.252 -283.479 591.983 -250.15Z" fill="#02020B" stroke="#F3F90A" stroke-width="18.0031"/>
<path d="M611.694 -258.32L611.688 -258.314L611.682 -258.308C583.4 -230.076 565.914 -191.031 565.914 -147.901L565.914 85.2251C565.914 171.48 635.843 241.413 722.155 241.413C765.285 241.413 804.33 223.927 832.562 195.644L832.568 195.638L832.574 195.632C860.857 167.4 878.343 128.355 878.343 85.2251L878.343 -147.901C878.343 -234.157 808.411 -304.088 722.155 -304.088C678.969 -304.088 639.925 -286.601 611.694 -258.32Z" fill="#02020B" stroke="#F3F90A" stroke-width="18.0031"/>
<path d="M631.262 -266.429L631.256 -266.423L631.251 -266.418C607.978 -243.186 593.591 -211.062 593.591 -175.572L593.591 18.5017C593.591 89.4742 651.131 147.018 722.152 147.018C757.641 147.018 789.766 132.631 812.998 109.358L813.003 109.353L813.009 109.347C836.282 86.1158 850.668 53.991 850.668 18.5017L850.668 -175.572C850.668 -246.547 793.127 -304.088 722.152 -304.088C686.617 -304.088 654.492 -289.701 631.262 -266.429Z" fill="#02020B" stroke="#F3F90A" stroke-width="18.0031"/>
<path d="M611.879 -202.955L611.879 -47.5241C611.879 -17.1122 624.216 10.4306 644.156 30.3346C664.06 50.2744 691.602 62.6113 722.05 62.6113C782.874 62.6113 832.186 13.2996 832.186 -47.5241L832.186 -202.955C832.186 -233.366 819.849 -260.909 799.909 -280.813C780.005 -300.753 752.462 -313.09 722.05 -313.09C661.191 -313.09 611.879 -263.778 611.879 -202.955Z" fill="#02020B"/>
<path d="M611.898 -202.955L611.898 -47.5241C611.898 -17.1122 624.235 10.4306 644.175 30.3346C664.079 50.2744 691.622 62.6113 722.07 62.6113C782.893 62.6113 832.205 13.2996 832.205 -47.5241L832.205 -202.955C832.205 -233.366 819.868 -260.909 799.928 -280.813C780.024 -300.753 752.482 -313.09 722.07 -313.09C661.21 -313.09 611.898 -263.778 611.898 -202.955ZM816.246 -203.708C816.246 -175.053 803.443 -149.339 783.216 -132.089C780.347 -129.615 777.299 -127.319 774.143 -125.239C777.299 -123.123 780.347 -120.828 783.216 -118.354C803.443 -101.103 816.246 -75.4256 816.246 -46.771C816.246 5.26632 774.071 47.4054 722.07 47.4054C670.068 47.4054 627.893 5.26632 627.893 -46.771C627.893 -79.5139 644.641 -108.384 669.997 -125.239C666.841 -127.319 663.792 -129.615 660.923 -132.089C640.697 -149.339 627.893 -175.053 627.893 -203.708C627.893 -255.709 670.068 -297.884 722.07 -297.884C774.071 -297.884 816.246 -255.709 816.246 -203.708Z" fill="#F3F90A"/>
</g>
</svg>
