<svg width="19" height="21" viewBox="0 0 19 21" fill="none" xmlns="http://www.w3.org/2000/svg">
<path d="M18.4 8.075C16.7125 8.1125 15.1375 7.5875 13.7875 6.6125V13.325C13.7875 18.0125 8.6875 20.9375 4.6375 18.6125C0.587499 16.25 0.587499 10.4 4.6375 8.0375C5.8 7.3625 7.1875 7.1 8.5375 7.2875V10.6625C6.475 9.9875 4.4875 11.825 4.9375 13.925C5.425 16.025 7.975 16.85 9.5875 15.3875C10.15 14.8625 10.4875 14.1125 10.4875 13.325V0.199999H13.7875C13.7875 0.499999 13.7875 0.762499 13.8625 1.0625C14.0875 2.3 14.8 3.3875 15.8875 4.0625C16.6 4.55 17.5 4.8125 18.4 4.8125V8.075Z" fill="black"/>
</svg>
