<svg width="20" height="16" viewBox="0 0 20 16" fill="none" xmlns="http://www.w3.org/2000/svg">
<path d="M17.6125 3.9C17.6125 4.0875 17.6125 4.2375 17.6125 4.425C17.6125 9.6375 13.675 15.6 6.4375 15.6C4.1875 15.6 2.125 14.9625 0.4 13.8375C0.7 13.875 1 13.9125 1.3375 13.9125C3.175 13.9125 4.8625 13.275 6.2125 12.225C4.4875 12.1875 3.025 11.0625 2.5375 9.4875C2.8 9.525 3.025 9.5625 3.2875 9.5625C3.625 9.5625 4 9.4875 4.3 9.4125C2.5 9.0375 1.15 7.4625 1.15 5.55V5.5125C1.675 5.8125 2.3125 5.9625 2.95 6C1.8625 5.2875 1.1875 4.0875 1.1875 2.7375C1.1875 1.9875 1.375 1.3125 1.7125 0.749999C3.6625 3.1125 6.5875 4.6875 9.85 4.875C9.775 4.575 9.7375 4.275 9.7375 3.975C9.7375 1.8 11.5 0.0374994 13.675 0.0374994C14.8 0.0374994 15.8125 0.487499 16.5625 1.275C17.425 1.0875 18.2875 0.749999 19.0375 0.299999C18.7375 1.2375 18.1375 1.9875 17.3125 2.475C18.1 2.4 18.8875 2.175 19.5625 1.875C19.0375 2.6625 18.3625 3.3375 17.6125 3.9Z" fill="black"/>
</svg>
